<?xml version="1.0" encoding="utf-8"?>
<!-- Generator: Adobe Illustrator 21.1.0, SVG Export Plug-In . SVG Version: 6.00 Build 0)  -->
<svg version="1.1" id="Layer_1" xmlns="http://www.w3.org/2000/svg" xmlns:xlink="http://www.w3.org/1999/xlink" x="0px" y="0px"
	 viewBox="0 0 512 298.7" style="enable-background:new 0 0 512 298.7;" xml:space="preserve">
<style type="text/css">
	.st0{fill:#FFFFFF;}
	.st1{fill:#7FA6D8;}
	.st2{fill:#F1BD51;}
	.st3{fill:#7B371D;}
</style>
<g id="XMLID_1_">
	<rect id="XMLID_126_" y="99.5" class="st0" width="512" height="99.6"/>
	<rect id="XMLID_125_" class="st1" width="512" height="99.5"/>
	<rect id="XMLID_124_" y="199.1" class="st1" width="512" height="99.6"/>
	<path id="XMLID_123_" class="st2" d="M254,149.3l1.5,40.7c0,0,0,0.8,0.5,0.8s0.5-0.8,0.5-0.8l1.5-40.7H254z"/>
	<g>
		<path id="XMLID_122_" class="st3" d="M256,190.9c-0.5,0-0.6-0.6-0.6-0.9l-1.5-40.7h0.3l1.5,40.7c0,0,0,0.6,0.4,0.6
			c0.4,0,0.4-0.6,0.4-0.6l1.5-40.7l-1.3,40.7C256.6,190.3,256.5,190.9,256,190.9L256,190.9z"/>
	</g>
	<polygon id="XMLID_121_" class="st3" points="255,149.3 256,177.2 257,149.3 	"/>
	<path id="XMLID_120_" class="st2" d="M252.2,162.4c-2.3,5.1-0.4,9.3-2.7,13.8s-0.9,8.2-1,10.2c-0.1,2.1-1.8,2.6-1.4,3.1
		c0.4,0.5,2.2-0.5,2.9-3.2s-0.9-4.3,1.9-9.8c2.8-5.5,0.6-8,3.4-12.9L252.2,162.4z"/>
	<g>
		<path id="XMLID_119_" class="st3" d="M247.5,189.8l-0.5-0.1c-0.3-0.3,0-0.6,0.3-0.9c0.4-0.4,1-1.1,1.1-2.3c0-0.5,0-1.2-0.1-2
			c-0.2-2.1-0.6-5,1.2-8.3c1.1-2.2,1.2-4.3,1.3-6.6c0.1-2.3,0.2-4.6,1.4-7.2l0.2,0.1c-1.2,2.5-1.3,4.9-1.3,7.1
			c-0.1,2.3-0.2,4.4-1.3,6.7c-1.7,3.2-1.4,6.1-1.2,8.1c0.1,0.8,0.2,1.5,0.1,2c-0.1,1.2-0.7,2-1.1,2.4c-0.3,0.4-0.4,0.5-0.3,0.6
			c1-0.1,2.1-1.1,2.6-3.2c0.2-0.9,0.2-1.7,0.2-2.5c-0.1-1.7-0.2-3.6,1.7-7.3c1.4-2.7,1.5-4.7,1.7-6.6c0.2-2,0.3-3.8,1.7-6.3
			c-1.2,2.6-1.3,4.4-1.5,6.3c-0.1,1.9-0.3,3.9-1.7,6.7c-1.8,3.6-1.8,5.5-1.7,7.1c0,0.9,0.1,1.7-0.2,2.6
			C249.5,188.4,248.4,189.5,247.5,189.8L247.5,189.8L247.5,189.8z"/>
	</g>
	<path id="XMLID_118_" class="st3" d="M252.8,163.7c-1.8,5.1,0.1,8.5-2.3,12.8c2.7-3.1,0.9-7.1,3.3-12.3L252.8,163.7z"/>
	<path id="XMLID_117_" class="st2" d="M258.1,149.3l-1.5-40.7c0,0,0-0.8-0.5-0.8s-0.5,0.8-0.5,0.8l-1.6,40.7H258.1z"/>
	<g>
		<path id="XMLID_116_" class="st3" d="M257.9,149.3l-1.5-40.7c0,0,0-0.6-0.4-0.6s-0.4,0.6-0.4,0.6l-1.5,40.7l1.3-40.7
			c0-0.3,0.1-0.9,0.6-0.9c0.5,0,0.6,0.6,0.6,0.9l1.5,40.7H257.9L257.9,149.3z"/>
	</g>
	<polygon id="XMLID_115_" class="st3" points="257,149.3 256,121.3 255,149.3 	"/>
	<path id="XMLID_114_" class="st2" d="M259.9,136.1c2.3-5.1,0.3-9.3,2.7-13.8c2.3-4.5,0.9-8.1,1.1-10.2c0.1-2.1,1.8-2.6,1.4-3.1
		s-2.2,0.5-2.9,3.2c-0.7,2.7,0.9,4.3-1.9,9.8s-0.6,8-3.4,12.9L259.9,136.1z"/>
	<g>
		<path id="XMLID_113_" class="st3" d="M260,136.2l-0.2-0.1c1.1-2.5,1.2-4.8,1.3-7.1c0.1-2.3,0.2-4.5,1.3-6.7c1.7-3.2,1.4-6,1.2-8.1
			c-0.1-0.8-0.2-1.5-0.1-2c0.1-1.2,0.7-2,1.1-2.4c0.3-0.4,0.4-0.5,0.3-0.6c-1,0.1-2.1,1.1-2.7,3.1c-0.2,0.9-0.2,1.7-0.2,2.5
			c0.1,1.7,0.2,3.6-1.7,7.3c-1.4,2.7-1.5,4.7-1.7,6.6c-0.2,2-0.3,3.8-1.7,6.3c1.2-2.6,1.3-4.4,1.5-6.3c0.1-1.9,0.3-3.9,1.7-6.7
			c1.8-3.6,1.8-5.5,1.7-7.1c0-0.9-0.1-1.7,0.2-2.6c0.5-2.2,1.8-3.2,2.5-3.4h0.1l0.5,0.2c0.3,0.3,0,0.6-0.3,0.9
			c-0.4,0.5-1,1.1-1.1,2.3c0,0.6,0,1.2,0.1,2c0.2,2.1,0.5,5-1.2,8.3c-1.1,2.2-1.2,4.4-1.3,6.6C261.2,131.3,261.1,133.6,260,136.2
			L260,136.2z"/>
	</g>
	<path id="XMLID_112_" class="st3" d="M259.2,134.8c1.8-5.1-0.1-8.5,2.3-12.8c-2.7,3.1-0.9,7.1-3.3,12.4L259.2,134.8z"/>
	<path id="XMLID_111_" class="st2" d="M256,147.2l-40.7,1.5c0,0-0.8,0-0.8,0.5s0.8,0.5,0.8,0.5l40.7,1.6V147.2z"/>
	<g>
		<path id="XMLID_110_" class="st3" d="M256,151.2l-40.7-1.3c-0.3,0-0.9-0.1-0.9-0.6s0.6-0.6,0.9-0.6l40.7-1.5v0.3l-40.7,1.5
			c0,0-0.6,0-0.6,0.4c0,0.4,0.6,0.4,0.6,0.4L256,151.2L256,151.2z"/>
	</g>
	<polygon id="XMLID_109_" class="st3" points="256,148.3 228,149.3 256,150.3 	"/>
	<path id="XMLID_108_" class="st2" d="M242.8,145.4c-5.1-2.3-9.3-0.3-13.8-2.7c-4.5-2.3-8.2-0.9-10.2-1c-2-0.2-2.6-1.8-3.1-1.4
		c-0.5,0.4,0.5,2.2,3.2,2.9s4.3-0.9,9.8,1.9c5.5,2.8,8,0.6,12.9,3.4L242.8,145.4z"/>
	<g>
		<path id="XMLID_107_" class="st3" d="M241.6,148.3c-2.6-1.2-4.4-1.3-6.3-1.5c-1.9-0.1-3.9-0.3-6.7-1.7c-3.6-1.9-5.5-1.8-7.1-1.7
			c-0.9,0-1.7,0.1-2.6-0.2c-2-0.5-3.2-1.6-3.4-2.5v-0.1l0.1-0.6c0.3-0.3,0.6,0,0.9,0.3c0.5,0.4,1.1,1,2.3,1.1c0.5,0.1,1.2,0,2-0.1
			c2.1-0.2,5-0.6,8.3,1.2c2.2,1.2,4.3,1.2,6.6,1.3s4.6,0.2,7.2,1.3l-0.1,0.2c-2.5-1.2-4.8-1.2-7.1-1.3s-4.4-0.2-6.7-1.3
			c-3.2-1.7-6.1-1.4-8.2-1.1c-0.8,0.1-1.4,0.1-2,0.1c-1.2-0.1-1.9-0.7-2.4-1.1c-0.3-0.3-0.5-0.4-0.6-0.3c0.1,1,1.1,2.1,3.1,2.7
			c0.9,0.2,1.7,0.2,2.5,0.2c1.7-0.1,3.6-0.2,7.3,1.7c2.7,1.4,4.7,1.5,6.6,1.7C237.3,146.8,239.2,146.9,241.6,148.3L241.6,148.3z"/>
	</g>
	<path id="XMLID_106_" class="st3" d="M241.5,146.1c-5.1-1.8-8.5,0.1-12.8-2.3c3.1,2.7,7.1,0.9,12.3,3.3L241.5,146.1z"/>
	<path id="XMLID_105_" class="st2" d="M256,151.3l40.7-1.5c0,0,0.8,0,0.8-0.5s-0.8-0.5-0.8-0.5l-40.7-1.5V151.3z"/>
	<g>
		<path id="XMLID_104_" class="st3" d="M256,151.5v-0.3l40.7-1.5c0,0,0.6,0,0.6-0.4s-0.6-0.4-0.6-0.4l-40.7-1.5l40.7,1.3
			c0.3,0,0.9,0.1,0.9,0.6c0,0.5-0.6,0.6-0.9,0.6L256,151.5L256,151.5z"/>
	</g>
	<polygon id="XMLID_103_" class="st3" points="256,150.3 284,149.3 256,148.3 	"/>
	<path id="XMLID_102_" class="st2" d="M269.2,153.1c5.1,2.3,9.3,0.3,13.8,2.7c4.5,2.3,8.1,0.9,10.2,1c2,0.2,2.6,1.8,3.1,1.4
		s-0.5-2.2-3.2-2.9c-2.7-0.7-4.3,1-9.8-1.9c-5.5-2.8-8-0.6-12.9-3.4L269.2,153.1z"/>
	<g>
		<path id="XMLID_101_" class="st3" d="M296.1,158.5c-0.2,0-0.4-0.2-0.7-0.4c-0.4-0.4-1.1-1-2.3-1.1c-0.5,0-1.2,0-2,0.1
			c-2.1,0.2-5,0.6-8.3-1.2c-2.2-1.2-4.4-1.2-6.6-1.3c-2.3-0.1-4.6-0.2-7.2-1.4l0.1-0.2c2.5,1.2,4.8,1.2,7.1,1.3
			c2.3,0.1,4.5,0.2,6.7,1.4c3.2,1.7,6,1.4,8.1,1.1c0.8-0.1,1.5-0.2,2-0.1c1.2,0.1,1.9,0.7,2.4,1.1c0.4,0.3,0.5,0.4,0.6,0.3
			c-0.1-1-1.1-2.1-3.1-2.7c-0.9-0.2-1.7-0.2-2.5-0.2c-1.7,0.1-3.6,0.2-7.3-1.7c-2.7-1.4-4.7-1.5-6.6-1.7c-2-0.1-3.8-0.3-6.3-1.7
			c2.6,1.2,4.4,1.3,6.3,1.5c1.9,0.1,3.9,0.3,6.7,1.7c3.6,1.8,5.5,1.7,7.1,1.7c0.9,0,1.7-0.1,2.6,0.2c2.2,0.5,3.2,1.8,3.4,2.5v0.1
			l-0.2,0.5C296.2,158.4,296.2,158.5,296.1,158.5L296.1,158.5z"/>
	</g>
	<path id="XMLID_100_" class="st3" d="M270.5,152.5c5.1,1.8,8.5-0.1,12.8,2.3c-3.1-2.7-7.1-0.9-12.4-3.3L270.5,152.5z"/>
	<path id="XMLID_99_" class="st2" d="M254.6,147.9l-27.7,29.9c0,0-0.5,0.6-0.2,0.9c0.4,0.4,0.9-0.2,0.9-0.2l29.9-27.7L254.6,147.9z"
		/>
	<g>
		<path id="XMLID_98_" class="st3" d="M227,178.9c-0.7-0.5-0.4-1-0.2-1.2l27.7-29.9l0.2,0.2L227,177.9c0,0-0.4,0.5-0.2,0.7
			c0.3,0.3,0.7-0.2,0.7-0.2l29.9-27.7l-29.7,27.9C227.7,178.5,227.3,178.9,227,178.9L227,178.9z"/>
	</g>
	<polygon id="XMLID_97_" class="st3" points="255.3,148.6 236.2,169 256.7,150 	"/>
	<path id="XMLID_96_" class="st2" d="M244,155.9c-5.3,2-6.8,6.4-11.6,7.9s-6.4,5.1-8,6.5c-1.5,1.3-3.2,0.6-3.2,1.2s1.9,1.2,4.3-0.2
		c2.4-1.4,2.4-3.7,8.2-5.6c5.9-1.9,6-5.2,11.5-6.7L244,155.9z"/>
	<g>
		<path id="XMLID_95_" class="st3" d="M222.6,172.2c-0.5,0-0.9-0.1-1.2-0.3l-0.4-0.5c0-0.4,0.4-0.4,0.9-0.4c0.6,0,1.5-0.1,2.4-0.9
			c0.4-0.4,0.8-0.9,1.3-1.5c1.3-1.7,3.1-3.9,6.7-5c2.4-0.7,4-2.2,5.6-3.7s3.4-3.1,6-4.1l0.1,0.2c-2.6,1-4.3,2.5-5.9,4.1
			c-1.7,1.6-3.3,3-5.7,3.8c-3.5,1.1-5.3,3.3-6.6,5c-0.5,0.6-0.9,1.1-1.3,1.5c-0.9,0.8-1.9,0.9-2.5,0.9c-0.5,0-0.6,0.1-0.6,0.2
			c0.8,0.6,2.3,0.7,4.1-0.4c0.8-0.5,1.3-1.1,1.9-1.7c1.1-1.3,2.4-2.7,6.3-3.9c2.9-0.9,4.4-2.2,5.8-3.4c1.5-1.3,2.9-2.5,5.7-3.2
			c-2.7,1-4,2.2-5.5,3.4c-1.5,1.3-3,2.6-5.9,3.5c-3.8,1.2-5.1,2.6-6.2,3.9c-0.6,0.6-1.1,1.2-2,1.7
			C224.4,171.9,223.4,172.2,222.6,172.2L222.6,172.2z"/>
	</g>
	<path id="XMLID_94_" class="st3" d="M243.5,157.3c-4.9,2.3-5.9,6.1-10.7,7.4c4.1-0.3,5.7-4.4,11.1-6.4L243.5,157.3z"/>
	<path id="XMLID_93_" class="st2" d="M257.5,150.7l27.7-29.9c0,0,0.5-0.5,0.2-0.9c-0.4-0.4-0.9,0.2-0.9,0.2l-29.9,27.7L257.5,150.7z
		"/>
	<g>
		<path id="XMLID_92_" class="st3" d="M257.5,150.8l-0.2-0.2l27.7-29.9c0,0,0.4-0.5,0.2-0.7c-0.3-0.3-0.7,0.2-0.7,0.2l-29.9,27.7
			l29.7-27.9c0.2-0.2,0.7-0.5,1.1-0.2c0.3,0.4,0,0.9-0.2,1.1L257.5,150.8L257.5,150.8z"/>
	</g>
	<polygon id="XMLID_91_" class="st3" points="256.7,150 275.8,129.5 255.3,148.6 	"/>
	<path id="XMLID_90_" class="st2" d="M268,142.7c5.3-2,6.8-6.4,11.6-7.9c4.8-1.5,6.4-5.2,8-6.5s3.1-0.5,3.2-1.2
		c0-0.6-1.9-1.2-4.3,0.2s-2.4,3.7-8.2,5.6c-5.9,1.9-6,5.2-11.5,6.7L268,142.7z"/>
	<g>
		<path id="XMLID_89_" class="st3" d="M268.1,142.8l-0.1-0.2c2.6-1,4.3-2.5,5.9-4.1c1.7-1.6,3.3-3,5.7-3.8c3.5-1.1,5.3-3.3,6.6-4.9
			c0.5-0.6,0.9-1.2,1.4-1.5c0.9-0.8,1.9-0.9,2.5-0.9c0.5,0,0.6-0.1,0.6-0.2c-0.8-0.6-2.3-0.7-4.1,0.4c-0.8,0.5-1.3,1.1-1.9,1.7
			c-1.1,1.3-2.4,2.7-6.4,3.9c-2.9,0.9-4.4,2.2-5.8,3.5c-1.5,1.3-2.9,2.5-5.7,3.2c2.6-1,4-2.2,5.5-3.4c1.5-1.3,3-2.6,5.9-3.5
			c3.8-1.2,5.1-2.6,6.2-3.9c0.6-0.6,1.1-1.2,2-1.7c1.8-1.1,3.4-1.1,4.1-0.7l0.4,0.5c0,0.4-0.4,0.4-0.9,0.4c-0.6,0-1.5,0.1-2.4,0.8
			c-0.4,0.4-0.8,0.9-1.3,1.5c-1.3,1.7-3.1,3.9-6.7,5c-2.4,0.7-4,2.2-5.6,3.7C272.4,140.3,270.7,141.8,268.1,142.8L268.1,142.8z"/>
	</g>
	<path id="XMLID_88_" class="st3" d="M268.5,141.3c4.9-2.3,6-6.1,10.7-7.4c-4.1,0.3-5.7,4.4-11.1,6.4L268.5,141.3z"/>
	<path id="XMLID_87_" class="st2" d="M257.5,147.9l-29.9-27.7c0,0-0.5-0.5-0.9-0.2c-0.4,0.4,0.2,0.9,0.2,0.9l27.7,29.9L257.5,147.9z
		"/>
	<g>
		<path id="XMLID_86_" class="st3" d="M254.6,150.7L226.7,121c-0.2-0.2-0.5-0.7-0.2-1.1c0.4-0.4,0.9,0,1.1,0.2l29.9,27.7l-0.2,0.2
			l-29.9-27.7c0,0-0.5-0.4-0.7-0.2c-0.3,0.3,0.2,0.7,0.2,0.7L254.6,150.7L254.6,150.7z"/>
	</g>
	<polygon id="XMLID_85_" class="st3" points="256.7,148.6 236.2,129.5 255.3,150 	"/>
	<path id="XMLID_84_" class="st2" d="M249.4,137.3c-2-5.3-6.4-6.8-7.9-11.6s-5.1-6.4-6.5-8c-1.3-1.6-0.6-3.1-1.2-3.2
		c-0.6,0-1.2,1.9,0.2,4.3c1.4,2.4,3.7,2.4,5.6,8.2c1.9,5.9,5.2,6,6.7,11.5L249.4,137.3z"/>
	<g>
		<path id="XMLID_83_" class="st3" d="M246.5,138.5c-1-2.7-2.2-4-3.4-5.5c-1.3-1.5-2.6-3-3.5-5.9c-1.2-3.8-2.6-5.1-3.9-6.2
			c-0.6-0.6-1.2-1.1-1.7-2c-1.1-1.9-1-3.5-0.6-4.1l0.5-0.3c0.4,0,0.4,0.4,0.4,0.9c0,0.6,0.1,1.5,0.9,2.4c0.4,0.4,0.9,0.8,1.5,1.3
			c1.6,1.3,3.9,3.1,5,6.7c0.7,2.4,2.2,3.9,3.7,5.6c1.5,1.7,3.1,3.4,4.1,6l-0.2,0.1c-1-2.6-2.5-4.3-4.1-6s-3-3.3-3.8-5.7
			c-1.1-3.5-3.3-5.2-4.9-6.5c-0.6-0.5-1.2-0.9-1.5-1.4c-0.8-0.9-0.9-1.9-0.9-2.5c0-0.5-0.1-0.6-0.2-0.6c-0.6,0.8-0.8,2.3,0.3,4.1
			c0.5,0.8,1.1,1.3,1.7,1.9c1.3,1.1,2.7,2.4,3.9,6.4c0.9,2.9,2.2,4.4,3.5,5.8C244.6,134.3,245.8,135.7,246.5,138.5L246.5,138.5z"/>
	</g>
	<path id="XMLID_82_" class="st3" d="M248.1,136.8c-2.3-4.9-6.1-5.9-7.4-10.7c0.3,4.1,4.4,5.7,6.4,11.1L248.1,136.8z"/>
	<path id="XMLID_81_" class="st2" d="M254.6,150.7l29.9,27.7c0,0,0.5,0.5,0.9,0.2c0.3-0.3-0.2-0.9-0.2-0.9l-27.7-29.9L254.6,150.7z"
		/>
	<g>
		<path id="XMLID_80_" class="st3" d="M285,178.7c-0.5,0-0.7-0.2-0.7-0.2l-29.9-27.7l0.2-0.2l29.9,27.7c0,0,0.5,0.5,0.7,0.2
			c0.3-0.3-0.2-0.7-0.2-0.7l-27.7-29.9l27.9,29.7c0.2,0.2,0.5,0.7,0.2,1.1C285.3,178.7,285.2,178.7,285,178.7L285,178.7z"/>
	</g>
	<polygon id="XMLID_79_" class="st3" points="255.3,150 275.8,169 256.7,148.6 	"/>
	<path id="XMLID_78_" class="st2" d="M262.6,161.3c2,5.3,6.4,6.8,7.9,11.6c1.5,4.8,5.2,6.4,6.5,7.9c1.3,1.6,0.6,3.2,1.2,3.2
		s1.2-1.9-0.2-4.3c-1.4-2.4-3.7-2.4-5.6-8.2c-1.9-5.9-5.2-6-6.7-11.5L262.6,161.3z"/>
	<g>
		<path id="XMLID_77_" class="st3" d="M278.1,184.2c-0.4,0-0.4-0.4-0.4-0.9c0-0.6-0.1-1.5-0.8-2.4c-0.4-0.4-0.9-0.8-1.5-1.3
			c-1.7-1.3-3.9-3.1-5-6.7c-0.7-2.4-2.2-4-3.8-5.6c-1.5-1.6-3.1-3.4-4.1-6l0.2-0.1c1,2.6,2.5,4.3,4.1,5.9c1.6,1.7,3,3.3,3.8,5.7
			c1.1,3.5,3.3,5.3,5,6.6c0.6,0.5,1.1,0.9,1.5,1.3c0.8,0.9,0.9,1.9,0.9,2.5c0,0.5,0.1,0.6,0.2,0.6c0.6-0.8,0.8-2.3-0.3-4.1
			c-0.5-0.8-1.1-1.3-1.7-1.9c-1.3-1.1-2.7-2.4-3.9-6.3c-0.9-2.9-2.2-4.4-3.5-5.8c-1.3-1.5-2.5-2.9-3.2-5.7c1,2.6,2.2,4,3.4,5.5
			c1.3,1.5,2.6,3,3.5,5.9c1.2,3.8,2.6,5.1,3.9,6.2c0.6,0.6,1.2,1.1,1.7,2c1.1,1.8,1.1,3.4,0.6,4.1L278.1,184.2L278.1,184.2z"/>
	</g>
	<path id="XMLID_76_" class="st3" d="M264,161.8c2.3,4.9,6.1,5.9,7.4,10.7c-0.3-4.1-4.4-5.7-6.4-11.1L264,161.8z"/>
	<path id="XMLID_75_" class="st2" d="M254.1,148.5l-14.2,38.2c0,0-0.3,0.7,0.2,0.9c0.5,0.2,0.8-0.5,0.8-0.5l17-37L254.1,148.5z"/>
	<g>
		<path id="XMLID_74_" class="st3" d="M240.5,187.7c-0.9-0.2-0.8-0.8-0.7-1.1l14.2-38.2l0.2,0.1L240,186.7c0,0-0.2,0.6,0.1,0.8
			l0.6-0.5l17-37L241,187.2C241,187.2,240.8,187.6,240.5,187.7L240.5,187.7z"/>
	</g>
	<polygon id="XMLID_73_" class="st3" points="255.1,148.9 245.3,175.1 256.9,149.7 	"/>
	<path id="XMLID_72_" class="st2" d="M247.4,160c-4.1,3.8-3.9,8.5-7.7,11.7c-3.9,3.2-3.9,7.2-4.9,9c-0.9,1.8-2.7,1.7-2.5,2.3
		c0.2,0.6,2.2,0.4,3.9-1.9s0.8-4.3,5.5-8.3s3.6-7.1,8-10.6L247.4,160z"/>
	<g>
		<path id="XMLID_71_" class="st3" d="M232.9,183.5c-0.1,0-0.1,0-0.2,0l-0.6-0.4c-0.1-0.4,0.2-0.5,0.6-0.7c0.5-0.3,1.3-0.7,1.9-1.7
			c0.3-0.5,0.4-1.2,0.7-1.9c0.6-2,1.4-4.8,4.2-7.2c1.9-1.6,2.8-3.5,3.8-5.6c0.9-2,1.9-4.2,4-6.1l0.2,0.2c-2,1.9-3,4-3.9,6
			c-1,2.1-1.9,4-3.8,5.7c-2.8,2.3-3.6,5.1-4.2,7.1c-0.2,0.8-0.4,1.4-0.7,1.9c-0.6,1.1-1.4,1.5-2,1.8c-0.4,0.2-0.6,0.3-0.5,0.4
			c1,0.3,2.4-0.2,3.6-1.9c0.6-0.8,0.8-1.5,1.1-2.3c0.6-1.6,1.3-3.4,4.4-6.1c2.3-2,3.2-3.7,4.1-5.4c0.9-1.7,1.7-3.4,4-5.1
			c-2.1,1.9-2.9,3.5-3.8,5.3c-0.9,1.7-1.8,3.5-4.1,5.5c-3.1,2.6-3.7,4.4-4.3,6c-0.3,0.8-0.6,1.6-1.2,2.4
			C235.1,182.8,233.8,183.5,232.9,183.5L232.9,183.5z"/>
	</g>
	<path id="XMLID_70_" class="st3" d="M247.5,161.4c-3.6,4-3.2,7.9-7.1,10.9c3.7-1.8,3.6-6.2,7.8-10.1L247.5,161.4z"/>
	<path id="XMLID_69_" class="st2" d="M257.9,150.1l14.2-38.2c0,0,0.3-0.7-0.2-0.9s-0.8,0.5-0.8,0.5l-17,37L257.9,150.1z"/>
	<g>
		<path id="XMLID_68_" class="st3" d="M258,150.1l-0.2-0.1l14.2-38.2c0,0,0.2-0.6-0.1-0.7l-0.6,0.4l-17,37l16.8-37.1
			c0,0,0.2-0.4,0.5-0.6l0.7,0.3c0.1,0.3,0,0.7,0,0.8L258,150.1L258,150.1z"/>
	</g>
	<polygon id="XMLID_67_" class="st3" points="256.9,149.7 266.7,123.5 255.1,148.9 	"/>
	<path id="XMLID_66_" class="st2" d="M264.6,138.6c4.1-3.8,3.9-8.5,7.7-11.7c3.9-3.2,3.9-7.2,4.9-9c0.9-1.8,2.7-1.7,2.5-2.3
		s-2.2-0.4-3.9,1.9c-1.7,2.3-0.8,4.3-5.5,8.3s-3.6,7.1-8,10.6L264.6,138.6z"/>
	<g>
		<path id="XMLID_65_" class="st3" d="M264.7,138.7l-0.2-0.2c2-1.9,3-4,3.9-6c1-2.1,1.9-4,3.8-5.7c2.8-2.3,3.6-5.1,4.2-7.1
			c0.2-0.8,0.4-1.4,0.7-1.9c0.6-1.1,1.4-1.5,2-1.8c0.4-0.2,0.5-0.3,0.5-0.4c-1-0.3-2.4,0.2-3.6,1.9c-0.6,0.8-0.8,1.5-1.1,2.3
			c-0.6,1.6-1.2,3.4-4.4,6.1c-2.3,2-3.2,3.7-4.1,5.4c-0.9,1.8-1.7,3.4-4,5.1c2.1-1.9,2.9-3.5,3.8-5.3s1.8-3.5,4.1-5.5
			c3.1-2.6,3.7-4.4,4.3-6c0.3-0.8,0.6-1.6,1.2-2.4c1.2-1.7,2.7-2.3,3.5-2.2l0.6,0.4c0.1,0.4-0.2,0.5-0.6,0.7
			c-0.5,0.3-1.3,0.7-1.9,1.7c-0.3,0.5-0.4,1.1-0.7,1.9c-0.6,2-1.4,4.8-4.2,7.2c-1.9,1.6-2.8,3.5-3.8,5.6
			C267.7,134.7,266.8,136.8,264.7,138.7L264.7,138.7z"/>
	</g>
	<path id="XMLID_64_" class="st3" d="M264.5,137.2c3.6-4,3.2-7.9,7.1-10.9c-3.7,1.8-3.6,6.2-7.8,10.2L264.5,137.2z"/>
	<path id="XMLID_63_" class="st2" d="M256.8,147.4l-38.2-14.2c0,0-0.7-0.3-0.9,0.2s0.5,0.8,0.5,0.8l37,17L256.8,147.4z"/>
	<g>
		<path id="XMLID_62_" class="st3" d="M255.3,151.1l-37.2-16.8c-0.3-0.1-0.8-0.5-0.6-0.9c0.2-0.5,0.8-0.4,1.1-0.2l38.2,14.2
			l-0.1,0.2l-38.2-14.2c0,0-0.6-0.2-0.8,0.1c-0.1,0.4,0.4,0.6,0.4,0.6L255.3,151.1L255.3,151.1z"/>
	</g>
	<polygon id="XMLID_61_" class="st3" points="256.4,148.4 230.2,138.6 255.6,150.2 	"/>
	<path id="XMLID_60_" class="st2" d="M245.3,140.7c-3.9-4.1-8.5-3.9-11.7-7.7c-3.2-3.9-7.2-3.9-9-4.9c-1.8-0.9-1.7-2.7-2.3-2.5
		s-0.4,2.2,1.9,3.9c2.2,1.7,4.3,0.8,8.3,5.5s7.1,3.6,10.6,8L245.3,140.7z"/>
	<g>
		<path id="XMLID_59_" class="st3" d="M243.1,142.9c-1.9-2.1-3.5-2.9-5.3-3.8c-1.7-0.9-3.5-1.8-5.5-4.1c-2.6-3.1-4.4-3.7-6-4.3
			c-0.8-0.3-1.6-0.6-2.3-1.2c-1.7-1.3-2.3-2.7-2.2-3.6l0.4-0.5c0.3-0.1,0.5,0.2,0.7,0.6c0.3,0.5,0.7,1.3,1.7,1.9
			c0.5,0.2,1.1,0.4,1.8,0.6c2,0.6,4.8,1.4,7.2,4.3c1.6,1.9,3.5,2.8,5.6,3.7s4.2,1.9,6.1,4l-0.2,0.2c-1.9-2-4-3-6.1-3.9
			c-2.1-1-4-1.9-5.7-3.8c-2.3-2.8-5.1-3.6-7.1-4.2c-0.7-0.2-1.4-0.4-1.9-0.6c-1.1-0.6-1.5-1.4-1.8-2c-0.2-0.4-0.3-0.6-0.4-0.5
			c-0.3,1,0.2,2.4,1.9,3.7c0.7,0.6,1.5,0.8,2.3,1.1c1.6,0.6,3.4,1.2,6.1,4.4c2,2.3,3.7,3.2,5.4,4.1
			C239.7,139.8,241.4,140.6,243.1,142.9L243.1,142.9z"/>
	</g>
	<path id="XMLID_58_" class="st3" d="M243.9,140.8c-4-3.6-7.9-3.2-10.9-7.1c1.8,3.7,6.2,3.6,10.2,7.8L243.9,140.8z"/>
	<path id="XMLID_57_" class="st2" d="M255.2,151.2l38.2,14.2c0,0,0.7,0.3,0.9-0.2c0.2-0.5-0.5-0.8-0.5-0.8l-37-17L255.2,151.2z"/>
	<g>
		<path id="XMLID_56_" class="st3" d="M293.9,165.6c-0.2,0-0.4,0-0.5-0.1l-38.2-14.2l0.1-0.2l38.2,14.2c0,0,0.6,0.2,0.8-0.1
			c0.1-0.3-0.4-0.6-0.5-0.6l-37-17l37.2,16.8c0.3,0.1,0.8,0.5,0.6,0.9C294.3,165.5,294.1,165.6,293.9,165.6L293.9,165.6z"/>
	</g>
	<polygon id="XMLID_55_" class="st3" points="255.6,150.2 281.8,160 256.4,148.4 	"/>
	<path id="XMLID_54_" class="st2" d="M266.7,157.9c3.8,4.1,8.5,3.9,11.7,7.7c3.2,3.9,7.2,3.9,9,4.9c1.8,0.9,1.7,2.7,2.3,2.5
		c0.6-0.2,0.4-2.2-1.9-3.9c-2.2-1.7-4.3-0.8-8.3-5.5s-7.1-3.6-10.6-8.1L266.7,157.9z"/>
	<g>
		<path id="XMLID_53_" class="st3" d="M289.7,173.1c-0.3,0-0.4-0.3-0.6-0.7c-0.3-0.5-0.7-1.3-1.7-1.9c-0.5-0.2-1.1-0.4-1.9-0.6
			c-2-0.6-4.8-1.4-7.2-4.2c-1.6-1.9-3.6-2.8-5.6-3.7c-2.1-0.9-4.2-1.9-6.1-4l0.2-0.2c1.9,2,4,3,6,3.9c2.1,0.9,4.1,1.9,5.7,3.8
			c2.3,2.8,5.1,3.6,7.1,4.2c0.8,0.2,1.4,0.4,1.9,0.7c1.1,0.6,1.5,1.4,1.8,2c0.2,0.4,0.3,0.5,0.4,0.5c0.3-1-0.2-2.4-1.9-3.6
			c-0.8-0.6-1.5-0.8-2.3-1.1c-1.6-0.6-3.4-1.2-6.1-4.4c-2-2.3-3.7-3.2-5.4-4.1c-1.7-0.9-3.4-1.7-5.2-4c1.9,2.1,3.5,2.9,5.3,3.8
			c1.7,0.9,3.5,1.8,5.5,4.1c2.6,3.1,4.4,3.7,6,4.3c0.8,0.3,1.6,0.6,2.3,1.1c1.8,1.3,2.3,2.9,2.2,3.6L289.7,173.1
			C289.7,173.1,289.7,173.1,289.7,173.1L289.7,173.1z"/>
	</g>
	<path id="XMLID_52_" class="st3" d="M268.1,157.8c4,3.6,7.9,3.1,10.9,7.1c-1.8-3.7-6.2-3.6-10.1-7.8L268.1,157.8z"/>
	<path id="XMLID_51_" class="st2" d="M255.2,147.4l-37,17c0,0-0.7,0.3-0.5,0.8s0.9,0.2,0.9,0.2l38.2-14.2L255.2,147.4z"/>
	<g>
		<path id="XMLID_50_" class="st3" d="M218.2,165.6c-0.2,0-0.5-0.1-0.6-0.4c-0.2-0.5,0.3-0.8,0.6-0.9l37-17l0.1,0.2l-37,17
			c0,0-0.6,0.3-0.5,0.6c0.2,0.4,0.7,0.1,0.7,0.1l38.2-14.2l-38.1,14.4C218.5,165.5,218.3,165.6,218.2,165.6L218.2,165.6z"/>
	</g>
	<polygon id="XMLID_49_" class="st3" points="255.6,148.4 230.2,160 256.4,150.2 	"/>
	<path id="XMLID_48_" class="st2" d="M242.4,150.8c-5.6-0.2-8.7,3.2-13.7,2.8c-5-0.4-7.9,2.3-9.8,3c-2,0.6-3.1-0.7-3.4-0.1
		c-0.3,0.6,1.3,1.8,4.1,1.4s3.6-2.5,9.7-2c6.2,0.5,7.6-2.5,13.2-1.8v-3.3H242.4z"/>
	<g>
		<path id="XMLID_47_" class="st3" d="M218.4,158c-1.6,0-2.7-0.6-3-1.1l-0.1-0.6c0.2-0.3,0.5-0.2,1-0.1c0.6,0.2,1.4,0.5,2.5,0.1
			c0.5-0.2,1.1-0.5,1.8-0.9c1.9-1,4.3-2.4,8.1-2.1c2.5,0.2,4.5-0.5,6.6-1.3s4.3-1.6,7.1-1.5v0.3c-2.7-0.1-4.9,0.7-7,1.5
			c-2.2,0.8-4.2,1.5-6.7,1.3c-3.6-0.3-6.1,1.1-8,2.1c-0.7,0.4-1.3,0.7-1.8,0.9c-1.2,0.4-2.1,0.1-2.7-0.1c-0.5-0.2-0.6-0.2-0.6-0.1
			c0.5,0.9,1.8,1.6,3.9,1.2c0.9-0.1,1.6-0.5,2.4-0.8c1.5-0.7,3.2-1.5,7.4-1.2c3,0.3,4.9-0.4,6.7-1c1.9-0.6,3.6-1.2,6.5-0.8
			c-2.9-0.2-4.6,0.5-6.4,1.1c-1.8,0.6-3.7,1.2-6.8,1c-4-0.3-5.7,0.5-7.2,1.2c-0.8,0.4-1.5,0.7-2.5,0.8
			C219.1,158,218.7,158,218.4,158L218.4,158z"/>
	</g>
	<path id="XMLID_46_" class="st3" d="M241.4,151.9c-5.4,0.3-7.8,3.3-12.7,2.7c3.9,1.3,6.9-1.9,12.7-1.7V151.9z"/>
	<path id="XMLID_45_" class="st2" d="M256.8,151.2l37-17c0,0,0.7-0.3,0.5-0.8s-0.9-0.2-0.9-0.2l-38.2,14.2L256.8,151.2z"/>
	<g>
		<path id="XMLID_44_" class="st3" d="M256.8,151.3l-0.1-0.2l37-17c0,0,0.6-0.3,0.5-0.6c-0.2-0.3-0.7-0.1-0.7-0.1l-38.2,14.2
			l38.1-14.4c0.3-0.1,0.9-0.2,1.1,0.2c0.2,0.5-0.3,0.8-0.6,0.9L256.8,151.3L256.8,151.3z"/>
	</g>
	<polygon id="XMLID_43_" class="st3" points="256.4,150.2 281.8,138.6 255.6,148.4 	"/>
	<path id="XMLID_42_" class="st2" d="M269.6,147.8c5.6,0.2,8.7-3.3,13.7-2.8c5,0.4,7.9-2.3,9.8-3c2-0.6,3.1,0.7,3.4,0.1
		c0.3-0.6-1.3-1.8-4.1-1.4c-2.8,0.4-3.6,2.5-9.7,2s-7.6,2.5-13.2,1.8v3.3H269.6z"/>
	<g>
		<path id="XMLID_41_" class="st3" d="M270.1,147.9c-0.2,0-0.3,0-0.5,0v-0.3c2.8,0.1,4.9-0.7,7-1.5c2.2-0.8,4.2-1.5,6.7-1.3
			c3.7,0.3,6.1-1.1,8-2.1c0.7-0.4,1.3-0.7,1.8-0.9c1.2-0.4,2.1-0.1,2.7,0.1c0.4,0.2,0.6,0.2,0.6,0.1c-0.5-0.9-1.8-1.6-3.9-1.3
			c-0.9,0.1-1.6,0.5-2.4,0.8c-1.5,0.7-3.3,1.5-7.4,1.2c-3-0.2-4.9,0.4-6.7,1c-1.9,0.6-3.6,1.2-6.5,0.8c2.8,0.1,4.6-0.5,6.4-1
			c1.8-0.6,3.7-1.2,6.8-1c4,0.3,5.7-0.5,7.2-1.2c0.8-0.4,1.5-0.7,2.5-0.9c2.1-0.3,3.6,0.3,4.1,1l0.1,0.6c-0.2,0.3-0.5,0.2-0.9,0.1
			c-0.6-0.2-1.4-0.5-2.5-0.1c-0.5,0.2-1.1,0.5-1.8,0.9c-1.9,1-4.4,2.4-8.1,2.1c-2.5-0.2-4.5,0.5-6.6,1.3
			C274.8,147.2,272.7,147.9,270.1,147.9L270.1,147.9z"/>
	</g>
	<path id="XMLID_40_" class="st3" d="M270.6,146.7c5.4-0.3,7.8-3.3,12.7-2.7c-3.9-1.3-6.9,1.9-12.7,1.7V146.7z"/>
	<path id="XMLID_39_" class="st2" d="M257.9,148.5l-17-37c0,0-0.3-0.7-0.8-0.5s-0.2,0.9-0.2,0.9l14.2,38.2L257.9,148.5z"/>
	<g>
		<path id="XMLID_38_" class="st3" d="M254.2,150l-14.4-38.1c0,0-0.2-0.4,0-0.7l0.7-0.3c0.3,0.1,0.5,0.6,0.5,0.6l17,37l-0.2,0.1
			L240.5,111l-0.3,0.1l-0.1,0.7L254.2,150L254.2,150z"/>
	</g>
	<polygon id="XMLID_37_" class="st3" points="256.9,148.9 245.3,123.5 255.1,149.7 	"/>
	<path id="XMLID_36_" class="st2" d="M254.5,135.7c0.2-5.6-3.3-8.7-2.8-13.8c0.5-5-2.3-7.9-2.9-9.8c-0.6-2,0.7-3.1,0.1-3.4
		c-0.6-0.3-1.8,1.3-1.4,4c0.4,2.8,2.5,3.6,2,9.8c-0.5,6.1,2.5,7.6,1.8,13.2H254.5z"/>
	<g>
		<path id="XMLID_35_" class="st3" d="M254.7,135.7h-0.3c0.1-2.8-0.7-4.9-1.5-7s-1.6-4.2-1.3-6.7c0.3-3.6-1-6.1-2.1-7.9
			c-0.4-0.7-0.7-1.3-0.9-1.8c-0.4-1.2-0.1-2.1,0.1-2.7c0.1-0.4,0.2-0.6,0.1-0.7c-0.9,0.5-1.6,1.8-1.2,3.9c0.1,0.9,0.5,1.7,0.8,2.4
			c0.7,1.5,1.5,3.3,1.2,7.4c-0.2,3,0.4,4.9,1,6.7c0.6,1.9,1.2,3.6,0.8,6.5c0.1-2.8-0.5-4.5-1.1-6.4c-0.6-1.8-1.2-3.7-1-6.8
			c0.3-4-0.5-5.7-1.2-7.2c-0.4-0.8-0.7-1.5-0.8-2.5c-0.3-2.1,0.3-3.5,1-4l0.6-0.1c0.3,0.2,0.2,0.5,0.1,1c-0.2,0.6-0.5,1.4-0.1,2.5
			c0.2,0.5,0.5,1.1,0.9,1.8c1,1.8,2.4,4.4,2.1,8.1c-0.2,2.5,0.5,4.5,1.3,6.6C253.9,130.7,254.8,132.8,254.7,135.7L254.7,135.7z"/>
	</g>
	<path id="XMLID_34_" class="st3" d="M253.4,134.7c-0.3-5.4-3.3-7.8-2.7-12.7c-1.3,3.9,1.8,6.9,1.7,12.7H253.4z"/>
	<path id="XMLID_33_" class="st2" d="M254.1,150.1l17,37c0,0,0.3,0.7,0.8,0.5s0.2-0.9,0.2-0.9l-14.2-38.2L254.1,150.1z"/>
	<g>
		<path id="XMLID_32_" class="st3" d="M271.9,187.7c-0.8-0.1-0.9-0.6-0.9-0.6l-17-37l0.2-0.1l17,37c0,0,0.3,0.6,0.6,0.5
			c0.3-0.1,0.1-0.7,0.1-0.7l-14.2-38.2l14.4,38.1C272.3,186.9,272.4,187.5,271.9,187.7L271.9,187.7z"/>
	</g>
	<polygon id="XMLID_31_" class="st3" points="255.1,149.7 266.7,175.1 256.9,148.9 	"/>
	<path id="XMLID_30_" class="st2" d="M257.5,162.9c-0.2,5.6,3.3,8.7,2.8,13.8c-0.5,5,2.3,7.9,2.9,9.8c0.6,2-0.7,3.1-0.1,3.4
		s1.8-1.3,1.4-4.1c-0.4-2.8-2.5-3.6-2-9.7s-2.5-7.6-1.8-13.2L257.5,162.9z"/>
	<g>
		<path id="XMLID_29_" class="st3" d="M263.1,190c-0.3-0.2-0.2-0.5-0.1-1c0.2-0.6,0.5-1.4,0.1-2.5c-0.2-0.5-0.5-1.1-0.9-1.8
			c-1-1.9-2.4-4.4-2.1-8.1c0.2-2.5-0.5-4.5-1.3-6.6s-1.6-4.3-1.5-7.1h0.3c-0.1,2.8,0.7,5,1.5,7.1s1.6,4.2,1.3,6.7
			c-0.3,3.6,1,6.1,2.1,8c0.4,0.7,0.7,1.3,0.9,1.8c0.4,1.2,0.1,2.1-0.1,2.7C263.1,189.6,263.1,189.8,263.1,190c1-0.6,1.7-1.9,1.4-4
			c-0.1-0.9-0.5-1.6-0.8-2.4c-0.7-1.5-1.5-3.3-1.2-7.4c0.2-3-0.4-4.9-1-6.7c-0.6-1.9-1.2-3.6-0.8-6.5c-0.1,2.8,0.5,4.6,1.1,6.4
			s1.2,3.7,1,6.8c-0.3,4,0.5,5.7,1.2,7.3c0.4,0.8,0.7,1.5,0.8,2.5c0.3,2.1-0.3,3.6-1,4.1L263.1,190L263.1,190z"/>
	</g>
	<path id="XMLID_28_" class="st3" d="M258.6,163.9c0.3,5.4,3.3,7.8,2.7,12.7c1.3-3.9-1.9-6.9-1.7-12.7H258.6z"/>
	<path id="XMLID_27_" class="st2" d="M256,132.7c9.2,0,16.6,7.4,16.6,16.6s-7.4,16.6-16.6,16.6c-9.2,0-16.6-7.4-16.6-16.6
		C239.4,140.1,246.8,132.7,256,132.7L256,132.7z"/>
	<g>
		<path class="st3" d="M256,166c-9.2,0-16.7-7.5-16.7-16.7c0-9.2,7.5-16.7,16.7-16.7c9.2,0,16.7,7.5,16.7,16.7
			C272.7,158.5,265.2,166,256,166L256,166z M256,132.8c-9.1,0-16.5,7.4-16.5,16.4c0,9.1,7.4,16.5,16.5,16.5s16.5-7.4,16.5-16.5
			C272.5,140.2,265.1,132.8,256,132.8L256,132.8z"/>
	</g>
	<path id="XMLID_24_" class="st3" d="M266.5,145.7c-2.9-2.5-6.6-2.9-8.7-1c-1.5,2-1.3,4.3,0.4,6.8c-0.1,0-0.4,0.1-0.5,0.3
		c-1.3-2.4-1.5-5-0.6-7.3C259.8,142.1,263.7,141.9,266.5,145.7L266.5,145.7z"/>
	<path id="XMLID_23_" class="st3" d="M261.9,144.9c-1.7,0-2,0.4-2.8,1s-1.1,0.5-1.3,0.6c-0.1,0.1,0,0.5,0.3,0.4
		c0.2-0.1,0.8-0.4,1.5-1c0.8-0.6,1.5-0.6,2.3-0.6c2.3,0,3.6,1.9,3.8,1.8C266,147,264.4,144.9,261.9,144.9L261.9,144.9z"/>
	<path id="XMLID_22_" class="st3" d="M264.8,147.1c-1.7-1.8-4.7-1.9-6,0.1h0.5c1.3-2,4.4-1.2,4.6-0.3v0.3L264.8,147.1z"/>
	<path id="XMLID_21_" class="st3" d="M261.6,145.8c0.6,0,1.2,0.5,1.2,1.2c0,0.6-0.5,1.2-1.2,1.2c-0.6,0-1.1-0.5-1.1-1.2
		C260.5,146.4,261,145.8,261.6,145.8L261.6,145.8z"/>
	<path id="XMLID_20_" class="st3" d="M258.8,147.2c1.3,1.2,4.1,1.3,6-0.1l-0.9-0.1c-1.3,1.4-3.3,1.3-4.6,0.3V147L258.8,147.2z"/>
	<path id="XMLID_19_" class="st3" d="M264.9,147.8c-2.2,1.7-4.3,1.5-5.6,0.8c-1.3-0.8-1.3-1-1-1s0.5,0.2,1.5,0.8
		C260.8,148.8,262.4,148.8,264.9,147.8L264.9,147.8z"/>
	<path id="XMLID_18_" class="st3" d="M258.7,151.6c0.4,0.1,0.6,0.6,0.5,1s-0.6,0.6-1,0.5c-0.3-0.1-0.5-0.4-0.5-0.7
		c-0.1,0.3-0.6,1-1.6,1h-0.3l0.3,0.4c0.2,0,1,0,1.5-0.4c0.4,0.5,1.1,0.6,1.6,0.3c0.5-0.4,0.6-1.1,0.3-1.6
		C259.2,151.8,259,151.6,258.7,151.6L258.7,151.6z"/>
	<path id="XMLID_17_" class="st3" d="M260.2,156.9c-1.2-0.8-1.6-1.9-2.9-1.9c-0.3,0-0.8,0.1-1.3,0.4h-0.3l0.3,0.4
		c0.5,0,1.3-0.6,2.2-0.1C259.1,156.2,259.6,156.7,260.2,156.9L260.2,156.9z"/>
	<path id="XMLID_16_" class="st3" d="M259.8,156.9c-2.6-0.8-3.1-0.2-3.8-0.2h-0.3l0.3,0.5C257,157.2,257.5,156.4,259.8,156.9
		L259.8,156.9z"/>
	<path id="XMLID_15_" class="st3" d="M260.2,156.9c-2.8-0.2-1.9,1.4-4.2,1.4h-0.3l0.3,0.4C258.8,158.7,257.5,157.2,260.2,156.9
		L260.2,156.9z"/>
	<path id="XMLID_14_" class="st3" d="M258.3,161c0-1.3-1-2.3-2.3-2.3s-2.3,1-2.3,2.3c0.3-1.3,1.6-2,2.8-1.7
		C257.4,159.5,258.1,160.2,258.3,161L258.3,161z"/>
	<path id="XMLID_13_" class="st3" d="M245.5,145.7c2.9-2.5,6.6-2.9,8.7-1c1.5,2,1.3,4.3-0.4,6.8c0.1,0,0.4,0.1,0.5,0.3
		c1.3-2.4,1.5-5,0.6-7.3C252.2,142.1,248.3,141.9,245.5,145.7L245.5,145.7z"/>
	<path id="XMLID_12_" class="st3" d="M250.1,144.9c1.7,0,2,0.4,2.8,1s1.1,0.5,1.3,0.6c0.1,0.1,0,0.5-0.3,0.4c-0.2-0.1-0.8-0.4-1.5-1
		c-0.8-0.6-1.5-0.6-2.3-0.6c-2.3,0-3.6,1.9-3.8,1.8C246.1,147,247.6,144.9,250.1,144.9L250.1,144.9z"/>
	<path id="XMLID_11_" class="st3" d="M247.2,147.1c1.6-1.8,4.7-1.9,6,0.1h-0.5c-1.3-2-4.3-1.2-4.6-0.3v0.3L247.2,147.1z"/>
	<path id="XMLID_10_" class="st3" d="M250.4,145.8c-0.6,0-1.1,0.5-1.1,1.2c0,0.6,0.5,1.2,1.1,1.2s1.1-0.5,1.1-1.2
		C251.5,146.4,251,145.8,250.4,145.8L250.4,145.8z"/>
	<path id="XMLID_9_" class="st3" d="M253.2,147.2c-1.3,1.2-4.1,1.3-6-0.1l0.9-0.1c1.3,1.4,3.3,1.3,4.6,0.3V147L253.2,147.2z"/>
	<path id="XMLID_8_" class="st3" d="M247.1,147.8c2.2,1.7,4.3,1.5,5.6,0.8c1.3-0.8,1.3-1,1-1s-0.5,0.2-1.5,0.8
		C251.2,148.8,249.6,148.8,247.1,147.8L247.1,147.8z"/>
	<path id="XMLID_7_" class="st3" d="M253.3,151.6c-0.4,0.1-0.6,0.6-0.5,1c0.2,0.4,0.6,0.6,1,0.5c0.3-0.1,0.5-0.4,0.5-0.7
		c0.1,0.3,0.6,1,1.7,1h0.2l-0.2,0.4c-0.3,0-1,0-1.5-0.4c-0.4,0.5-1.1,0.6-1.6,0.3c-0.5-0.4-0.6-1.1-0.3-1.6
		C252.8,151.8,253,151.6,253.3,151.6L253.3,151.6z"/>
	<path id="XMLID_6_" class="st3" d="M251.8,156.9c1.1-0.8,1.6-1.9,2.9-1.9c0.3,0,0.8,0.1,1.3,0.4h0.2l-0.2,0.4
		c-0.5,0-1.3-0.6-2.2-0.1C252.9,156.2,252.4,156.7,251.8,156.9L251.8,156.9z"/>
	<path id="XMLID_5_" class="st3" d="M252.2,156.9c2.5-0.8,3.1-0.2,3.8-0.2h0.2l-0.2,0.5C255,157.2,254.5,156.4,252.2,156.9
		L252.2,156.9z"/>
	<path id="XMLID_4_" class="st3" d="M251.8,156.9c2.8-0.2,1.9,1.4,4.2,1.4h0.2l-0.2,0.4C253.2,158.7,254.5,157.2,251.8,156.9
		L251.8,156.9z"/>
	<path id="XMLID_3_" class="st3" d="M253.7,161c0-1.3,1-2.3,2.3-2.3c1.3,0,2.3,1,2.3,2.3c-0.3-1.3-1.6-2-2.8-1.7
		C254.6,159.5,253.9,160.2,253.7,161L253.7,161z"/>
</g>
</svg>
