<?xml version="1.0" encoding="utf-8"?>
<!-- Generator: Adobe Illustrator 21.1.0, SVG Export Plug-In . SVG Version: 6.00 Build 0)  -->
<svg version="1.1" id="Layer_1" xmlns="http://www.w3.org/2000/svg" xmlns:xlink="http://www.w3.org/1999/xlink" x="0px" y="0px"
	 viewBox="0 0 512 298.7" style="enable-background:new 0 0 512 298.7;" xml:space="preserve">
<style type="text/css">
	.st0{fill:#3D9244;}
	.st1{fill:#EDC223;}
	.st2{fill:#31276C;}
	.st3{fill:#FFFFFF;}
</style>
<g id="XMLID_1_">
	<rect id="XMLID_305_" class="st0" width="512" height="298.7"/>
	<polygon id="XMLID_304_" class="st1" points="78.9,149.3 256,262.4 433.1,149.3 256,36.2 	"/>
	<path id="XMLID_303_" class="st2" d="M330.7,149.3c0,41.2-33.5,74.7-74.7,74.7s-74.7-33.4-74.7-74.7c0-41.2,33.4-74.7,74.7-74.7
		C297.2,74.6,330.7,108.1,330.7,149.3"/>
	<path id="XMLID_302_" class="st3" d="M213.3,117.3c-8.7,0-17.3,0.6-25.6,1.8c-1.6,3.7-2.9,7.5-4,11.4c9.6-1.7,19.5-2.6,29.6-2.6
		c43.8,0,83.7,16.5,113.9,43.6c1.2-3.8,2.1-7.8,2.7-11.8C298.4,133.3,257.7,117.3,213.3,117.3"/>
	<path class="st0" d="M192.3,127.5c1.8-0.2,3-2,2.7-3.9c-0.2-1.9-1.9-3.4-3.6-3.1c-1.8,0.2-3,2-2.7,3.9
		C189,126.3,190.6,127.7,192.3,127.5 M192.2,126.2c1-0.1,1.7-1.2,1.6-2.4c-0.2-1.2-1.1-2.1-2.1-2s-1.7,1.2-1.6,2.4
		C190.2,125.4,191.1,126.3,192.2,126.2"/>
	<path class="st0" d="M198.1,126.8l1.3-0.1l-0.2-2.6l2.8-0.2c1.2-0.1,2.2-1.2,2.1-2.4c-0.1-1.2-1.1-2.2-2.4-2.1l-4.1,0.3
		L198.1,126.8z M199.2,122.8l2.7-0.2c0.5,0,0.9-0.5,0.8-1c0-0.5-0.5-0.9-1-0.8L199,121L199.2,122.8z"/>
	<path id="XMLID_297_" class="st0" d="M204.1,126.4c-0.1-1-0.2-3.3-1.7-3.1l-1.9,0.1c2.2-0.2,2.4,2.1,2.4,3.1"/>
	<path class="st0" d="M207.1,126.3l3.4-0.1c1.7,0,3-1.4,3-3.1v-1c0-1.7-1.4-3-3.1-3l-3.4,0.1L207.1,126.3z M208.4,124.9h1.9
		c1.1,0,1.9-0.9,1.9-2v-0.6c0-1.1-0.9-1.9-2-1.9h-1.9L208.4,124.9z"/>
	<polygon id="XMLID_294_" class="st0" points="216.2,126.2 222.6,126.4 222.6,125.1 217.4,124.9 217.5,123.1 221.6,123.2 221.6,122 
		217.5,121.9 217.6,120.4 222.5,120.6 222.5,119.3 216.4,119.1 	"/>
	<polygon id="XMLID_293_" class="st0" points="225.2,126.6 226.4,126.7 226.8,121.8 227.8,126.8 228.9,126.9 230.8,122.2 230.3,127 
		231.6,127.1 232.2,120 230.4,119.9 228.6,124.6 227.6,119.6 225.8,119.5 	"/>
	<polygon id="XMLID_292_" class="st0" points="239.9,128.2 245.2,129.1 245.4,127.9 241.3,127.2 241.6,125.6 244.9,126.2 245.1,125 
		241.8,124.4 242,123.3 245.9,124 246.1,122.8 241,121.9 	"/>
	<path class="st0" d="M253.4,130.9l1.3,0.3l0.7-2.5l2.8,0.7c1.2,0.3,2.4-0.4,2.7-1.6c0.3-1.2-0.4-2.4-1.6-2.7l-3.9-1L253.4,130.9z
		 M255.7,127.4l2.7,0.7c0.5,0.1,1-0.2,1.1-0.7s-0.2-1-0.7-1.1l-2.7-0.7L255.7,127.4z"/>
	<path class="st0" d="M262.1,133.2l1.3,0.4l0.8-2.5l2.7,0.9c1.2,0.4,2.4-0.3,2.8-1.5s-0.3-2.4-1.5-2.8l-3.9-1.2L262.1,133.2z
		 M264.6,129.8l2.6,0.8c0.5,0.2,1-0.1,1.2-0.6s-0.1-1-0.6-1.2l-2.6-0.8L264.6,129.8z"/>
	<path id="XMLID_287_" class="st0" d="M267.9,135c0.3-1,1-3.1-0.5-3.6l-1.8-0.6c2.1,0.7,1.5,2.8,1.1,3.8"/>
	<path class="st0" d="M273.7,137.1c1.7,0.6,3.6-0.4,4.2-2.2c0.7-1.8-0.1-3.8-1.8-4.5c-1.7-0.6-3.6,0.4-4.2,2.2
		C271.3,134.5,272.1,136.5,273.7,137.1 M274.2,135.9c1,0.4,2.1-0.3,2.5-1.4c0.4-1.2,0-2.4-1-2.8c-1-0.4-2.1,0.3-2.5,1.4
		C272.8,134.3,273.2,135.5,274.2,135.9"/>
	<path class="st0" d="M282.1,140.5c1.6,0.7,3.6-0.2,4.4-2s0.1-3.8-1.5-4.5s-3.6,0.2-4.4,2C279.8,137.7,280.5,139.8,282.1,140.5
		 M282.6,139.3c0.9,0.4,2.1-0.2,2.6-1.3s0.1-2.4-0.8-2.8c-0.9-0.4-2.1,0.2-2.6,1.3C281.3,137.6,281.7,138.9,282.6,139.3"/>
	<polygon id="XMLID_282_" class="st0" points="284,137.4 286.5,138.5 286,139.4 283.6,138.3 	"/>
	<polygon id="XMLID_281_" class="st0" points="285.5,138.1 286.5,138.5 285,141.8 284.1,141.4 	"/>
	<path class="st0" d="M287.4,142.9l1.2,0.6l1.2-2.4l2.5,1.3c1.1,0.6,2.5,0.1,3-1s0.1-2.4-1-3l-3.6-1.8L287.4,142.9z M290.4,139.9
		l2.5,1.2c0.5,0.2,1,0,1.2-0.4c0.2-0.5,0-1-0.4-1.2l-2.5-1.2L290.4,139.9z"/>
	<path id="XMLID_278_" class="st0" d="M292.8,145.6c0.5-0.9,1.4-2.9,0.1-3.6l-1.7-0.9c2,1,1,3,0.5,3.9"/>
	<polygon id="XMLID_277_" class="st0" points="295.5,147 301,150.1 301.7,149 297.2,146.4 298.1,144.8 301.6,146.8 302.2,145.8 
		298.7,143.8 299.4,142.5 303.6,144.9 304.3,143.8 299,140.8 	"/>
	<path id="XMLID_276_" class="st0" d="M305.8,150.4c-0.4,0.6,0,1.3,0.9,1.8s1.4,0.5,1.7,0.1c0.8-1.2-3.7-3-2.3-5.1
		c1.2-1.8,3.2-0.4,4,0.1s2,1.8,1,3.2l-1.3-0.8c0.4-0.6,0-1.3-0.7-1.7c-0.6-0.4-1.2-0.6-1.6,0c-0.7,1,3.7,2.9,2.4,5
		c-1,1.6-2.7,0.9-3.9,0.1c-1-0.6-2.5-2.1-1.5-3.6L305.8,150.4z"/>
	<path id="XMLID_275_" class="st0" d="M313.5,155.5c-0.4,0.6-0.1,1.3,0.8,1.9c0.8,0.6,1.4,0.6,1.7,0.2c0.8-1.2-3.6-3.2-2.1-5.2
		c1.3-1.8,3.3-0.2,4,0.3s1.9,1.9,0.9,3.3l-1.3-0.9c0.4-0.6,0-1.3-0.6-1.7c-0.6-0.5-1.2-0.7-1.6-0.1c-0.7,0.9,3.6,3.1,2.1,5.1
		c-1.1,1.5-2.8,0.7-3.9,0c-0.9-0.7-2.3-2.2-1.3-3.7L313.5,155.5z"/>
	<path class="st0" d="M320.7,163.7c1.4,1.1,3.5,0.7,4.7-0.8s1.1-3.7-0.3-4.8c-1.4-1.1-3.5-0.8-4.7,0.8
		C319.2,160.4,319.3,162.6,320.7,163.7 M321.5,162.6c0.8,0.6,2.1,0.4,2.9-0.6s0.7-2.3-0.1-2.9c-0.8-0.6-2.1-0.4-2.9,0.6
		C320.7,160.7,320.7,162,321.5,162.6"/>
	<polygon id="XMLID_272_" class="st3" points="195.1,132.7 194.1,135.7 195.6,136.2 	"/>
	<polygon id="XMLID_271_" class="st3" points="195.1,132.7 196,135.7 194.5,136.2 	"/>
	<polygon id="XMLID_270_" class="st3" points="198.1,134.9 194.9,134.9 194.9,136.5 	"/>
	<polygon id="XMLID_269_" class="st3" points="198.1,134.9 195.5,136.8 194.6,135.5 	"/>
	<polygon id="XMLID_268_" class="st3" points="192,134.9 194.6,136.8 195.5,135.5 	"/>
	<polygon id="XMLID_267_" class="st3" points="192,134.9 195.2,134.9 195.2,136.5 	"/>
	<polygon id="XMLID_266_" class="st3" points="196.9,138.5 195.9,135.4 194.4,135.9 	"/>
	<polygon id="XMLID_265_" class="st3" points="196.9,138.5 194.3,136.6 195.3,135.3 	"/>
	<polygon id="XMLID_264_" class="st3" points="193.2,138.5 195.8,136.6 194.8,135.3 	"/>
	<polygon id="XMLID_263_" class="st3" points="193.2,138.5 194.2,135.4 195.7,135.9 	"/>
	<polygon id="XMLID_262_" class="st3" points="201.7,164.1 200.7,167.1 202.2,167.6 	"/>
	<polygon id="XMLID_261_" class="st3" points="201.7,164.1 202.6,167.1 201.1,167.6 	"/>
	<polygon id="XMLID_260_" class="st3" points="204.7,166.3 201.5,166.3 201.5,167.9 	"/>
	<polygon id="XMLID_259_" class="st3" points="204.7,166.3 202.1,168.2 201.2,166.9 	"/>
	<polygon id="XMLID_258_" class="st3" points="198.6,166.3 201.2,168.2 202.1,166.9 	"/>
	<polygon id="XMLID_257_" class="st3" points="198.6,166.3 201.8,166.3 201.8,167.9 	"/>
	<polygon id="XMLID_256_" class="st3" points="203.5,169.9 202.5,166.8 201,167.3 	"/>
	<polygon id="XMLID_255_" class="st3" points="203.5,169.9 200.9,168 201.9,166.7 	"/>
	<polygon id="XMLID_254_" class="st3" points="199.8,169.9 202.4,168 201.4,166.7 	"/>
	<polygon id="XMLID_253_" class="st3" points="199.8,169.9 200.8,166.8 202.3,167.3 	"/>
	<polygon id="XMLID_252_" class="st3" points="192.5,171.8 191.9,173.9 192.9,174.2 	"/>
	<polygon id="XMLID_251_" class="st3" points="192.5,171.8 193.2,173.9 192.2,174.2 	"/>
	<polygon id="XMLID_250_" class="st3" points="194.5,173.3 192.4,173.3 192.4,174.4 	"/>
	<polygon id="XMLID_249_" class="st3" points="194.5,173.3 192.8,174.6 192.2,173.7 	"/>
	<polygon id="XMLID_248_" class="st3" points="190.5,173.3 192.2,174.6 192.8,173.7 	"/>
	<polygon id="XMLID_247_" class="st3" points="190.5,173.3 192.6,173.3 192.6,174.4 	"/>
	<polygon id="XMLID_246_" class="st3" points="193.8,175.7 193.1,173.7 192.1,174 	"/>
	<polygon id="XMLID_245_" class="st3" points="193.8,175.7 192,174.4 192.7,173.6 	"/>
	<polygon id="XMLID_244_" class="st3" points="191.3,175.7 193,174.4 192.4,173.6 	"/>
	<polygon id="XMLID_243_" class="st3" points="191.3,175.7 191.9,173.7 192.9,174 	"/>
	<polygon id="XMLID_242_" class="st3" points="209,161.2 208.5,162.6 209.2,162.9 	"/>
	<polygon id="XMLID_241_" class="st3" points="209,161.2 209.4,162.6 208.7,162.9 	"/>
	<polygon id="XMLID_240_" class="st3" points="210.4,162.2 208.9,162.2 208.9,163 	"/>
	<polygon id="XMLID_239_" class="st3" points="210.4,162.2 209.2,163.1 208.7,162.5 	"/>
	<polygon id="XMLID_238_" class="st3" points="207.5,162.2 208.7,163.1 209.2,162.5 	"/>
	<polygon id="XMLID_237_" class="st3" points="207.5,162.2 209,162.2 209,163 	"/>
	<polygon id="XMLID_236_" class="st3" points="209.9,163.9 209.4,162.5 208.7,162.7 	"/>
	<polygon id="XMLID_235_" class="st3" points="209.9,163.9 208.6,163 209.1,162.4 	"/>
	<polygon id="XMLID_234_" class="st3" points="208.1,163.9 209.3,163 208.9,162.4 	"/>
	<polygon id="XMLID_233_" class="st3" points="208.1,163.9 208.5,162.5 209.3,162.7 	"/>
	<polygon id="XMLID_232_" class="st3" points="217.2,172 216.4,174.6 217.6,175 	"/>
	<polygon id="XMLID_231_" class="st3" points="217.2,172 218,174.6 216.8,175 	"/>
	<polygon id="XMLID_230_" class="st3" points="219.7,173.9 217.1,173.9 217.1,175.2 	"/>
	<polygon id="XMLID_229_" class="st3" points="219.7,173.9 217.6,175.4 216.8,174.4 	"/>
	<polygon id="XMLID_228_" class="st3" points="214.7,173.9 216.8,175.4 217.6,174.4 	"/>
	<polygon id="XMLID_227_" class="st3" points="214.7,173.9 217.3,173.9 217.3,175.2 	"/>
	<polygon id="XMLID_226_" class="st3" points="218.8,176.8 217.9,174.3 216.7,174.7 	"/>
	<polygon id="XMLID_225_" class="st3" points="218.8,176.8 216.6,175.3 217.4,174.2 	"/>
	<polygon id="XMLID_224_" class="st3" points="215.6,176.8 217.8,175.3 217,174.2 	"/>
	<polygon id="XMLID_223_" class="st3" points="215.6,176.8 216.5,174.3 217.7,174.7 	"/>
	<polygon id="XMLID_222_" class="st3" points="215,179.4 214.1,182 215.4,182.4 	"/>
	<polygon id="XMLID_221_" class="st3" points="215,179.4 215.8,182 214.5,182.4 	"/>
	<polygon id="XMLID_220_" class="st3" points="217.5,181.3 214.8,181.3 214.8,182.6 	"/>
	<polygon id="XMLID_219_" class="st3" points="217.5,181.3 215.3,182.9 214.6,181.8 	"/>
	<polygon id="XMLID_218_" class="st3" points="212.4,181.3 214.6,182.9 215.4,181.8 	"/>
	<polygon id="XMLID_217_" class="st3" points="212.4,181.3 215.1,181.3 215.1,182.6 	"/>
	<polygon id="XMLID_216_" class="st3" points="216.5,184.3 215.7,181.7 214.4,182.1 	"/>
	<polygon id="XMLID_215_" class="st3" points="216.5,184.3 214.4,182.7 215.2,181.6 	"/>
	<polygon id="XMLID_214_" class="st3" points="213.4,184.3 215.6,182.7 214.8,181.6 	"/>
	<polygon id="XMLID_213_" class="st3" points="213.4,184.3 214.2,181.7 215.5,182.1 	"/>
	<polygon id="XMLID_212_" class="st3" points="279.2,122.9 278.2,126 279.7,126.5 	"/>
	<polygon id="XMLID_211_" class="st3" points="279.2,122.9 280.2,126 278.6,126.5 	"/>
	<polygon id="XMLID_210_" class="st3" points="282.2,125.1 279,125.1 279,126.7 	"/>
	<polygon id="XMLID_209_" class="st3" points="282.2,125.1 279.6,127 278.7,125.7 	"/>
	<polygon id="XMLID_208_" class="st3" points="276.1,125.1 278.7,127 279.7,125.7 	"/>
	<polygon id="XMLID_207_" class="st3" points="276.1,125.1 279.3,125.1 279.3,126.7 	"/>
	<polygon id="XMLID_206_" class="st3" points="281,128.7 280.1,125.7 278.5,126.2 	"/>
	<polygon id="XMLID_205_" class="st3" points="281,128.7 278.5,126.8 279.4,125.5 	"/>
	<polygon id="XMLID_204_" class="st3" points="277.3,128.7 279.9,126.8 278.9,125.5 	"/>
	<polygon id="XMLID_203_" class="st3" points="277.3,128.7 278.3,125.7 279.8,126.2 	"/>
	<polygon id="XMLID_202_" class="st3" points="308.3,172.3 307.3,175.4 308.9,175.8 	"/>
	<polygon id="XMLID_201_" class="st3" points="308.3,172.3 309.3,175.4 307.8,175.8 	"/>
	<polygon id="XMLID_200_" class="st3" points="311.4,174.5 308.2,174.5 308.2,176.1 	"/>
	<polygon id="XMLID_199_" class="st3" points="311.4,174.5 308.8,176.4 307.8,175.1 	"/>
	<polygon id="XMLID_198_" class="st3" points="305.3,174.5 307.9,176.4 308.8,175.1 	"/>
	<polygon id="XMLID_197_" class="st3" points="305.3,174.5 308.5,174.5 308.5,176.1 	"/>
	<polygon id="XMLID_196_" class="st3" points="310.2,178.1 309.2,175.1 307.7,175.5 	"/>
	<polygon id="XMLID_195_" class="st3" points="310.2,178.1 307.6,176.2 308.6,174.9 	"/>
	<polygon id="XMLID_194_" class="st3" points="306.4,178.1 309,176.2 308.1,174.9 	"/>
	<polygon id="XMLID_193_" class="st3" points="306.4,178.1 307.4,175.1 308.9,175.5 	"/>
	<polygon id="XMLID_192_" class="st3" points="318.7,174.1 318,176.1 319,176.4 	"/>
	<polygon id="XMLID_191_" class="st3" points="318.7,174.1 319.3,176.1 318.3,176.4 	"/>
	<polygon id="XMLID_190_" class="st3" points="320.7,175.6 318.6,175.6 318.6,176.6 	"/>
	<polygon id="XMLID_189_" class="st3" points="320.7,175.6 319,176.8 318.4,176 	"/>
	<polygon id="XMLID_188_" class="st3" points="316.6,175.6 318.4,176.8 319,176 	"/>
	<polygon id="XMLID_187_" class="st3" points="316.6,175.6 318.8,175.6 318.8,176.6 	"/>
	<polygon id="XMLID_186_" class="st3" points="319.9,177.9 319.3,175.9 318.3,176.2 	"/>
	<polygon id="XMLID_185_" class="st3" points="319.9,177.9 318.2,176.7 318.8,175.8 	"/>
	<polygon id="XMLID_184_" class="st3" points="317.4,177.9 319.1,176.7 318.5,175.8 	"/>
	<polygon id="XMLID_183_" class="st3" points="317.4,177.9 318.1,175.9 319.1,176.2 	"/>
	<polygon id="XMLID_182_" class="st3" points="311.4,179.4 310.5,182 311.8,182.4 	"/>
	<polygon id="XMLID_181_" class="st3" points="311.4,179.4 312.2,182 310.9,182.4 	"/>
	<polygon id="XMLID_180_" class="st3" points="313.9,181.3 311.2,181.3 311.2,182.6 	"/>
	<polygon id="XMLID_179_" class="st3" points="313.9,181.3 311.7,182.9 311,181.8 	"/>
	<polygon id="XMLID_178_" class="st3" points="308.8,181.3 311,182.9 311.8,181.8 	"/>
	<polygon id="XMLID_177_" class="st3" points="308.8,181.3 311.5,181.3 311.5,182.6 	"/>
	<polygon id="XMLID_176_" class="st3" points="312.9,184.3 312.1,181.7 310.8,182.1 	"/>
	<polygon id="XMLID_175_" class="st3" points="312.9,184.3 310.8,182.7 311.6,181.6 	"/>
	<polygon id="XMLID_174_" class="st3" points="309.8,184.3 312,182.7 311.2,181.6 	"/>
	<polygon id="XMLID_173_" class="st3" points="309.8,184.3 310.6,181.7 311.9,182.1 	"/>
	<polygon id="XMLID_172_" class="st3" points="293.4,195.1 292.6,197.6 293.8,198 	"/>
	<polygon id="XMLID_171_" class="st3" points="293.4,195.1 294.2,197.6 292.9,198 	"/>
	<polygon id="XMLID_170_" class="st3" points="295.9,196.9 293.3,196.9 293.3,198.3 	"/>
	<polygon id="XMLID_169_" class="st3" points="295.9,196.9 293.8,198.5 293,197.4 	"/>
	<polygon id="XMLID_168_" class="st3" points="290.9,196.9 293,198.5 293.8,197.4 	"/>
	<polygon id="XMLID_167_" class="st3" points="290.9,196.9 293.5,196.9 293.5,198.3 	"/>
	<polygon id="XMLID_166_" class="st3" points="295,199.9 294.1,197.4 292.9,197.8 	"/>
	<polygon id="XMLID_165_" class="st3" points="295,199.9 292.8,198.3 293.6,197.3 	"/>
	<polygon id="XMLID_164_" class="st3" points="291.8,199.9 294,198.3 293.2,197.3 	"/>
	<polygon id="XMLID_163_" class="st3" points="291.8,199.9 292.6,197.4 293.9,197.8 	"/>
	<polygon id="XMLID_162_" class="st3" points="293.3,203.1 292.6,205.2 293.6,205.5 	"/>
	<polygon id="XMLID_161_" class="st3" points="293.3,203.1 293.9,205.2 292.9,205.5 	"/>
	<polygon id="XMLID_160_" class="st3" points="295.3,204.6 293.2,204.6 293.2,205.7 	"/>
	<polygon id="XMLID_159_" class="st3" points="295.3,204.6 293.6,205.9 293,205 	"/>
	<polygon id="XMLID_158_" class="st3" points="291.3,204.6 293,205.9 293.6,205 	"/>
	<polygon id="XMLID_157_" class="st3" points="291.3,204.6 293.4,204.6 293.4,205.7 	"/>
	<polygon id="XMLID_156_" class="st3" points="294.5,207 293.9,205 292.9,205.3 	"/>
	<polygon id="XMLID_155_" class="st3" points="294.5,207 292.8,205.7 293.4,204.9 	"/>
	<polygon id="XMLID_154_" class="st3" points="292,207 293.8,205.7 293.1,204.9 	"/>
	<polygon id="XMLID_153_" class="st3" points="292,207 292.7,205 293.7,205.3 	"/>
	<polygon id="XMLID_152_" class="st3" points="300.8,189.7 300.1,191.8 301.2,192.1 	"/>
	<polygon id="XMLID_151_" class="st3" points="300.8,189.7 301.5,191.8 300.4,192.1 	"/>
	<polygon id="XMLID_150_" class="st3" points="302.8,191.2 300.7,191.2 300.7,192.3 	"/>
	<polygon id="XMLID_149_" class="st3" points="302.8,191.2 301.1,192.5 300.5,191.6 	"/>
	<polygon id="XMLID_148_" class="st3" points="298.8,191.2 300.5,192.5 301.1,191.6 	"/>
	<polygon id="XMLID_147_" class="st3" points="298.8,191.2 300.9,191.2 300.9,192.3 	"/>
	<polygon id="XMLID_146_" class="st3" points="302.1,193.6 301.4,191.6 300.4,191.9 	"/>
	<polygon id="XMLID_145_" class="st3" points="302.1,193.6 300.3,192.3 301,191.5 	"/>
	<polygon id="XMLID_144_" class="st3" points="299.6,193.6 301.3,192.3 300.6,191.5 	"/>
	<polygon id="XMLID_143_" class="st3" points="299.6,193.6 300.2,191.6 301.2,191.9 	"/>
	<polygon id="XMLID_142_" class="st3" points="306.8,185.4 306,188 307.2,188.4 	"/>
	<polygon id="XMLID_141_" class="st3" points="306.8,185.4 307.6,188 306.4,188.4 	"/>
	<polygon id="XMLID_140_" class="st3" points="309.3,187.3 306.7,187.3 306.7,188.6 	"/>
	<polygon id="XMLID_139_" class="st3" points="309.3,187.3 307.2,188.8 306.4,187.8 	"/>
	<polygon id="XMLID_138_" class="st3" points="304.3,187.3 306.4,188.8 307.2,187.8 	"/>
	<polygon id="XMLID_137_" class="st3" points="304.3,187.3 306.9,187.3 306.9,188.6 	"/>
	<polygon id="XMLID_136_" class="st3" points="308.4,190.2 307.5,187.7 306.3,188.1 	"/>
	<polygon id="XMLID_135_" class="st3" points="308.4,190.2 306.2,188.7 307,187.6 	"/>
	<polygon id="XMLID_134_" class="st3" points="305.2,190.2 307.4,188.7 306.6,187.6 	"/>
	<polygon id="XMLID_133_" class="st3" points="305.2,190.2 306.1,187.7 307.3,188.1 	"/>
	<polygon id="XMLID_132_" class="st3" points="293.1,188.3 292.4,190.3 293.4,190.7 	"/>
	<polygon id="XMLID_131_" class="st3" points="293.1,188.3 293.7,190.3 292.7,190.7 	"/>
	<polygon id="XMLID_130_" class="st3" points="295.1,189.8 293,189.8 293,190.8 	"/>
	<polygon id="XMLID_129_" class="st3" points="295.1,189.8 293.4,191 292.8,190.2 	"/>
	<polygon id="XMLID_128_" class="st3" points="291.1,189.8 292.8,191 293.4,190.2 	"/>
	<polygon id="XMLID_127_" class="st3" points="291.1,189.8 293.2,189.8 293.2,190.8 	"/>
	<polygon id="XMLID_126_" class="st3" points="294.3,192.2 293.7,190.1 292.7,190.4 	"/>
	<polygon id="XMLID_125_" class="st3" points="294.3,192.2 292.6,190.9 293.2,190.1 	"/>
	<polygon id="XMLID_124_" class="st3" points="291.8,192.2 293.6,190.9 292.9,190.1 	"/>
	<polygon id="XMLID_123_" class="st3" points="291.8,192.2 292.5,190.1 293.5,190.4 	"/>
	<polygon id="XMLID_122_" class="st3" points="227.6,149.7 226.7,152.2 228,152.6 	"/>
	<polygon id="XMLID_121_" class="st3" points="227.6,149.7 228.4,152.2 227.1,152.6 	"/>
	<polygon id="XMLID_120_" class="st3" points="230.1,151.5 227.4,151.5 227.4,152.8 	"/>
	<polygon id="XMLID_119_" class="st3" points="230.1,151.5 227.9,153.1 227.2,152 	"/>
	<polygon id="XMLID_118_" class="st3" points="225,151.5 227.2,153.1 228,152 	"/>
	<polygon id="XMLID_117_" class="st3" points="225,151.5 227.7,151.5 227.7,152.8 	"/>
	<polygon id="XMLID_116_" class="st3" points="229.1,154.5 228.3,152 227,152.4 	"/>
	<polygon id="XMLID_115_" class="st3" points="229.1,154.5 227,152.9 227.8,151.8 	"/>
	<polygon id="XMLID_114_" class="st3" points="226,154.5 228.1,152.9 227.4,151.8 	"/>
	<polygon id="XMLID_113_" class="st3" points="226,154.5 226.8,152 228.1,152.4 	"/>
	<polygon id="XMLID_112_" class="st3" points="276.3,143.4 275.7,145.4 276.7,145.8 	"/>
	<polygon id="XMLID_111_" class="st3" points="276.3,143.4 277,145.4 276,145.8 	"/>
	<polygon id="XMLID_110_" class="st3" points="278.3,144.9 276.2,144.9 276.2,145.9 	"/>
	<polygon id="XMLID_109_" class="st3" points="278.3,144.9 276.6,146.1 276,145.3 	"/>
	<polygon id="XMLID_108_" class="st3" points="274.3,144.9 276,146.1 276.6,145.3 	"/>
	<polygon id="XMLID_107_" class="st3" points="274.3,144.9 276.4,144.9 276.4,145.9 	"/>
	<polygon id="XMLID_106_" class="st3" points="277.6,147.3 276.9,145.2 275.9,145.6 	"/>
	<polygon id="XMLID_105_" class="st3" points="277.6,147.3 275.8,146 276.5,145.1 	"/>
	<polygon id="XMLID_104_" class="st3" points="275.1,147.3 276.8,146 276.2,145.1 	"/>
	<polygon id="XMLID_103_" class="st3" points="275.1,147.3 275.7,145.2 276.7,145.6 	"/>
	<polygon id="XMLID_102_" class="st3" points="256,179.6 255,182.7 256.5,183.2 	"/>
	<polygon id="XMLID_101_" class="st3" points="256,179.6 257,182.7 255.5,183.2 	"/>
	<polygon id="XMLID_100_" class="st3" points="259,181.8 255.8,181.8 255.8,183.4 	"/>
	<polygon id="XMLID_99_" class="st3" points="259,181.8 256.5,183.7 255.5,182.4 	"/>
	<polygon id="XMLID_98_" class="st3" points="253,181.8 255.5,183.7 256.5,182.4 	"/>
	<polygon id="XMLID_97_" class="st3" points="253,181.8 256.2,181.8 256.2,183.4 	"/>
	<polygon id="XMLID_96_" class="st3" points="257.9,185.4 256.9,182.4 255.4,182.9 	"/>
	<polygon id="XMLID_95_" class="st3" points="257.9,185.4 255.3,183.5 256.2,182.2 	"/>
	<polygon id="XMLID_94_" class="st3" points="254.1,185.4 256.7,183.5 255.8,182.2 	"/>
	<polygon id="XMLID_93_" class="st3" points="254.1,185.4 255.1,182.4 256.6,182.9 	"/>
	<polygon id="XMLID_92_" class="st3" points="264.6,165.3 263.8,167.8 265.1,168.3 	"/>
	<polygon id="XMLID_91_" class="st3" points="264.6,165.3 265.5,167.8 264.2,168.3 	"/>
	<polygon id="XMLID_90_" class="st3" points="267.2,167.2 264.5,167.2 264.5,168.5 	"/>
	<polygon id="XMLID_89_" class="st3" points="267.2,167.2 265,168.7 264.2,167.6 	"/>
	<polygon id="XMLID_88_" class="st3" points="262.1,167.2 264.3,168.7 265,167.6 	"/>
	<polygon id="XMLID_87_" class="st3" points="262.1,167.2 264.8,167.2 264.8,168.5 	"/>
	<polygon id="XMLID_86_" class="st3" points="266.2,170.1 265.4,167.6 264.1,168 	"/>
	<polygon id="XMLID_85_" class="st3" points="266.2,170.1 264,168.6 264.8,167.5 	"/>
	<polygon id="XMLID_84_" class="st3" points="263.1,170.1 265.2,168.6 264.4,167.5 	"/>
	<polygon id="XMLID_83_" class="st3" points="263.1,170.1 263.9,167.6 265.2,168 	"/>
	<polygon id="XMLID_82_" class="st3" points="256,158.6 255.2,161.2 256.4,161.6 	"/>
	<polygon id="XMLID_81_" class="st3" points="256,158.6 256.8,161.2 255.6,161.6 	"/>
	<polygon id="XMLID_80_" class="st3" points="258.5,160.5 255.9,160.5 255.9,161.8 	"/>
	<polygon id="XMLID_79_" class="st3" points="258.5,160.5 256.4,162 255.6,160.9 	"/>
	<polygon id="XMLID_78_" class="st3" points="253.5,160.5 255.6,162 256.4,160.9 	"/>
	<polygon id="XMLID_77_" class="st3" points="253.5,160.5 256.1,160.5 256.1,161.8 	"/>
	<polygon id="XMLID_76_" class="st3" points="257.6,163.4 256.7,160.9 255.5,161.3 	"/>
	<polygon id="XMLID_75_" class="st3" points="257.6,163.4 255.4,161.9 256.2,160.8 	"/>
	<polygon id="XMLID_74_" class="st3" points="254.4,163.4 256.6,161.9 255.8,160.8 	"/>
	<polygon id="XMLID_73_" class="st3" points="254.4,163.4 255.3,160.9 256.5,161.3 	"/>
	<polygon id="XMLID_72_" class="st3" points="248.5,165.9 247.8,167.9 248.8,168.2 	"/>
	<polygon id="XMLID_71_" class="st3" points="248.5,165.9 249.1,167.9 248.1,168.2 	"/>
	<polygon id="XMLID_70_" class="st3" points="250.5,167.3 248.4,167.3 248.4,168.4 	"/>
	<polygon id="XMLID_69_" class="st3" points="250.5,167.3 248.8,168.6 248.2,167.7 	"/>
	<polygon id="XMLID_68_" class="st3" points="246.5,167.3 248.2,168.6 248.8,167.7 	"/>
	<polygon id="XMLID_67_" class="st3" points="246.5,167.3 248.6,167.3 248.6,168.4 	"/>
	<polygon id="XMLID_66_" class="st3" points="249.7,169.7 249.1,167.7 248.1,168 	"/>
	<polygon id="XMLID_65_" class="st3" points="249.7,169.7 248,168.5 248.6,167.6 	"/>
	<polygon id="XMLID_64_" class="st3" points="247.2,169.7 249,168.5 248.3,167.6 	"/>
	<polygon id="XMLID_63_" class="st3" points="247.2,169.7 247.9,167.7 248.9,168 	"/>
	<polygon id="XMLID_62_" class="st3" points="252.2,171.6 251.8,173.1 252.5,173.3 	"/>
	<polygon id="XMLID_61_" class="st3" points="252.2,171.6 252.7,173.1 252,173.3 	"/>
	<polygon id="XMLID_60_" class="st3" points="253.7,172.7 252.2,172.7 252.2,173.5 	"/>
	<polygon id="XMLID_59_" class="st3" points="253.7,172.7 252.5,173.6 252,173 	"/>
	<polygon id="XMLID_58_" class="st3" points="250.8,172.7 252,173.6 252.5,173 	"/>
	<polygon id="XMLID_57_" class="st3" points="250.8,172.7 252.3,172.7 252.3,173.5 	"/>
	<polygon id="XMLID_56_" class="st3" points="253.1,174.4 252.7,172.9 251.9,173.2 	"/>
	<polygon id="XMLID_55_" class="st3" points="253.1,174.4 251.9,173.5 252.4,172.9 	"/>
	<polygon id="XMLID_54_" class="st3" points="251.3,174.4 252.6,173.5 252.1,172.9 	"/>
	<polygon id="XMLID_53_" class="st3" points="251.3,174.4 251.8,172.9 252.5,173.2 	"/>
	<polygon id="XMLID_52_" class="st3" points="278.4,196.9 277.5,199.5 278.8,199.9 	"/>
	<polygon id="XMLID_51_" class="st3" points="278.4,196.9 279.2,199.5 277.9,199.9 	"/>
	<polygon id="XMLID_50_" class="st3" points="280.9,198.7 278.2,198.7 278.2,200.1 	"/>
	<polygon id="XMLID_49_" class="st3" points="280.9,198.7 278.7,200.3 277.9,199.2 	"/>
	<polygon id="XMLID_48_" class="st3" points="275.8,198.7 278,200.3 278.8,199.2 	"/>
	<polygon id="XMLID_47_" class="st3" points="275.8,198.7 278.5,198.7 278.5,200.1 	"/>
	<polygon id="XMLID_46_" class="st3" points="279.9,201.7 279.1,199.2 277.8,199.6 	"/>
	<polygon id="XMLID_45_" class="st3" points="279.9,201.7 277.8,200.2 278.5,199.1 	"/>
	<polygon id="XMLID_44_" class="st3" points="276.8,201.7 278.9,200.2 278.2,199.1 	"/>
	<polygon id="XMLID_43_" class="st3" points="276.8,201.7 277.6,199.2 278.9,199.6 	"/>
	<polygon id="XMLID_42_" class="st3" points="284.7,190.8 284.1,192.9 285.1,193.2 	"/>
	<polygon id="XMLID_41_" class="st3" points="284.7,190.8 285.4,192.9 284.4,193.2 	"/>
	<polygon id="XMLID_40_" class="st3" points="286.8,192.3 284.6,192.3 284.6,193.4 	"/>
	<polygon id="XMLID_39_" class="st3" points="286.8,192.3 285.1,193.6 284.4,192.7 	"/>
	<polygon id="XMLID_38_" class="st3" points="282.7,192.3 284.4,193.6 285.1,192.7 	"/>
	<polygon id="XMLID_37_" class="st3" points="282.7,192.3 284.9,192.3 284.9,193.4 	"/>
	<polygon id="XMLID_36_" class="st3" points="286,194.7 285.3,192.7 284.3,193 	"/>
	<polygon id="XMLID_35_" class="st3" points="286,194.7 284.3,193.5 284.9,192.6 	"/>
	<polygon id="XMLID_34_" class="st3" points="283.5,194.7 285.2,193.5 284.6,192.6 	"/>
	<polygon id="XMLID_33_" class="st3" points="283.5,194.7 284.2,192.7 285.2,193 	"/>
	<polygon id="XMLID_32_" class="st3" points="272.5,189 271.8,191 272.8,191.4 	"/>
	<polygon id="XMLID_31_" class="st3" points="272.5,189 273.1,191 272.1,191.4 	"/>
	<polygon id="XMLID_30_" class="st3" points="274.5,190.5 272.4,190.5 272.4,191.6 	"/>
	<polygon id="XMLID_29_" class="st3" points="274.5,190.5 272.8,191.7 272.1,190.9 	"/>
	<polygon id="XMLID_28_" class="st3" points="270.4,190.5 272.2,191.7 272.8,190.9 	"/>
	<polygon id="XMLID_27_" class="st3" points="270.4,190.5 272.6,190.5 272.6,191.6 	"/>
	<polygon id="XMLID_26_" class="st3" points="273.7,192.9 273.1,190.8 272,191.2 	"/>
	<polygon id="XMLID_25_" class="st3" points="273.7,192.9 272,191.6 272.6,190.8 	"/>
	<polygon id="XMLID_24_" class="st3" points="271.2,192.9 272.9,191.6 272.3,190.8 	"/>
	<polygon id="XMLID_23_" class="st3" points="271.2,192.9 271.9,190.8 272.9,191.2 	"/>
	<polygon id="XMLID_22_" class="st3" points="226,185.7 225.1,188.7 226.6,189.3 	"/>
	<polygon id="XMLID_21_" class="st3" points="226,185.7 227,188.7 225.5,189.3 	"/>
	<polygon id="XMLID_20_" class="st3" points="229.1,187.9 225.9,187.9 225.9,189.5 	"/>
	<polygon id="XMLID_19_" class="st3" points="229.1,187.9 226.5,189.8 225.6,188.5 	"/>
	<polygon id="XMLID_18_" class="st3" points="223,187.9 225.6,189.8 226.5,188.5 	"/>
	<polygon id="XMLID_17_" class="st3" points="223,187.9 226.2,187.9 226.2,189.5 	"/>
	<polygon id="XMLID_16_" class="st3" points="227.9,191.5 226.9,188.5 225.4,189 	"/>
	<polygon id="XMLID_15_" class="st3" points="227.9,191.5 225.3,189.6 226.3,188.3 	"/>
	<polygon id="XMLID_14_" class="st3" points="224.1,191.5 226.7,189.6 225.8,188.3 	"/>
	<polygon id="XMLID_13_" class="st3" points="224.1,191.5 225.1,188.5 226.7,189 	"/>
	<polygon id="XMLID_12_" class="st3" points="256,206.6 255.7,207.7 256.2,207.8 	"/>
	<polygon id="XMLID_11_" class="st3" points="256,206.6 256.3,207.7 255.8,207.8 	"/>
	<polygon id="XMLID_10_" class="st3" points="257,207.4 255.9,207.4 255.9,207.9 	"/>
	<polygon id="XMLID_9_" class="st3" points="257,207.4 256.2,208 255.8,207.6 	"/>
	<polygon id="XMLID_8_" class="st3" points="255,207.4 255.9,208 256.2,207.6 	"/>
	<polygon id="XMLID_7_" class="st3" points="255,207.4 256.1,207.4 256.1,207.9 	"/>
	<polygon id="XMLID_6_" class="st3" points="256.6,208.6 256.3,207.6 255.8,207.7 	"/>
	<polygon id="XMLID_5_" class="st3" points="256.6,208.6 255.8,207.9 256.1,207.5 	"/>
	<polygon id="XMLID_4_" class="st3" points="255.4,208.6 256.2,207.9 255.9,207.5 	"/>
	<polygon id="XMLID_3_" class="st3" points="255.4,208.6 255.7,207.6 256.2,207.7 	"/>
</g>
</svg>
