<?xml version="1.0" encoding="utf-8"?>
<!-- Generator: Adobe Illustrator 21.1.0, SVG Export Plug-In . SVG Version: 6.00 Build 0)  -->
<svg version="1.1" id="Layer_1" xmlns="http://www.w3.org/2000/svg" xmlns:xlink="http://www.w3.org/1999/xlink" x="0px" y="0px"
	 viewBox="0 0 512 298.7" style="enable-background:new 0 0 512 298.7;" xml:space="preserve">
<style type="text/css">
	.st0{fill:#CB001C;}
	.st1{fill:#FFFFFF;}
	.st2{fill:#2A3560;}
</style>
<g>
	<rect y="275.7" class="st0" width="512" height="23"/>
	<rect y="252.7" class="st1" width="512" height="23"/>
	<rect y="229.7" class="st0" width="512" height="23"/>
	<rect y="206.7" class="st1" width="512" height="23"/>
	<rect y="183.8" class="st0" width="512" height="23"/>
	<rect y="160.8" class="st1" width="512" height="23"/>
	<rect y="137.8" class="st0" width="512" height="23"/>
	<rect y="114.8" class="st1" width="512" height="23"/>
	<rect y="91.9" class="st0" width="512" height="23"/>
	<rect y="68.9" class="st1" width="512" height="23"/>
	<rect y="45.9" class="st0" width="512" height="23"/>
	<rect y="22.9" class="st1" width="512" height="23"/>
	<rect class="st0" width="512" height="23"/>
	<rect class="st2" width="233.8" height="160.8"/>
	<polygon class="st1" points="21.1,17.7 23.1,23.8 29.4,23.8 24.3,27.5 26.2,33.6 21.1,29.8 15.9,33.6 17.9,27.5 12.7,23.8 
		19.1,23.8 	"/>
	<polygon class="st1" points="21.1,44.5 23.1,50.6 29.4,50.6 24.3,54.4 26.2,60.4 21.1,56.7 15.9,60.4 17.9,54.4 12.7,50.6 
		19.1,50.6 	"/>
	<polygon class="st1" points="21.1,71.4 23.1,77.5 29.4,77.5 24.3,81.2 26.2,87.3 21.1,83.5 15.9,87.3 17.9,81.2 12.7,77.5 
		19.1,77.5 	"/>
	<polygon class="st1" points="21.1,98.2 23.1,104.3 29.4,104.3 24.3,108.1 26.2,114.1 21.1,110.4 15.9,114.1 17.9,108.1 12.7,104.3 
		19.1,104.3 	"/>
	<polygon class="st1" points="21.1,125.1 23.1,131.1 29.4,131.1 24.3,134.9 26.2,141 21.1,137.2 15.9,141 17.9,134.9 12.7,131.1 
		19.1,131.1 	"/>
	<polygon class="st1" points="39.8,31.8 41.8,37.9 48.1,37.9 43,41.7 44.9,47.7 39.8,44 34.6,47.7 36.6,41.7 31.4,37.9 37.8,37.9 	
		"/>
	<polygon class="st1" points="39.8,58.7 41.8,64.7 48.1,64.7 43,68.5 44.9,74.6 39.8,70.8 34.6,74.6 36.6,68.5 31.4,64.7 37.8,64.7 
			"/>
	<polygon class="st1" points="39.8,85.5 41.8,91.6 48.1,91.6 43,95.4 44.9,101.4 39.8,97.7 34.6,101.4 36.6,95.4 31.4,91.6 
		37.8,91.6 	"/>
	<polygon class="st1" points="39.8,112.4 41.8,118.4 48.1,118.4 43,122.2 44.9,128.3 39.8,124.5 34.6,128.3 36.6,122.2 31.4,118.4 
		37.8,118.4 	"/>
	<polygon class="st1" points="58.7,17.7 60.7,23.8 67.1,23.8 61.9,27.5 63.9,33.6 58.7,29.8 53.5,33.6 55.5,27.5 50.3,23.8 
		56.7,23.8 	"/>
	<polygon class="st1" points="58.7,44.5 60.7,50.6 67.1,50.6 61.9,54.4 63.9,60.4 58.7,56.7 53.5,60.4 55.5,54.4 50.3,50.6 
		56.7,50.6 	"/>
	<polygon class="st1" points="58.7,71.4 60.7,77.5 67.1,77.5 61.9,81.2 63.9,87.3 58.7,83.5 53.5,87.3 55.5,81.2 50.3,77.5 
		56.7,77.5 	"/>
	<polygon class="st1" points="58.7,98.2 60.7,104.3 67.1,104.3 61.9,108.1 63.9,114.1 58.7,110.4 53.5,114.1 55.5,108.1 50.3,104.3 
		56.7,104.3 	"/>
	<polygon class="st1" points="58.7,125.1 60.7,131.1 67.1,131.1 61.9,134.9 63.9,141 58.7,137.2 53.5,141 55.5,134.9 50.3,131.1 
		56.7,131.1 	"/>
	<polygon class="st1" points="77.4,31.8 79.4,37.9 85.8,37.9 80.6,41.7 82.6,47.7 77.4,44 72.2,47.7 74.2,41.7 69,37.9 75.4,37.9 	
		"/>
	<polygon class="st1" points="77.4,58.7 79.4,64.7 85.8,64.7 80.6,68.5 82.6,74.6 77.4,70.8 72.2,74.6 74.2,68.5 69,64.7 75.4,64.7 
			"/>
	<polygon class="st1" points="77.4,85.5 79.4,91.6 85.8,91.6 80.6,95.4 82.6,101.4 77.4,97.7 72.2,101.4 74.2,95.4 69,91.6 
		75.4,91.6 	"/>
	<polygon class="st1" points="77.4,112.4 79.4,118.4 85.8,118.4 80.6,122.2 82.6,128.3 77.4,124.5 72.2,128.3 74.2,122.2 69,118.4 
		75.4,118.4 	"/>
	<polygon class="st1" points="96.3,17.7 98.3,23.8 104.7,23.8 99.5,27.5 101.5,33.6 96.3,29.8 91.2,33.6 93.2,27.5 88,23.8 
		94.4,23.8 	"/>
	<polygon class="st1" points="96.3,44.5 98.3,50.6 104.7,50.6 99.5,54.4 101.5,60.4 96.3,56.7 91.2,60.4 93.2,54.4 88,50.6 
		94.4,50.6 	"/>
	<polygon class="st1" points="96.3,71.4 98.3,77.5 104.7,77.5 99.5,81.2 101.5,87.3 96.3,83.5 91.2,87.3 93.2,81.2 88,77.5 
		94.4,77.5 	"/>
	<polygon class="st1" points="96.3,98.2 98.3,104.3 104.7,104.3 99.5,108.1 101.5,114.1 96.3,110.4 91.2,114.1 93.2,108.1 88,104.3 
		94.4,104.3 	"/>
	<polygon class="st1" points="96.3,125.1 98.3,131.1 104.7,131.1 99.5,134.9 101.5,141 96.3,137.2 91.2,141 93.2,134.9 88,131.1 
		94.4,131.1 	"/>
	<polygon class="st1" points="115,31.8 117,37.9 123.4,37.9 118.2,41.7 120.2,47.7 115,44 109.9,47.7 111.8,41.7 106.7,37.9 
		113.1,37.9 	"/>
	<polygon class="st1" points="115,58.7 117,64.7 123.4,64.7 118.2,68.5 120.2,74.6 115,70.8 109.9,74.6 111.8,68.5 106.7,64.7 
		113.1,64.7 	"/>
	<polygon class="st1" points="115,85.5 117,91.6 123.4,91.6 118.2,95.4 120.2,101.4 115,97.7 109.9,101.4 111.8,95.4 106.7,91.6 
		113.1,91.6 	"/>
	<polygon class="st1" points="115,112.4 117,118.4 123.4,118.4 118.2,122.2 120.2,128.3 115,124.5 109.9,128.3 111.8,122.2 
		106.7,118.4 113.1,118.4 	"/>
	<polygon class="st1" points="134,17.7 136,23.8 142.3,23.8 137.2,27.5 139.1,33.6 134,29.8 128.8,33.6 130.8,27.5 125.6,23.8 
		132,23.8 	"/>
	<polygon class="st1" points="134,44.5 136,50.6 142.3,50.6 137.2,54.4 139.1,60.4 134,56.7 128.8,60.4 130.8,54.4 125.6,50.6 
		132,50.6 	"/>
	<polygon class="st1" points="134,71.4 136,77.5 142.3,77.5 137.2,81.2 139.1,87.3 134,83.5 128.8,87.3 130.8,81.2 125.6,77.5 
		132,77.5 	"/>
	<polygon class="st1" points="134,98.2 136,104.3 142.3,104.3 137.2,108.1 139.1,114.1 134,110.4 128.8,114.1 130.8,108.1 
		125.6,104.3 132,104.3 	"/>
	<polygon class="st1" points="134,125.1 136,131.1 142.3,131.1 137.2,134.9 139.1,141 134,137.2 128.8,141 130.8,134.9 125.6,131.1 
		132,131.1 	"/>
	<polygon class="st1" points="152.7,31.8 154.6,37.9 161,37.9 155.9,41.7 157.8,47.7 152.7,44 147.5,47.7 149.5,41.7 144.3,37.9 
		150.7,37.9 	"/>
	<polygon class="st1" points="152.7,58.7 154.6,64.7 161,64.7 155.9,68.5 157.8,74.6 152.7,70.8 147.5,74.6 149.5,68.5 144.3,64.7 
		150.7,64.7 	"/>
	<polygon class="st1" points="152.7,85.5 154.6,91.6 161,91.6 155.9,95.4 157.8,101.4 152.7,97.7 147.5,101.4 149.5,95.4 
		144.3,91.6 150.7,91.6 	"/>
	<polygon class="st1" points="152.7,112.4 154.6,118.4 161,118.4 155.9,122.2 157.8,128.3 152.7,124.5 147.5,128.3 149.5,122.2 
		144.3,118.4 150.7,118.4 	"/>
	<polygon class="st1" points="171.6,17.7 173.6,23.8 180,23.8 174.8,27.5 176.8,33.6 171.6,29.8 166.4,33.6 168.4,27.5 163.2,23.8 
		169.6,23.8 	"/>
	<polygon class="st1" points="171.6,44.5 173.6,50.6 180,50.6 174.8,54.4 176.8,60.4 171.6,56.7 166.4,60.4 168.4,54.4 163.2,50.6 
		169.6,50.6 	"/>
	<polygon class="st1" points="171.6,71.4 173.6,77.5 180,77.5 174.8,81.2 176.8,87.3 171.6,83.5 166.4,87.3 168.4,81.2 163.2,77.5 
		169.6,77.5 	"/>
	<polygon class="st1" points="171.6,98.2 173.6,104.3 180,104.3 174.8,108.1 176.8,114.1 171.6,110.4 166.4,114.1 168.4,108.1 
		163.2,104.3 169.6,104.3 	"/>
	<polygon class="st1" points="171.6,125.1 173.6,131.1 180,131.1 174.8,134.9 176.8,141 171.6,137.2 166.4,141 168.4,134.9 
		163.2,131.1 169.6,131.1 	"/>
	<polygon class="st1" points="190.3,31.8 192.3,37.9 198.7,37.9 193.5,41.7 195.5,47.7 190.3,44 185.1,47.7 187.1,41.7 181.9,37.9 
		188.3,37.9 	"/>
	<polygon class="st1" points="190.3,58.7 192.3,64.7 198.7,64.7 193.5,68.5 195.5,74.6 190.3,70.8 185.1,74.6 187.1,68.5 
		181.9,64.7 188.3,64.7 	"/>
	<polygon class="st1" points="190.3,85.5 192.3,91.6 198.7,91.6 193.5,95.4 195.5,101.4 190.3,97.7 185.1,101.4 187.1,95.4 
		181.9,91.6 188.3,91.6 	"/>
	<polygon class="st1" points="190.3,112.4 192.3,118.4 198.7,118.4 193.5,122.2 195.5,128.3 190.3,124.5 185.1,128.3 187.1,122.2 
		181.9,118.4 188.3,118.4 	"/>
	<polygon class="st1" points="209.2,17.7 211.2,23.8 217.6,23.8 212.4,27.5 214.4,33.6 209.2,29.8 204.1,33.6 206,27.5 200.9,23.8 
		207.3,23.8 	"/>
	<polygon class="st1" points="209.2,44.5 211.2,50.6 217.6,50.6 212.4,54.4 214.4,60.4 209.2,56.7 204.1,60.4 206,54.4 200.9,50.6 
		207.3,50.6 	"/>
	<polygon class="st1" points="209.2,71.4 211.2,77.5 217.6,77.5 212.4,81.2 214.4,87.3 209.2,83.5 204.1,87.3 206,81.2 200.9,77.5 
		207.3,77.5 	"/>
	<polygon class="st1" points="209.2,98.2 211.2,104.3 217.6,104.3 212.4,108.1 214.4,114.1 209.2,110.4 204.1,114.1 206,108.1 
		200.9,104.3 207.3,104.3 	"/>
	<polygon class="st1" points="209.2,125.1 211.2,131.1 217.6,131.1 212.4,134.9 214.4,141 209.2,137.2 204.1,141 206,134.9 
		200.9,131.1 207.3,131.1 	"/>
</g>
</svg>
