<?xml version="1.0" encoding="utf-8"?>
<!-- Generator: Adobe Illustrator 21.1.0, SVG Export Plug-In . SVG Version: 6.00 Build 0)  -->
<svg version="1.1" id="Layer_1" xmlns="http://www.w3.org/2000/svg" xmlns:xlink="http://www.w3.org/1999/xlink" x="0px" y="0px"
	 viewBox="0 0 512 298.7" style="enable-background:new 0 0 512 298.7;" xml:space="preserve">
<style type="text/css">
	.st0{fill:#FFFFFF;}
	.st1{fill:#010101;}
	.st2{fill:#B51E3A;}
	.st3{fill:#273775;}
</style>
<g>
	<rect class="st0" width="512" height="298.7"/>
	
		<rect x="336.9" y="49.8" transform="matrix(0.8321 -0.5546 0.5546 0.8321 20.4901 201.5259)" class="st1" width="12.4" height="34.2"/>
	
		<rect x="359.4" y="83.4" transform="matrix(0.8321 -0.5547 0.5547 0.8321 5.655 219.6605)" class="st1" width="12.4" height="34.2"/>
	
		<rect x="363.7" y="36" transform="matrix(0.8321 -0.5546 0.5546 0.8321 21.4132 217.4596)" class="st1" width="12.4" height="74.7"/>
	
		<rect x="368" y="29.1" transform="matrix(0.8321 -0.5547 0.5547 0.8321 37.2255 215.3335)" class="st1" width="12.4" height="34.2"/>
	
		<rect x="390.4" y="62.7" transform="matrix(0.8321 -0.5547 0.5547 0.8321 22.3274 233.3936)" class="st1" width="12.4" height="34.2"/>
	
		<rect x="151.4" y="177.5" transform="matrix(0.8321 -0.5546 0.5546 0.8321 -92.7177 123.4687)" class="st1" width="12.4" height="74.7"/>
	
		<rect x="124.7" y="191.3" transform="matrix(0.8321 -0.5547 0.5547 0.8321 -93.6062 107.6069)" class="st1" width="12.4" height="34.2"/>
	
		<rect x="147.1" y="225" transform="matrix(0.8321 -0.5547 0.5547 0.8321 -108.5406 125.7099)" class="st1" width="12.4" height="34.2"/>
	
		<rect x="120.3" y="198.3" transform="matrix(0.8321 -0.5546 0.5546 0.8321 -109.467 109.7434)" class="st1" width="12.4" height="74.7"/>
	
		<rect x="120.3" y="77.5" transform="matrix(0.5546 -0.8321 0.8321 0.5546 0.5688 168.4339)" class="st1" width="74.7" height="12.4"/>
	
		<rect x="104.7" y="67.1" transform="matrix(0.5546 -0.8321 0.8321 0.5546 2.2996 150.8581)" class="st1" width="74.7" height="12.4"/>
	
		<rect x="89.2" y="56.8" transform="matrix(0.5546 -0.8321 0.8321 0.5546 3.9306 133.3679)" class="st1" width="74.7" height="12.4"/>
	
		<rect x="326" y="225.6" transform="matrix(0.5547 -0.8321 0.8321 0.5547 -40.0297 388.7138)" class="st1" width="34.2" height="12.4"/>
	
		<rect x="348.4" y="191.8" transform="matrix(0.5546 -0.8321 0.8321 0.5546 -1.9714 392.3702)" class="st1" width="34.2" height="12.4"/>
	
		<rect x="341.6" y="235.8" transform="matrix(0.5547 -0.8321 0.8321 0.5547 -41.6599 406.2042)" class="st1" width="34.2" height="12.4"/>
	
		<rect x="364" y="202.2" transform="matrix(0.5547 -0.8321 0.8321 0.5547 -3.7011 409.9304)" class="st1" width="34.2" height="12.4"/>
	
		<rect x="357.1" y="246.2" transform="matrix(0.5547 -0.8321 0.8321 0.5547 -43.3941 423.7787)" class="st1" width="34.2" height="12.4"/>
	
		<rect x="379.5" y="212.6" transform="matrix(0.5547 -0.8321 0.8321 0.5547 -5.4249 427.4118)" class="st1" width="34.2" height="12.4"/>
	<path class="st2" d="M193.9,107.9c-0.3,0.4-0.5,0.8-0.8,1.2C193.3,108.7,193.6,108.3,193.9,107.9"/>
	<path class="st2" d="M297.4,87.2c-34.3-22.9-80.7-13.6-103.5,20.7c-11.4,17.2-6.8,40.3,10.4,51.8c17.2,11.4,40.3,6.8,51.8-10.4
		c11.4-17.2,34.6-21.8,51.8-10.4c17.2,11.4,21.8,34.6,10.4,51.8C341,156.4,331.7,110,297.4,87.2"/>
	<path class="st3" d="M193.9,107.9c-11.4,17.2-6.8,40.3,10.4,51.8c17.2,11.4,40.3,6.8,51.8-10.4c11.4-17.2,34.6-21.8,51.8-10.4
		c17.2,11.4,21.8,34.6,10.4,51.8c-22.9,34.3-69.2,43.6-103.5,20.7S171,142.2,193.9,107.9"/>
</g>
</svg>
