<?xml version="1.0" encoding="utf-8"?>
<!-- Generator: Adobe Illustrator 21.1.0, SVG Export Plug-In . SVG Version: 6.00 Build 0)  -->
<svg version="1.1" id="Layer_1" xmlns="http://www.w3.org/2000/svg" xmlns:xlink="http://www.w3.org/1999/xlink" x="0px" y="0px"
	 viewBox="0 0 512 298.6" style="enable-background:new 0 0 512 298.6;" xml:space="preserve">
<style type="text/css">
	.st0{fill:#D91D42;}
	.st1{fill:#FFFFFF;}
</style>
<g>
	<rect class="st0" width="512" height="149.4"/>
	<rect y="149.3" class="st1" width="512" height="149.3"/>
	<path class="st1" d="M153.7,74.6c0,31-25.1,56.2-56.2,56.2c-31,0-56.2-25.2-56.2-56.2s25.1-56.2,56.2-56.2
		C128.5,18.5,153.7,43.6,153.7,74.6"/>
	<path class="st0" d="M171.3,74.6c0,29.3-23.8,53.1-53.1,53.1s-53.1-23.8-53.1-53.1s23.8-53.1,53.1-53.1S171.3,45.3,171.3,74.6"/>
	<polygon class="st1" points="104.4,76 96.8,70.1 89.2,76 92.1,66.5 84.5,60.7 93.9,60.8 96.8,51.3 99.7,60.8 109.2,60.7 
		101.5,66.5 	"/>
	<polygon class="st1" points="164.3,76 156.7,70.1 149,76 152,66.5 144.3,60.7 153.8,60.8 156.7,51.3 159.6,60.8 169,60.7 
		161.4,66.5 	"/>
	<polygon class="st1" points="134.4,53.8 126.8,47.9 119.1,53.8 122.1,44.3 114.4,38.5 123.9,38.5 126.8,29.1 129.7,38.5 
		139.1,38.5 131.5,44.3 	"/>
	<polygon class="st1" points="115.7,111.5 108,105.7 100.4,111.5 103.3,102.1 95.7,96.3 105.1,96.3 108,86.9 110.9,96.3 120.4,96.3 
		112.7,102.1 	"/>
	<polygon class="st1" points="153.1,111.5 145.5,105.7 137.9,111.5 140.8,102.1 133.1,96.3 142.6,96.3 145.5,86.9 148.4,96.3 
		157.8,96.3 150.2,102.1 	"/>
</g>
</svg>
