<?xml version="1.0" encoding="utf-8"?>
<!-- Generator: Adobe Illustrator 21.1.0, SVG Export Plug-In . SVG Version: 6.00 Build 0)  -->
<svg version="1.1" id="Layer_1" xmlns="http://www.w3.org/2000/svg" xmlns:xlink="http://www.w3.org/1999/xlink" x="0px" y="0px"
	 viewBox="0 0 512 298.7" style="enable-background:new 0 0 512 298.7;" xml:space="preserve">
<style type="text/css">
	.st0{fill:#D10E2F;}
	.st1{fill:#1C2666;}
	.st2{fill:#FFFFFF;}
</style>
<g>
	<rect class="st0" width="512" height="298.7"/>
	<rect class="st1" width="224" height="149.3"/>
	<path class="st2" d="M126.9,74.6l-14.9,56l-14.9-56l14.9-56 M112,89.6l56-14.9l-56-14.9L56,74.7"/>
	<path class="st2" d="M124.9,82.1l-40.9,41l15.1-56l40.9-41 M104.5,87.6l56,15.1l-41-40.9l-56-15.1"/>
	<path class="st2" d="M119.5,87.6l-56,15.1l41-40.9l56-15.1 M99.1,82.1l40.9,41l-15.1-56L84,26.1"/>
	<path class="st1" d="M112,42.9c17.5,0,31.7,14.2,31.7,31.7s-14.2,31.7-31.7,31.7S80.3,92.1,80.3,74.6S94.5,42.9,112,42.9"/>
	<path class="st2" d="M112,46.6c15.5,0,28,12.5,28,28s-12.5,28-28,28s-28-12.5-28-28C84,59.2,96.5,46.6,112,46.6"/>
</g>
</svg>
