<?xml version="1.0" encoding="utf-8"?>
<!-- Generator: Adobe Illustrator 21.1.0, SVG Export Plug-In . SVG Version: 6.00 Build 0)  -->
<svg version="1.1" id="Layer_1" xmlns="http://www.w3.org/2000/svg" xmlns:xlink="http://www.w3.org/1999/xlink" x="0px" y="0px"
	 viewBox="0 0 512 298.7" style="enable-background:new 0 0 512 298.7;" xml:space="preserve">
<style type="text/css">
	.st0{fill:#CC2027;}
	.st1{fill:#FFFFFF;}
</style>
<g>
	<rect class="st0" width="512" height="298.7"/>
	<path class="st1" d="M256,149.3c-23.2-9.4-34.4-35.8-25-59c7.5-18.5,26.1-29.9,45.9-28.2c-7.3,3.6-12.1,12.4-6.1,21.6
		c6.6,10,2.9,26.9-9.9,32.9C250.8,121.4,242.6,137.1,256,149.3"/>
	<polygon class="st0" points="251.9,102.1 257.6,89 245.4,96.3 259.5,97.6 248.8,88.2 	"/>
	<path class="st0" d="M256.2,148.6c-17-10.2-17.8-33.3-9.2-46.1l-1.1-0.7c-8.3,11.8-9.1,36.7,9.7,47.9L256.2,148.6z"/>
	<path class="st1" d="M256,149.3c1.7-25,23.4-43.8,48.3-42c19.9,1.4,36.5,15.6,41,35c-5.7-5.9-15.6-7.7-22.4,0.9
		c-7.5,9.4-24.7,11.1-34.4,0.7C281,135.7,263.5,132.8,256,149.3"/>
	<polygon class="st0" points="299.6,130.8 313.8,132.2 303.1,122.8 306.2,136.6 311.9,123.6 	"/>
	<path class="st0" d="M256.7,149.3c4.5-19.3,26.2-27.2,41-23l0.3-1.3c-13.8-4.2-37.7,2.7-42.6,24L256.7,149.3z"/>
	<path class="st1" d="M256,149.3c-16.1,19.2-44.6,21.7-63.8,5.6c-15.3-12.8-20.4-34.1-12.6-52.4c1.2,8.1,8.1,15.4,18.6,12.5
		c11.6-3.2,26.5,5.5,28.3,19.6C227.8,145.6,240.2,158.2,256,149.3"/>
	<polygon class="st0" points="209.8,138.6 199.2,129.2 202.3,143 207.9,130 195.7,137.2 	"/>
	<path class="st0" d="M255.4,148.9c-15,13-37.1,6.6-46.6-5.5l-1,0.8c8.7,11.5,32.1,20,48.6,5.6L255.4,148.9z"/>
	<path class="st1" d="M256,149.3c24.3-6.1,48.9,8.7,54.9,33c4.8,19.3-3.5,39.5-20.6,49.8c3.8-7.2,2.5-17.2-7.7-21
		c-11.2-4.2-18.2-20-11.3-32.5C276.6,168.8,274,151.3,256,149.3"/>
	<polygon class="st0" points="287.1,185.1 290.1,199 295.8,185.9 283.6,193.2 297.7,194.5 	"/>
	<path class="st0" d="M256.2,150c19.7-1.7,33.9,16.5,34.5,31.9l1.3-0.1c-0.2-14.4-14.2-35.1-36-33.1L256.2,150z"/>
	<path class="st1" d="M256,149.3c13.3,21.2,6.8,49.2-14.4,62.4c-16.9,10.6-38.7,8.9-53.7-4.2c8.1,1.4,17.1-2.9,17.6-13.9
		c0.5-12,13.4-23.5,27.4-20.8C243.8,174.9,259.6,167.1,256,149.3"/>
	<polygon class="st0" points="231.5,189.9 219.3,197.1 233.4,198.5 222.8,189.1 225.9,202.9 	"/>
	<path class="st0" d="M255.4,149.7c7.7,18.3-5.2,37.4-19.7,42.7l0.5,1.2c13.6-4.7,28.9-24.4,20.3-44.4L255.4,149.7z"/>
	<path class="st0" d="M256,147.3c1.1,0,2,0.9,2,2s-0.9,2-2,2s-2-0.9-2-2S254.9,147.3,256,147.3"/>
</g>
</svg>
