<?xml version="1.0" encoding="utf-8"?>
<!-- Generator: Adobe Illustrator 21.1.0, SVG Export Plug-In . SVG Version: 6.00 Build 0)  -->
<svg version="1.1" id="Layer_1" xmlns="http://www.w3.org/2000/svg" xmlns:xlink="http://www.w3.org/1999/xlink" x="0px" y="0px"
	 viewBox="0 0 512 298.6" style="enable-background:new 0 0 512 298.6;" xml:space="preserve">
<style type="text/css">
	.st0{fill:#D81E34;}
	.st1{fill:#FFFFFF;}
	.st2{fill:#31409A;}
	.st3{fill:#F5D02C;}
</style>
<g>
	<rect class="st0" width="512" height="21.3"/>
	<rect y="21.3" class="st1" width="512" height="21.3"/>
	<rect y="42.6" class="st0" width="512" height="21.3"/>
	<rect y="64" class="st1" width="512" height="21.3"/>
	<rect y="85.3" class="st0" width="512" height="21.3"/>
	<rect y="106.6" class="st1" width="512" height="21.3"/>
	<rect y="128" class="st0" width="512" height="21.3"/>
	<rect y="149.3" class="st1" width="512" height="21.3"/>
	<rect y="170.6" class="st0" width="512" height="21.3"/>
	<rect y="192" class="st1" width="512" height="21.3"/>
	<rect y="213.3" class="st0" width="512" height="21.3"/>
	<rect y="234.7" class="st1" width="512" height="21.3"/>
	<rect y="256" class="st0" width="512" height="21.3"/>
	<rect y="277.3" class="st1" width="512" height="21.3"/>
	<rect class="st2" width="298.7" height="170.7"/>
	<path class="st3" d="M80,85.3c0-30.9,25.1-56,56-56c10.7,0,20.7,3,29.3,8.3C154,27.4,139,21.3,122.7,21.3c-35.3,0-64,28.7-64,64
		s28.7,64,64,64c16.4,0,31.3-6.1,42.6-16.3c-8.5,5.2-18.5,8.3-29.3,8.3C105.1,141.3,80,116.2,80,85.3"/>
	<polygon class="st3" points="208,85.3 238.7,73.4 205.9,76 228.4,52 200,68.6 209.8,37.2 191.4,64.5 186.7,32 183.3,55.3 182.3,62 
		181.9,64.5 163.5,37.2 173.4,68.6 145,52 167.4,76 134.7,73.4 165.3,85.3 134.7,97.2 167.4,94.6 145,118.6 173.4,102 163.5,133.4 
		181.9,106.1 182.3,108.6 183.3,115.3 186.7,138.6 191.4,106.1 209.8,133.4 200,102 228.4,118.6 205.9,94.6 238.7,97.2 	"/>
</g>
</svg>
