<svg id="圖層_1" data-name="圖層 1" xmlns="http://www.w3.org/2000/svg" viewBox="0 0 512 299"><defs><style>.cls-1{fill:#285680;}.cls-2{fill:#24ae5f;}.cls-3{fill:#fac176;}.cls-4{fill:#88c057;}</style></defs><title>earth</title><circle class="cls-1" cx="256" cy="149.5" r="149"/><path class="cls-2" d="M256,.5a148.5,148.5,0,0,0-58.33,11.86c-.82,4.88-4.89,13.2-4.77,15.86.58.11,37.88-38,33.25-12.28-3,16.57-33.48,16.47-32.17,33.16,32,12.56,43.22-23.85,70.43-23.7,9.08.05,32.33-14.3,36.76-11.38,18,11.83-4.11,53.78-17.85,39.82-13.21-13.21-32.07,4.63-31.22,25.24,6.87.31,9.8-19.5,16-12.9,6.8,7.28,4.35,21.94-5.07,25.3S216.38,66.35,225.51,88c10,24-30.08,42.52,10.42,32.85,19.09-4.58,12.75,10,21.75,16.88,10.73,8.24,6-11.38,13.8-8.39,11.38,4.4-2,15.75,15.87,7.51,20.91-9.54,13.05,5.33,19.45,15.05,12,18.15,41.5,35.56,57,11.58,3.64-5.66,1.31-50.39,24.25-20.38,14.57,19.06,9.57-22.52,11.54-33.44A149,149,0,0,0,256,.5Z"/><path class="cls-3" d="M276.14,216.71l-27.48-20.59-18.42.72-19.11-6-15-10.31-33.93,7.84-14,6.77-15.57,21,5.51,24.58q2.36,3,4.88,6l28.81,13.45,19.45,2.63,11.57,23.75.35,2.39a149.48,149.48,0,0,0,89.86,5L297,270.49l17.77-14.42,7.38-23-37.11-.15Z"/><path class="cls-4" d="M108.93,173.38c.71-.06.8-.12.86-.18,6.66-6.66,12.21-7.77,17.77-17.77s-1.11-10,0-26.65-1.11-8.88,0-26.65c.4-6.39-.27-9.91-8-12.42a149,149,0,0,0-10.59,83.67Z"/><path class="cls-3" d="M261.14,272.81c-5.56-.43-26.12-6.85-30.83-15.41s-15-23.12-15.41-20.55c-.29,1.75-46.81-14.09-78.77-25.37l-3.44,4.63,5.51,24.58q2.36,3,4.88,6l28.81,13.45,19.45,2.63,11.57,23.75.35,2.39a149.48,149.48,0,0,0,89.86,5l3-17.7c-2.62-.82-5.63-1.9-9.25-3.32C272.7,267.25,266.7,273.24,261.14,272.81Z"/><path class="cls-4" d="M314.8,256.07l7.38-23-37.11-.15-8.95-16.17-27.48-20.59-18.42.72-19.11-6-15-10.31-33.93,7.84-14,6.77-12.13,16.34c32,11.28,78.48,27.12,78.77,25.38.43-2.57,10.7,12,15.41,20.55s25.26,15,30.83,15.41,11.56-5.56,25.69,0c3.62,1.43,6.64,2.51,9.25,3.32l.95-5.65Z"/><path class="cls-4" d="M312.13,11.56c-1,18.8-1.73,32.39-1.73,32.39L281.69,72.67s26.91,38.58,28.71,43.06,24.22,9.87,28.71,7.18,21.53-17,28.71-7.18c5,6.87,4.35,12.87,7.42,17.08,2.12,0,4.76,1.45,8.06,4.78,4.67,1.4,10,2.77,14.72,3.92,1.57-9.2.41-25.6,1.54-31.88A149.33,149.33,0,0,0,312.13,11.56Z"/><path class="cls-3" d="M329.63,20.05c-.94,17.75-1.7,31.82-1.7,31.82L307.38,72.43s19.27,27.62,20.55,30.83,17.34,7.06,20.55,5.14,15.41-12.2,20.55-5.14,1.93,12.84,10.28,15.41c7.05,2.17,16.79,4.33,19.65,4.94,0-5.71.06-11,.6-14A149.26,149.26,0,0,0,329.63,20.05Z"/></svg>