<?xml version="1.0" ?><svg id="Layer_1" style="enable-background:new 0 0 512 512;" version="1.1" viewBox="0 0 512 512" xml:space="preserve" xmlns="http://www.w3.org/2000/svg" xmlns:xlink="http://www.w3.org/1999/xlink"><style type="text/css">
	.st0{fill:#E91D26;}
	.st1{fill:#2E6934;}
	.st2{fill:#F4EB32;}
	.st3{fill:#010101;}
	.st4{fill:none;}
	.st5{fill:#FFFFFF;}
	.st6{fill:#2D2D86;}
</style><g><rect class="st0" height="298.7" width="332.9" x="179.1" y="106.7"/><rect class="st1" height="298.7" width="179.1" y="106.7"/><path class="st2" d="M237.4,302.3c-22.5-0.7-125.9-65.2-126.6-75.5l5.7-9.5c10.3,14.9,115.9,77.7,126.3,75.5L237.4,302.3   L237.4,302.3z"/><path class="st2" d="M115.3,216c-2,5.4,27,23.4,61.9,44.6c34.9,21.2,65,34.3,67.2,32.5c0.1-0.3,1.1-1.9,1-1.9   c-0.4,0.6-1.4,0.8-3,0.4c-9.4-2.7-34-14-64.4-32.5c-30.4-18.5-56.9-35.5-61-42.7c-0.3-0.5-0.5-1.4-0.5-2.1h-0.1l-0.9,1.5L115.3,216   L115.3,216z M238,302.6c-0.4,0.7-1.1,0.7-2.4,0.6c-8.4-0.9-34-13.4-64.3-31.5c-35.2-21.1-64.3-40.3-61.2-45.4l0.9-1.5l0.2,0   c-2.8,8.5,57.4,43,61,45.2c34.9,21.6,64.3,34.2,66.9,31L238,302.6L238,302.6z"/><g><path class="st3" d="M236.6,303.5c-0.3,0-0.7,0-1.1-0.1c-8.6-1-34.5-13.6-64.4-31.6c-40-24-60.1-38.4-61.4-44.1    c-0.1-0.6-0.1-1.2,0.2-1.6l0.8-1.5c0,0.1,0,0.3,0,0.5l-0.5,1.2c-0.2,0.3-0.3,0.8-0.1,1.3c1.3,5.6,21.4,19.9,61.2,43.8    c29.9,17.9,55.7,30.5,64.2,31.5c1.3,0.1,1.9,0.1,2.2-0.5l0.6-1c-0.3,0.1-0.7,0.2-1.1,0.2c-7.1,0-33.5-11.8-65.3-31.5    c-0.3-0.2-1.2-0.7-2.4-1.4c-38.9-23-58.7-37.5-58.8-43.3c0.8,3.8,9.9,14,59,42.9c1.2,0.7,2.1,1.2,2.4,1.4    c31.7,19.7,58,31.4,65,31.4c0.8,0,1.3-0.2,1.5-0.4l0,0.1c0,0.2,0,0.3-0.1,0.4l-0.4,1.4C237.8,303.4,237.2,303.5,236.6,303.5    L236.6,303.5z M243.6,293.5c-5.2,0-33.8-12.7-66.6-32.7c-37.5-22.9-64-39.5-61.9-44.9l1-1.8c0,0,0,0.1,0.1,0.1l-0.6,1.6    c-2.2,5.7,31.7,26.4,61.7,44.6c32.7,19.9,61.1,32.6,66.3,32.6c0.4,0,0.6-0.1,0.6-0.1c0.2-0.4,0.4-0.7,0.6-1.1    c-0.5,0.2-1.4,0.2-2.5-0.1c-10.3-3-35.8-15.1-64.5-32.5c-27.8-16.9-56.7-35.1-61.1-42.8c-0.3-0.5-0.5-1.5-0.5-2.2    c0.4,0.7,0.6,1.6,0.9,2c4.3,7.7,34.9,26.8,61,42.7c28.7,17.4,54.1,29.5,64.4,32.5c1.4,0.4,2.4,0.3,2.8-0.3    c0.5,0.2,0.5,0.2-0.4,1.7C244.3,293.4,244.1,293.5,243.6,293.5L243.6,293.5z"/></g><path class="st2" d="M179.2,233c22.6-0.2,50.4-3.1,66.4-9.5l-3.5-5.6c-9.5,5.2-37.5,8.7-63.2,9.2c-30.4-0.3-51.8-3.1-62.6-10.3   l-3.3,6C132.9,231.2,153.1,232.9,179.2,233L179.2,233z"/><path class="st2" d="M246.5,223.7c-0.6,0.9-11,4.5-26.4,7.1c-10.4,1.6-24.1,3-41,3c-16.1,0-29.3-1.1-39.3-2.5   c-16.2-2.5-24.5-6.1-27.6-7.3c0.3-0.6,0.5-1,0.8-1.5c8.9,3.5,17.3,5.7,27.1,7.2c9.9,1.3,23,2.5,39,2.5c16.9,0,30.4-1.5,40.7-3   c15.8-2.5,24.4-5.8,25.6-7.4L246.5,223.7L246.5,223.7z M243.5,218c-1.7,1.4-10.2,4.4-25.2,6.8c-10,1.4-22.7,2.7-39,2.7   c-15.4,0-28.1-1-37.7-2.4c-15.2-2-23.3-5.6-26.3-6.6c0.3-0.5,0.6-1,0.9-1.5c2.3,1.1,10.1,4.3,25.5,6.5c9.5,1.3,22.1,2.3,37.5,2.3   c16.2,0,28.8-1.3,38.7-2.8c15.1-2.1,23.2-5.9,24.4-6.9L243.5,218L243.5,218z"/><g><path class="st3" d="M178.6,234c-13.6,0-26.7-0.8-38.8-2.5c-15.7-2.5-24.2-5.9-27.3-7.2l-0.1-1l0.5-1c8.8,3.3,17.1,5.5,27.3,7.1    c12.2,1.7,25.2,2.5,38.7,2.5c14,0,27.4-1,41-3c15.6-2.5,24.3-5.8,25.5-7.3l1.5,2c-0.6,1.2-11.5,4.9-26.5,7.5    c-12.8,2-26.6,3-41.1,3H178.6L178.6,234z M112.9,222.7l-0.5,1.4c3.3,1.1,11.8,4.5,27.4,7c12.1,1.6,25.2,2.5,38.8,2.5v0.2l0.5-0.2    c14.4,0,28.2-1,41-3c15.8-2.7,25.8-6.3,26.2-7l-1.1-1.7c-0.8,1.5-8.8,4.8-25.4,7.5c-13.6,2-27,3-40.8,3c-13.8,0-26.8-0.8-39-2.5    C129.8,228.3,121.4,226,112.9,222.7L112.9,222.7z M179,227.7c-13.6,0-26.6-0.8-37.4-2.4c-13.5-1.8-21.3-4.7-25.1-6.2l-1.2-0.5    l0.5-1.4c0.1-0.1,0.4-0.5,0.5-0.5c1.3,0.7,8.8,4.1,25.5,6.5c7.5,1.1,20,2.3,37.2,2.3c13.7,0,26-0.9,39-2.8    c14.4-2,22.9-5.7,24.3-6.9l1.4,1.9c-1.7,1.6-10.1,4.7-25.4,7.1c-13,1.9-25.4,2.7-39,2.7C179.3,227.7,179,227.7,179,227.7    L179,227.7z M116.2,217.2l-0.6,1.4l1.1,0.2c3.7,1.4,11.5,4.4,25,6.1c10.8,1.6,23.7,2.4,37.4,2.4v0.2l0.3-0.2c13.6,0,26-0.9,39-2.7    c15.2-2.4,23.5-5.4,25.1-6.8l-1.1-1.6c-0.8,0.9-8.6,4.9-24.2,7c-13,1.9-25.3,2.7-38.7,2.8c-17.5,0-30-1.3-37.5-2.3    C125.1,221.3,117.5,217.8,116.2,217.2L116.2,217.2z"/></g><path class="st2" d="M105.1,260.2c13.9,7.5,44.7,11.2,73.9,11.5c26.6,0,61.2-4.1,74.1-11l-0.4-7.5c-4,6.3-41.1,12.4-74,12.2   c-32.9-0.2-63.5-5.3-73.6-11.9L105.1,260.2L105.1,260.2z"/><path class="st2" d="M253.8,259.2v1.8c-1.9,2.3-14.1,5.8-29.4,8.3c-11.6,1.8-26.8,3.1-45.7,3.1c-18,0-32.3-1.3-43.4-3   c-17.6-2.6-28.8-7-31-8.4v-2.1c6.8,4.5,25.1,7.8,31.3,8.8c11,1.7,25.3,3,43.1,3c18.8,0,33.9-1.3,45.5-3.1   C235.1,266,250.7,261.9,253.8,259.2L253.8,259.2z M253.8,252.8v1.8c-1.9,2.3-14.1,5.8-29.4,8.3c-11.6,1.8-26.8,3.1-45.7,3.1   c-18,0-32.3-1.3-43.4-3c-17.6-2.6-28.8-7-31-8.4l0-2.1c6.8,4.5,25.1,7.8,31.3,8.8c11,1.7,25.3,3,43.1,3c18.8,0,33.9-1.3,45.5-3.1   C235.1,259.7,250.7,255.6,253.8,252.8L253.8,252.8z"/><g><path class="st3" d="M178.6,272.6c-15.9,0-30.5-1-43.4-3c-16.8-2.4-28.4-6.8-31.1-8.4l-0.1-2.3c7.1,4.3,25.9,7.7,31.5,8.6    c12.8,2,27.3,3,43.1,3c16.7,0,32-1,45.4-3.1c10.9-1.6,26.5-5.7,29.6-8.4l0.4,2c-2.1,2.6-14.5,6.1-29.6,8.5    C210.8,271.5,195.4,272.6,178.6,272.6L178.6,272.6z M104.1,259.1l0.3,1.9c1.6,0.8,12.5,5.5,30.9,8.2c12.9,2,27.5,3,43.4,3    c16.8,0,32.1-1.1,45.7-3.1c14.8-2.4,27.4-5.9,29.3-8.2l-0.1-1.7c-2.7,2.9-18.5,7.1-29.4,8.7c-13.5,2.1-28.8,3.1-45.5,3.1    c-15.9,0-30.4-1-43.2-3C128.3,266.8,110.8,263.6,104.1,259.1L104.1,259.1z M178.6,266.3c-15.9,0-30.5-1-43.4-3    c-16.9-2.5-28.4-6.8-31.1-8.4l-0.1-2.3c7.1,4.3,25.9,7.7,31.5,8.6c12.8,2,27.3,3,43.1,3c16.7,0,32-1,45.4-3.1    c10.9-1.6,26.5-5.7,29.6-8.4l0.4,1.9c-2.1,2.6-14.5,6.1-29.6,8.5C210.8,265.2,195.5,266.3,178.6,266.3L178.6,266.3z M104.1,252.8    l0.3,1.9c1.6,0.8,12.4,5.5,30.9,8.2c12.9,2,27.5,3,43.4,3c16.8,0,32.2-1.1,45.7-3.1c14.8-2.4,27.4-5.9,29.3-8.2l-0.1-1.6    c-2.8,2.9-18.5,7.1-29.4,8.7c-13.4,2.1-28.7,3.1-45.5,3.1c-15.8,0-30.3-1-43.2-3C128.3,260.4,110.8,257.2,104.1,252.8L104.1,252.8    z"/></g><path class="st2" d="M178.9,301.1c-31.9-0.2-59.3-8.7-65-10.1l4.2,6.6c10.2,4.3,36.9,10.7,61.1,10c24.2-0.7,45.4-2.6,60.4-9.9   l4.3-6.8C233.7,295.6,199.1,301,178.9,301.1L178.9,301.1z"/><path class="st2" d="M241.2,296.1c-0.6,1-1.3,1.9-1.9,2.9c-7,2.5-18.2,5.1-22.8,5.9c-9.6,2-24.4,3.4-37.5,3.4   c-28.3-0.4-51.4-6-62.3-10.7l-0.9-1.5l0.1-0.2l1.5,0.6c19.4,6.9,41.1,9.7,61.7,10.2c13.1,0,26.2-1.5,36.8-3.4   c16.2-3.3,22.8-5.7,24.8-6.8L241.2,296.1L241.2,296.1z M245,289.9C245,290,245,290,245,289.9c-0.4,0.9-0.9,1.7-1.4,2.5   c-3.8,1.3-14,4.3-28.9,6.4c-9.8,1.3-15.9,2.6-35.4,3c-36.6-0.9-60.3-8.1-65.9-9.8l-0.8-1.6c21.2,5.5,42.8,9.4,66.7,9.8   c17.9-0.4,25.4-1.7,35.2-3c17.4-2.7,26.1-5.6,28.7-6.4c0,0-0.1-0.1-0.1-0.2L245,289.9L245,289.9z"/><g><path class="st3" d="M178.9,308.5C178.9,308.5,178.9,308.5,178.9,308.5c-28.8-0.4-51.6-6-62.4-10.7l-1-1.6c0-0.1,0.3-0.5,0.4-0.5    h0l1.5,0.6c17.3,6.2,38,9.6,61.6,10.2c0,0,0,0,0,0c14.8,0,28.1-1.8,36.7-3.4c18.1-3.6,23.5-6.1,24.8-6.8c0.1,0,0.2-0.1,0.4-0.1    c0,0,0-0.1,0.1-0.1l0.2,0.1l0,0c0.1,0,0.2,0,0.2,0.1c-0.6,1-1.3,1.9-1.9,2.9c-7.1,2.5-18.1,5.1-23,5.9    C206.4,307.1,191.7,308.5,178.9,308.5L178.9,308.5z M115.8,296l1,1.4c11.5,4.9,35.2,10.2,62.1,10.6c12.5,0,27.5-1.4,37.5-3.4    c4.9-0.8,15.9-3.4,22.8-5.8c0.4-0.7,0.9-1.4,1.4-2.1c-1.6,0.8-7.4,3.3-24.7,6.7c-8.7,1.6-22,3.4-36.2,3.4l0,0    c-24.3-0.6-45-4-62.4-10.2L115.8,296L115.8,296z M179.3,302.1L179.3,302.1c-32.5-0.8-55.3-6.5-65.9-9.9l-1-1.7    c24.5,6,45.7,9.1,66.9,9.5c15.8-0.3,23.7-1.4,32-2.6l3.2-0.4c16.6-2.6,25.5-5.4,28.4-6.3l2.1-1l-0.1,0.2l-1.7,0.9    c-3.1,1.2-12,4-28.7,6.5l-3.2,0.4c-8.3,1.2-16.1,2.2-32,2.6c-21.3-0.4-42.5-3.5-66.8-9.8l1.1,1.3c10.5,3.2,33.2,8.9,65.7,9.7    c16.6-0.3,23.4-1.3,31.2-2.4l4.2-0.6c13.2-1.9,23.8-4.6,28.8-6.4l1.3-2.3l-1.1,2.6c-5.1,1.9-15.7,4.7-29,6.5l-4.2,0.6    C202.7,300.8,195.9,301.7,179.3,302.1C179.3,302.1,179.3,302.1,179.3,302.1L179.3,302.1z"/></g><path class="st2" d="M178.9,189.6c36.6,0,66.2,29.8,66.2,66.5c0,36.7-29.6,66.3-66.2,66.3s-66.3-29.7-66.3-66.4   S142.3,189.6,178.9,189.6L178.9,189.6z M178.9,183c40.2,0,72.9,32.8,72.9,73s-32.7,73-72.9,73S106,296.2,106,256   S138.8,183,178.9,183L178.9,183z"/><path class="st2" d="M179,182.1c40.7,0,73.9,33.2,73.9,73.9c0,40.7-33.2,74-73.9,74c-40.7,0-73.9-33.2-73.9-74   C105.1,215.4,138.3,182.1,179,182.1L179,182.1z M179,183.8c39.6,0,72.3,32.5,72.3,72.3c0,39.8-32.6,72.3-72.3,72.3   c-39.6,0-72.3-32.5-72.3-72.3C106.7,216.3,139.4,183.8,179,183.8L179,183.8z"/><g><path class="st3" d="M179,330.2c-40.9,0-74.1-33.3-74.1-74.2c0-40.9,33.2-74.2,74.1-74.2c40.9,0,74.1,33.3,74.1,74.2    C253.1,297,219.8,330.2,179,330.2L179,330.2z M179,182.3c-40.6,0-73.7,33.1-73.7,73.7c0,40.7,33,73.7,73.7,73.7    c40.6,0,73.7-33.1,73.7-73.7C252.7,215.4,219.6,182.3,179,182.3L179,182.3z M179,328.6c-40,0-72.5-32.5-72.5-72.5    c0-40,32.5-72.5,72.5-72.5c40,0,72.5,32.5,72.5,72.5C251.5,296.1,218.9,328.6,179,328.6L179,328.6z M179,184    c-39.7,0-72,32.3-72,72.1c0,39.8,32.3,72.1,72,72.1c39.7,0,72-32.3,72-72.1C251,216.3,218.7,184,179,184L179,184z"/></g><path class="st2" d="M179.1,188.3c37.1,0,67.7,30.5,67.7,67.7s-30.6,67.7-67.7,67.7c-37.1,0-67.7-30.5-67.7-67.7   S142,188.3,179.1,188.3L179.1,188.3z M179.1,189.9c36.2,0,66,29.7,66,66.1c0,36.4-29.8,66.1-66,66.1c-36.2,0-66-29.7-66-66.1   C113,219.7,142.8,189.9,179.1,189.9L179.1,189.9z"/><g><path class="st3" d="M179.1,324c-37.4,0-67.9-30.5-67.9-68s30.5-68,67.9-68c37.4,0,67.9,30.5,67.9,68S216.5,324,179.1,324    L179.1,324z M179.1,188.5c-37.2,0-67.5,30.3-67.5,67.5c0,37.2,30.3,67.5,67.5,67.5c37.2,0,67.4-30.3,67.4-67.5    C246.5,218.8,216.3,188.5,179.1,188.5L179.1,188.5z M179.1,322.3c-36.5,0-66.3-29.7-66.3-66.3c0-36.6,29.7-66.3,66.3-66.3    c36.5,0,66.3,29.7,66.3,66.3C245.3,292.6,215.6,322.3,179.1,322.3L179.1,322.3z M179.1,190.1c-36.3,0-65.8,29.6-65.8,65.9    c0,36.3,29.5,65.9,65.8,65.9c36.3,0,65.8-29.6,65.8-65.9C244.9,219.7,215.4,190.1,179.1,190.1L179.1,190.1z"/></g><rect class="st2" height="148.8" width="6.4" x="176" y="181.8"/><g><path class="st4" d="M176.8,181.8h4.5H176.8z"/></g><g><path class="st4" d="M176.9,330.4h4.5H176.9z"/></g><path class="st2" d="M181.4,181h1.6l0,150.3h-1.6L181.4,181L181.4,181z M175.1,181h1.6l0,150.3h-1.6V181L175.1,181z"/><g><path class="st3" d="M183,331.5h-1.6L181.2,181l1.8-0.2l0.2,150.5c0,0.1,0,0.1-0.1,0.2C183.1,331.5,183.1,331.5,183,331.5    L183,331.5z M182.8,181l-1.4,0.2l0.2,150.1l1.2-0.2L182.8,181L182.8,181z M176.7,331.5h-1.6L174.9,181l1.8-0.2l0.2,150.5    c0,0.1,0,0.1-0.1,0.2C176.9,331.5,176.8,331.5,176.7,331.5L176.7,331.5z M176.5,181l-1.4,0.2l0.2,150.1l1.2-0.2L176.5,181    L176.5,181z"/></g><path class="st2" d="M104.9,252.9c9.3-8.5,43.4-14.1,73.8-13.9c30.3,0.1,66.2,6.4,74,13.8l0.1,6.4c-6.5-6.2-34.4-13.5-74.1-13.6   c-39.6-0.1-68.4,7.5-73.8,13.8V252.9L104.9,252.9z"/><g><path class="st3" d="M105.1,258.7l-0.4-5.5c0-0.2,0.4-0.2,0.4,0V258.7L105.1,258.7z"/></g><g><path class="st3" d="M253.1,258.9l-0.4-5.5c0-0.2,0.4-0.2,0.4,0V258.9L253.1,258.9z"/></g><path class="st2" d="M179,244.6c17.4,0,34.4,1.7,47.8,4.3c13.9,2.8,23.6,6.2,26.9,10.1v1.9c-4-4.8-17.1-8.4-27.3-10.4   c-13.3-2.6-30.1-4.3-47.5-4.2c-18.3,0-35.4,1.8-48.5,4.3c-10.5,2.1-24.6,6.3-26.3,10.4v-2c1-2.8,11.4-7.1,26.1-10   C143.5,246.4,160.6,244.7,179,244.6L179,244.6z M179,238.3c17.4,0,34.4,1.6,47.8,4.3c13.8,2.8,23.6,6.2,26.9,10.1l0,1.9   c-4-4.8-17.1-8.4-27.2-10.4c-13.3-2.6-30.1-4.3-47.5-4.2c-18.3,0-35.3,1.8-48.4,4.3c-10.2,1.9-24.8,6.3-26.4,10.3v-2   c1-2.8,11.6-7.2,26.1-10C143.5,240,160.6,238.3,179,238.3L179,238.3z"/><g><path class="st3" d="M104.2,261.2C104.2,261.2,104.2,261.2,104.2,261.2c-0.1,0-0.2-0.1-0.2-0.2v-2c1-3.1,12.1-7.4,26.3-10.2    c14.1-2.8,31.4-4.3,48.8-4.3c16.8,0,33.7,1.5,47.8,4.3c14.5,2.9,23.8,6.4,27.1,10.2l0.1,2.1c-4.6-5-19.2-8.6-27.5-10.2    c-14-2.7-30.6-4.2-46.9-4.2c-17.7,0-34.9,1.6-49,4.3c-11.5,2.3-24.6,6.5-26.2,10.2C104.4,261.1,104.3,261.2,104.2,261.2    L104.2,261.2z M179,246.1c16.8,0,33.5,1.5,47.5,4.2c8.4,1.7,23,5.3,27.4,10.5l-0.4-1.8c-3.1-3.6-12.4-7-26.8-9.9    c-14.2-2.8-31-4.3-47.4-4.3c-17.7,0-34.9,1.6-49,4.3c-15.7,3.1-25.1,7.4-25.9,9.9l0,1.2c3.1-4.2,17.6-8.1,26.1-9.8    C144.7,247.7,161.9,246.1,179,246.1L179,246.1z M104.2,254.9C104.2,254.9,104.2,254.9,104.2,254.9c-0.1,0-0.2-0.1-0.2-0.2v-2    c1.1-3.1,12.4-7.5,26.3-10.2c14.1-2.8,31.4-4.3,48.8-4.3c16.9,0,33.7,1.5,47.8,4.3c14.5,2.9,23.8,6.4,27.1,10.2l0,2.1    c-4.6-5-19.2-8.5-27.5-10.2c-14-2.7-30.7-4.2-47.1-4.2c-17.4,0-34.6,1.6-48.7,4.3c-11.6,2.2-24.8,6.5-26.3,10.2    C104.4,254.8,104.3,254.9,104.2,254.9L104.2,254.9z M179,239.7c16.7,0,33.5,1.5,47.5,4.2c8.4,1.7,23,5.3,27.4,10.5l-0.4-1.8    c-3.1-3.6-12.4-7-26.8-9.9c-14.1-2.8-30.9-4.3-47.2-4.3c-17.9,0-35.2,1.6-49.2,4.3c-15.1,3-25.1,7.3-25.9,9.9l0,1.2    c3-4.1,17-8,26.2-9.8C144.8,241.3,162,239.8,179,239.7L179,239.7z"/></g><path class="st2" d="M178.7,205.9c27.5-0.1,51.5,3.8,62.4,9.5l4,6.9c-9.5-5.1-35.4-10.5-66.4-9.7c-25.3,0.2-52.2,2.8-65.8,10l4.8-8   C128.8,208.9,155,206,178.7,205.9L178.7,205.9z"/><g><path class="st4" d="M241.8,216.5l2.7,4.4L241.8,216.5z"/></g><path class="st2" d="M179,211.7c15.7,0,30.8,0.8,42.9,3c11.2,2.1,21.9,5.2,23.5,6.9l1.2,2.1c-3.7-2.4-13-5.1-24.9-7.4   c-11.9-2.2-27.1-3-42.7-2.9c-17.7-0.1-31.4,0.9-43.2,2.9c-12.5,2.3-21.1,5.7-23.3,7.3l1.2-2.2c4.1-2.1,10.7-4.7,21.8-6.7   C147.7,212.4,161.6,211.8,179,211.7L179,211.7z M179,205.3c15,0,29.8,0.8,41.4,2.9c9.1,1.8,18.1,4.5,21.4,7l1.7,2.8   c-3-3.3-14.1-6.4-23.9-8.1c-11.5-2-25.7-2.8-40.7-2.9c-15.7,0-30.3,1-41.6,3.1c-10.8,2.1-17.7,4.5-20.7,6.4l1.5-2.3   c4.1-2.1,10.6-4.1,18.9-5.7C148.5,206.3,163.2,205.4,179,205.3L179,205.3z"/><g><path class="st3" d="M246.6,223.9c0,0-0.1,0-0.1,0c-3.6-2.4-12.7-5.1-24.8-7.4c-10.4-2-24.3-2.9-41.2-2.9l-1.4,0l-1.6,0    c-17,0-30.2,0.9-41.6,2.9c-12.4,2.3-21,5.6-23.2,7.2l0.8-2.5c5.7-2.9,12.9-5.1,22-6.8c11.1-2,23.7-2.9,43.6-3l0.9,0    c16.5,0,31,1.1,42,3c11.4,2.1,22,5.3,23.6,7l1.2,2.1c0,0.1,0,0.2,0,0.3C246.7,223.9,246.6,223.9,246.6,223.9L246.6,223.9z     M180,211.9H179c-19.9,0.1-32.5,1-43.6,3c-9.1,1.6-16.2,3.8-21.7,6.6l-1.1,2.1c1.9-1.9,10.5-5.2,23-7.6c11.4-2,24.7-2.9,41.7-2.9    l1.6,0l1.4,0c17,0,30.9,1,41.3,3c11.4,2.2,20.2,4.7,24.2,7l-0.8-1.4c-1.4-1.6-12.1-4.7-23.3-6.8    C210.9,212.9,196.4,211.9,180,211.9L180,211.9z M243.6,218.2c-0.1,0-0.1,0-0.2-0.1c-3-3.4-14.7-6.5-23.7-8.1    c-10.4-1.8-23.7-2.7-40.6-2.9c-16.4,0-30.8,1.1-41.6,3.1c-9.6,1.8-17.3,4.2-20.6,6.4l1.2-2.6c4.1-2.2,10.7-4.2,19-5.8    c10.7-2,25.2-3,41.9-3.1l1.2,0c15.8,0,29.7,1,40.2,2.9c9.8,1.9,18.4,4.7,21.5,7l1.8,2.8c0.1,0.1,0,0.2,0,0.3    C243.7,218.2,243.6,218.2,243.6,218.2L243.6,218.2z M179,206.7c17,0.1,30.3,1.1,40.7,2.9c8.2,1.5,18.6,4.2,22.9,7.2l-1-1.5    c-3-2.2-11.6-5-21.3-6.9c-10.4-1.9-24.3-2.9-40.1-2.9H179c-16.7,0-31.1,1.1-41.8,3.1c-8.3,1.6-14.8,3.6-18.8,5.7l-1.4,2.2    c3.1-2.5,10.8-4.9,20.4-6.7C148.2,207.8,162.6,206.8,179,206.7L179,206.7z"/></g><path class="st2" d="M215.7,286.8c-13.6-2.5-27.2-2.9-36.7-2.8c-45.8,0.5-60.6,9.4-62.4,12.1l-3.4-5.6   c11.7-8.5,36.6-13.2,66.1-12.7c15.3,0.3,28.5,1.3,39.6,3.4L215.7,286.8L215.7,286.8z"/><g><path class="st4" d="M113.9,291.3l2.2,3.9L113.9,291.3z"/></g><path class="st2" d="M178.8,283.2c12.7,0.2,25.3,0.7,37.3,3l-0.9,1.6c-11.2-2.1-23.2-2.9-36.4-2.8c-16.9-0.1-34,1.4-48.9,5.7   c-4.7,1.3-12.5,4.3-13.3,6.8l-0.9-1.4c0.3-1.5,5-4.5,13.7-7C146.5,284.2,162.5,283.3,178.8,283.2L178.8,283.2z M179.3,276.8   c13.2,0.3,26.8,0.9,40.1,3.5l-0.9,1.6c-12-2.4-23.4-3.2-39.1-3.4c-17,0-35,1.2-51.3,6c-5.3,1.5-14.4,4.9-14.7,7.5l-0.9-1.5   c0.2-2.4,8.1-5.5,15.2-7.6C144.2,278.1,162.2,276.8,179.3,276.8L179.3,276.8z"/><g><path class="st3" d="M116.6,297.7c-0.1,0-0.1,0-0.2-0.1l-0.9-1.4c0.3-1.8,5.2-4.9,13.9-7.3c16.3-4.7,31.5-5.7,49.3-5.8    c12.1,0.2,25,0.7,37.4,3l-0.7,1.9c-10.4-1.8-21.7-2.7-35-2.7l-1.6,0l-1.9,0c-17.9,0-33.7,1.9-46.9,5.7c-5,1.4-12.4,4.4-13.1,6.7    C116.8,297.6,116.7,297.7,116.6,297.7C116.6,297.7,116.6,297.7,116.6,297.7L116.6,297.7z M178.7,283.4    c-17.8,0.1-32.9,1.2-49.2,5.8c-8.9,2.5-13.4,5.6-13.6,6.8l0.6,1c1.5-2.8,10-5.7,13.3-6.6c13.2-3.8,29.1-5.7,47-5.7l1.9,0l1.6,0    c13.2,0,24.6,0.9,34.8,2.8l0.7-1.5C203.7,284.1,190.8,283.6,178.7,283.4L178.7,283.4z M113.4,292.2c-0.1,0-0.1,0-0.2-0.1l-0.9-1.5    c0.2-3.3,11.8-6.9,15.3-7.9c14.1-4.1,30.5-6,51.7-6.1c13,0.2,26.8,0.8,40.1,3.5l-0.8,1.9c-12.9-2.4-25-3.1-39.3-3.3    c-21,0-37.3,1.9-51.3,6c-6.8,2-14.3,5.1-14.6,7.3C113.6,292.1,113.5,292.2,113.4,292.2C113.4,292.2,113.4,292.2,113.4,292.2    L113.4,292.2z M179.3,277c-21.1,0-37.5,2-51.6,6.1c-9,2.6-14.9,5.5-15,7.4l0.6,1c1.5-3.2,13.3-6.8,14.7-7.2c14-4.1,30.3-6,51.4-6    c14.3,0.2,26.4,0.9,39.1,3.4l0.7-1.5C206.1,277.9,192.3,277.3,179.3,277L179.3,277z"/></g><path class="st3" d="M165.6,281.3c0-0.2,0.1-0.4,0.2-0.6c0.1-0.1,0.3-0.2,0.5-0.2c0.1,0,0.2,0,0.3,0.1c0.1,0.1,0.2,0.1,0.2,0.2   c0,0.1,0.1,0.2,0,0.4c0,0.1,0,0.3-0.1,0.4c-0.1,0.1-0.2,0.2-0.3,0.3c-0.1,0.1-0.2,0.1-0.3,0.1c-0.1,0-0.2,0-0.3-0.1   c-0.1-0.1-0.2-0.1-0.2-0.2C165.6,281.5,165.6,281.4,165.6,281.3L165.6,281.3z M165.8,281.3c0,0.2,0,0.3,0.1,0.4   c0.1,0.1,0.2,0.1,0.3,0.1c0.1,0,0.3-0.1,0.3-0.2c0.1-0.1,0.2-0.2,0.2-0.4c0-0.1,0-0.2,0-0.3c0-0.1-0.1-0.1-0.1-0.2   c-0.1,0-0.1,0-0.2,0c-0.1,0-0.2,0.1-0.3,0.2C165.9,280.9,165.9,281.1,165.8,281.3L165.8,281.3z M167.6,281.5l0.2,0   c0,0.1,0,0.1,0.1,0.2c0,0,0.1,0,0.2,0c0.1,0,0.1,0,0.2-0.1c0,0,0.1-0.1,0.1-0.1c0,0,0-0.1,0-0.1c0,0-0.1,0-0.2,0   c-0.1,0-0.2,0-0.3-0.1c0,0-0.1-0.1-0.1-0.1c0,0,0-0.1,0-0.1c0,0,0-0.1,0-0.1c0,0,0-0.1,0.1-0.1c0,0,0.1,0,0.1,0c0,0,0.1,0,0.1,0   c0.1,0,0.1,0,0.2,0c0,0,0.1,0,0.1,0.1c0,0,0,0.1,0,0.1l-0.2,0c0,0,0-0.1,0-0.1c0,0-0.1,0-0.1,0c-0.1,0-0.1,0-0.2,0   c0,0,0,0.1-0.1,0.1c0,0,0,0,0,0.1c0,0,0,0,0.1,0s0.1,0,0.1,0c0.1,0,0.2,0,0.2,0.1c0,0,0.1,0,0.1,0.1c0,0,0,0.1,0,0.1   c0,0.1,0,0.1-0.1,0.2c0,0-0.1,0.1-0.2,0.1c-0.1,0-0.1,0-0.2,0c-0.1,0-0.2,0-0.3-0.1C167.6,281.7,167.6,281.6,167.6,281.5   L167.6,281.5z M169.3,281.4l0.2,0c0,0.1-0.1,0.2-0.2,0.2c-0.1,0.1-0.2,0.1-0.3,0.1c-0.1,0-0.3,0-0.3-0.1c-0.1-0.1-0.1-0.2-0.1-0.4   c0-0.2,0.1-0.3,0.2-0.4c0.1-0.1,0.2-0.1,0.3-0.2c0.1,0,0.2,0,0.3,0.1c0.1,0.1,0.1,0.2,0.1,0.4c0,0,0,0,0,0l-0.7,0   c0,0.1,0,0.2,0.1,0.2c0,0.1,0.1,0.1,0.2,0.1c0.1,0,0.1,0,0.2,0C169.2,281.5,169.2,281.4,169.3,281.4L169.3,281.4z M168.8,281.1   l0.5,0c0-0.1,0-0.1,0-0.2c0-0.1-0.1-0.1-0.2-0.1c-0.1,0-0.1,0-0.2,0.1C168.8,281,168.8,281,168.8,281.1L168.8,281.1z M169.6,281.7   l0.2,0c0,0,0,0.1,0,0.1c0,0,0.1,0,0.2,0c0.1,0,0.1,0,0.2,0c0,0,0.1-0.1,0.1-0.1c0,0,0-0.1,0-0.2c-0.1,0.1-0.2,0.1-0.3,0.1   c-0.1,0-0.2,0-0.3-0.1c-0.1-0.1-0.1-0.2-0.1-0.3c0-0.1,0-0.2,0.1-0.3c0-0.1,0.1-0.1,0.2-0.2c0.1,0,0.1-0.1,0.2-0.1   c0.1,0,0.2,0,0.3,0.1l0-0.1h0.1l-0.1,0.9c0,0.2,0,0.3-0.1,0.3c0,0.1-0.1,0.1-0.2,0.2c-0.1,0-0.2,0.1-0.3,0.1c-0.1,0-0.2,0-0.3-0.1   C169.6,281.9,169.5,281.8,169.6,281.7L169.6,281.7z M169.8,281.1c0,0.1,0,0.2,0,0.3c0,0.1,0.1,0.1,0.2,0.1c0.1,0,0.1,0,0.2-0.1   c0.1-0.1,0.1-0.2,0.1-0.3c0-0.1,0-0.2,0-0.3c0-0.1-0.1-0.1-0.2-0.1s-0.1,0-0.2,0.1C169.8,280.9,169.8,281,169.8,281.1L169.8,281.1z    M170.6,281.6l0.1-1h0.2l0,0.1c0-0.1,0.1-0.1,0.1-0.1c0.1,0,0.1-0.1,0.2-0.1c0.1,0,0.1,0,0.2,0c0,0,0.1,0.1,0.1,0.1   c0.1-0.1,0.2-0.2,0.3-0.2c0.1,0,0.2,0,0.2,0.1c0,0,0,0.1,0,0.3l-0.1,0.7h-0.2l0.1-0.6c0-0.1,0-0.1,0-0.1c0,0,0-0.1,0-0.1   c0,0-0.1,0-0.1,0c-0.1,0-0.2,0-0.2,0.1c0,0-0.1,0.1-0.1,0.2l-0.1,0.6l-0.2,0l0.1-0.6c0-0.1,0-0.1,0-0.2c0,0-0.1-0.1-0.1,0   c0,0-0.1,0-0.1,0c0,0-0.1,0.1-0.1,0.1c0,0,0,0.1,0,0.2l-0.1,0.5H170.6L170.6,281.6z M172.9,281.2l0.2,0c0,0.1-0.1,0.2-0.2,0.2   c-0.1,0.1-0.2,0.1-0.3,0.1c-0.1,0-0.3,0-0.3-0.1c-0.1-0.1-0.1-0.2-0.1-0.4c0-0.2,0.1-0.3,0.2-0.4c0.1-0.1,0.2-0.1,0.3-0.2   c0.1,0,0.2,0,0.3,0.1c0.1,0.1,0.1,0.2,0.1,0.4c0,0,0,0,0,0l-0.7,0c0,0.1,0,0.2,0.1,0.3c0,0.1,0.1,0.1,0.2,0.1c0.1,0,0.1,0,0.2,0   C172.8,281.3,172.9,281.3,172.9,281.2L172.9,281.2z M172.4,280.9l0.5,0c0-0.1,0-0.1,0-0.2c0-0.1-0.1-0.1-0.2-0.1   c-0.1,0-0.1,0-0.2,0.1C172.5,280.8,172.4,280.8,172.4,280.9L172.4,280.9z M173.2,281.5l0.1-1h0.2l0,0.1c0.1-0.1,0.2-0.2,0.3-0.2   c0.1,0,0.1,0,0.2,0c0,0,0.1,0,0.1,0.1c0,0,0,0.1,0,0.1c0,0,0,0.1,0,0.2l-0.1,0.6l-0.2,0l0.1-0.6c0-0.1,0-0.1,0-0.2c0,0,0,0-0.1-0.1   c0,0-0.1,0-0.1,0c-0.1,0-0.1,0-0.2,0.1s-0.1,0.1-0.1,0.3l-0.1,0.5L173.2,281.5z M174.7,281.3v0.1c0,0-0.1,0-0.1,0   c-0.1,0-0.1,0-0.1,0c0,0,0,0-0.1-0.1c0,0,0-0.1,0-0.2l0.1-0.6h-0.1l0-0.1h0.1l0-0.3l0.2-0.1l0,0.3l0.2,0l0,0.1l-0.2,0l-0.1,0.6   c0,0,0,0.1,0,0.1c0,0,0,0,0,0c0,0,0,0,0,0C174.6,281.3,174.6,281.3,174.7,281.3L174.7,281.3z M174.8,280.9c0-0.2,0.1-0.3,0.2-0.4   c0.1-0.1,0.2-0.1,0.3-0.1c0.1,0,0.2,0,0.3,0.1c0.1,0.1,0.1,0.2,0.1,0.4c0,0.1,0,0.2-0.1,0.3c0,0.1-0.1,0.1-0.2,0.2   c-0.1,0-0.2,0.1-0.2,0.1c-0.1,0-0.2,0-0.3-0.1C174.8,281.2,174.8,281.1,174.8,280.9L174.8,280.9z M175,280.9c0,0.1,0,0.2,0,0.3   c0,0.1,0.1,0.1,0.2,0.1c0.1,0,0.2,0,0.2-0.1c0.1-0.1,0.1-0.2,0.1-0.3c0-0.1,0-0.2,0-0.3c0-0.1-0.1-0.1-0.2-0.1   c-0.1,0-0.2,0-0.2,0.1C175.1,280.7,175,280.8,175,280.9L175,280.9z M177.1,281.1l0.2,0c0,0.1-0.1,0.2-0.2,0.2   c-0.1,0.1-0.2,0.1-0.3,0.1c-0.1,0-0.2,0-0.3-0.1c-0.1-0.1-0.1-0.2-0.1-0.4c0-0.2,0.1-0.3,0.2-0.4c0.1-0.1,0.2-0.1,0.3-0.1   c0.1,0,0.2,0,0.3,0.1c0.1,0.1,0.1,0.2,0.1,0.4c0,0,0,0,0,0l-0.7,0c0,0.1,0,0.2,0,0.3c0,0.1,0.1,0.1,0.2,0.1c0.1,0,0.1,0,0.2,0   C177,281.2,177,281.2,177.1,281.1L177.1,281.1z M176.6,280.8h0.5c0-0.1,0-0.1,0-0.2c0-0.1-0.1-0.1-0.2-0.1c-0.1,0-0.1,0-0.2,0.1   C176.6,280.7,176.6,280.7,176.6,280.8L176.6,280.8z M177.4,281.4l0.2-1.4h0.2l-0.2,1.4H177.4L177.4,281.4z M178,280.2l0-0.2h0.2   l0,0.2H178L178,280.2z M177.8,281.4l0.2-1h0.2l-0.2,1H177.8L177.8,281.4z M178.2,281.4l0.2-1h0.1l0,0.1c0,0,0.1-0.1,0.1-0.1   c0,0,0.1,0,0.2,0c0.1,0,0.1,0,0.2,0c0,0,0.1,0.1,0.1,0.1c0.1-0.1,0.2-0.2,0.3-0.2c0.1,0,0.2,0,0.2,0.1c0,0.1,0.1,0.1,0,0.3   l-0.1,0.7h-0.2l0.1-0.6c0-0.1,0-0.1,0-0.1c0,0,0-0.1,0-0.1c0,0-0.1,0-0.1,0c-0.1,0-0.1,0-0.2,0.1c-0.1,0-0.1,0.1-0.1,0.2l-0.1,0.6   h-0.2l0.1-0.6c0-0.1,0-0.1,0-0.2c0,0-0.1-0.1-0.1-0.1c0,0-0.1,0-0.1,0c0,0-0.1,0.1-0.1,0.1c0,0,0,0.1-0.1,0.2l-0.1,0.5H178.2   L178.2,281.4z M180,280.2l0-0.2h0.2l0,0.2H180L180,280.2z M179.8,281.4l0.2-1h0.2l-0.2,1H179.8L179.8,281.4z M180.2,281.4l0.2-1   h0.1l0,0.1c0.1-0.1,0.2-0.2,0.3-0.2c0.1,0,0.1,0,0.2,0c0,0,0.1,0,0.1,0.1c0,0,0,0.1,0,0.1c0,0,0,0.1,0,0.2l-0.1,0.6h-0.2l0.1-0.6   c0-0.1,0-0.1,0-0.2c0,0,0-0.1,0-0.1c0,0-0.1,0-0.1,0c-0.1,0-0.2,0-0.2,0.1c-0.1,0-0.1,0.1-0.1,0.3l-0.1,0.5H180.2L180.2,281.4z    M181.9,281.3c-0.1,0.1-0.1,0.1-0.2,0.1c-0.1,0-0.1,0-0.2,0c-0.1,0-0.2,0-0.2-0.1c0-0.1-0.1-0.1,0-0.2c0-0.1,0-0.1,0-0.1   c0,0,0.1-0.1,0.1-0.1c0,0,0.1,0,0.1,0c0,0,0.1,0,0.1,0c0.1,0,0.2,0,0.3,0c0,0,0,0,0,0c0-0.1,0-0.1,0-0.1c0,0-0.1-0.1-0.2-0.1   c-0.1,0-0.1,0-0.2,0c0,0-0.1,0.1-0.1,0.1l-0.2,0c0-0.1,0.1-0.1,0.1-0.2c0,0,0.1-0.1,0.2-0.1c0.1,0,0.1,0,0.2,0c0.1,0,0.1,0,0.2,0   c0,0,0.1,0,0.1,0.1c0,0,0,0.1,0,0.1c0,0,0,0.1,0,0.2l0,0.2c0,0.2,0,0.3,0,0.3c0,0,0,0.1,0,0.1h-0.2   C181.9,281.4,181.9,281.3,181.9,281.3L181.9,281.3z M181.9,280.9c-0.1,0-0.2,0-0.3,0.1c-0.1,0-0.1,0-0.1,0c0,0-0.1,0-0.1,0.1   c0,0,0,0,0,0.1c0,0,0,0.1,0,0.1c0,0,0.1,0,0.1,0c0.1,0,0.1,0,0.2,0c0,0,0.1-0.1,0.1-0.1C181.9,281.1,181.9,281,181.9,280.9   L181.9,280.9L181.9,280.9z M182.9,281.4l0-0.1c-0.1,0.1-0.2,0.2-0.3,0.1c-0.1,0-0.1,0-0.2-0.1c-0.1,0-0.1-0.1-0.1-0.2   c0-0.1,0-0.2,0-0.3c0-0.1,0.1-0.2,0.1-0.3c0-0.1,0.1-0.1,0.2-0.2c0.1,0,0.1-0.1,0.2-0.1c0.1,0,0.1,0,0.1,0c0,0,0.1,0.1,0.1,0.1   l0.1-0.5l0.2,0l-0.3,1.4H182.9L182.9,281.4z M182.4,280.9c0,0.1,0,0.2,0,0.3c0,0.1,0.1,0.1,0.2,0.1c0.1,0,0.1,0,0.2-0.1   c0.1-0.1,0.1-0.2,0.1-0.3c0-0.1,0-0.2,0-0.3c0-0.1-0.1-0.1-0.2-0.1c-0.1,0-0.1,0-0.2,0.1C182.5,280.7,182.5,280.8,182.4,280.9   L182.4,280.9z M183.3,280.9c0-0.2,0.1-0.3,0.2-0.4c0.1-0.1,0.2-0.1,0.3-0.1c0.1,0,0.2,0,0.3,0.1c0.1,0.1,0.1,0.2,0.1,0.4   c0,0.1-0.1,0.2-0.1,0.3c0,0.1-0.1,0.1-0.2,0.2c-0.1,0-0.2,0.1-0.2,0.1c-0.1,0-0.2-0.1-0.3-0.1C183.3,281.2,183.3,281.1,183.3,280.9   L183.3,280.9z M183.5,280.9c0,0.1,0,0.2,0,0.3c0,0.1,0.1,0.1,0.2,0.1c0.1,0,0.2,0,0.2-0.1c0.1-0.1,0.1-0.2,0.1-0.3   c0-0.1,0-0.2,0-0.3c0-0.1-0.1-0.1-0.2-0.1c-0.1,0-0.2,0-0.2,0.1C183.5,280.7,183.5,280.8,183.5,280.9L183.5,280.9z M184.8,281.5   l0.2-1h0.1l0,0.2c0-0.1,0.1-0.1,0.1-0.1c0,0,0.1,0,0.1,0c0.1,0,0.1,0,0.2,0.1l-0.1,0.2c0,0-0.1,0-0.1,0c-0.1,0-0.1,0-0.1,0   c0,0-0.1,0-0.1,0.1c0,0.1,0,0.1-0.1,0.2l-0.1,0.5H184.8L184.8,281.5z M186.2,281.2l0.2,0c0,0.1-0.1,0.2-0.2,0.2   c-0.1,0.1-0.2,0.1-0.3,0.1c-0.1,0-0.3-0.1-0.3-0.2c-0.1-0.1-0.1-0.2,0-0.4c0-0.2,0.1-0.3,0.2-0.4c0.1-0.1,0.2-0.1,0.3-0.1   c0.1,0,0.2,0,0.3,0.1c0.1,0.1,0.1,0.2,0,0.4c0,0,0,0,0,0l-0.7,0c0,0.1,0,0.2,0,0.3c0,0.1,0.1,0.1,0.2,0.1c0.1,0,0.1,0,0.2,0   C186.1,281.3,186.1,281.2,186.2,281.2L186.2,281.2z M185.7,280.9l0.5,0c0-0.1,0-0.1,0-0.2c0-0.1-0.1-0.1-0.2-0.1   c-0.1,0-0.1,0-0.2,0.1C185.8,280.7,185.7,280.8,185.7,280.9L185.7,280.9z M186.5,281.2l0.2,0c0,0.1,0,0.1,0,0.2c0,0,0.1,0,0.2,0.1   c0.1,0,0.1,0,0.2,0c0,0,0.1-0.1,0.1-0.1c0,0,0-0.1,0-0.1c0,0-0.1,0-0.2-0.1c-0.1,0-0.2-0.1-0.2-0.1c0,0-0.1-0.1-0.1-0.1   c0,0,0-0.1,0-0.1c0,0,0-0.1,0.1-0.1c0,0,0.1-0.1,0.1-0.1c0,0,0.1,0,0.1,0c0,0,0.1,0,0.1,0c0.1,0,0.1,0,0.2,0c0.1,0,0.1,0.1,0.1,0.1   c0,0,0,0.1,0,0.2l-0.2,0c0-0.1,0-0.1,0-0.1c0,0-0.1,0-0.1,0c-0.1,0-0.1,0-0.2,0c0,0-0.1,0-0.1,0.1c0,0,0,0,0,0.1c0,0,0,0,0.1,0   c0,0,0.1,0,0.1,0c0.1,0,0.2,0.1,0.2,0.1c0,0,0.1,0.1,0.1,0.1c0,0,0,0.1,0,0.1c0,0.1,0,0.1-0.1,0.2c0,0-0.1,0.1-0.2,0.1   c-0.1,0-0.1,0-0.2,0c-0.1,0-0.2,0-0.3-0.1C186.5,281.4,186.5,281.3,186.5,281.2L186.5,281.2z M187.3,281.9l0.3-1.4l0.1,0l0,0.1   c0,0,0.1-0.1,0.1-0.1c0,0,0.1,0,0.2,0c0.1,0,0.1,0,0.2,0.1c0,0,0.1,0.1,0.1,0.2c0,0.1,0,0.2,0,0.3c0,0.1-0.1,0.2-0.1,0.3   c0,0.1-0.1,0.1-0.2,0.2c-0.1,0-0.2,0.1-0.2,0.1c0,0-0.1,0-0.1,0c0,0-0.1-0.1-0.1-0.1l-0.1,0.5H187.3L187.3,281.9z M187.6,281   c0,0.1,0,0.2,0,0.3c0,0.1,0.1,0.1,0.2,0.1c0.1,0,0.1,0,0.2-0.1c0.1-0.1,0.1-0.2,0.1-0.3c0-0.1,0-0.2,0-0.3c0-0.1-0.1-0.1-0.2-0.1   c-0.1,0-0.1,0-0.2,0.1C187.7,280.8,187.7,280.9,187.6,281L187.6,281z M189.2,281.3l0.2,0c0,0.1-0.1,0.2-0.2,0.2   c-0.1,0-0.2,0.1-0.3,0.1c-0.1,0-0.3-0.1-0.3-0.1c-0.1-0.1-0.1-0.2,0-0.4c0-0.2,0.1-0.3,0.2-0.4c0.1-0.1,0.2-0.1,0.3-0.1   c0.1,0,0.2,0.1,0.3,0.2c0.1,0.1,0.1,0.2,0,0.4c0,0,0,0,0,0l-0.7,0c0,0.1,0,0.2,0,0.3c0,0.1,0.1,0.1,0.2,0.1c0.1,0,0.1,0,0.2,0   C189.1,281.4,189.1,281.3,189.2,281.3L189.2,281.3z M188.7,281l0.5,0c0-0.1,0-0.2,0-0.2c0-0.1-0.1-0.1-0.2-0.1   c-0.1,0-0.1,0-0.2,0.1C188.7,280.8,188.7,280.9,188.7,281L188.7,281z M189.7,280.4l0-0.2h0.2l0,0.2H189.7L189.7,280.4z    M189.5,281.6l0.2-1l0.2,0l-0.2,1L189.5,281.6z M190.2,281.5v0.2c0,0-0.1,0-0.1,0c-0.1,0-0.1,0-0.2,0c0,0,0,0,0-0.1   c0,0,0-0.1,0-0.2l0.1-0.6l-0.1,0l0-0.1l0.1,0l0-0.3l0.2-0.1l-0.1,0.3l0.2,0l0,0.1l-0.2,0l-0.1,0.6c0,0,0,0.1,0,0.1c0,0,0,0,0,0   C190.1,281.5,190.2,281.5,190.2,281.5C190.2,281.5,190.2,281.5,190.2,281.5L190.2,281.5z M191,281.5c-0.1,0-0.1,0.1-0.2,0.1   c-0.1,0-0.1,0-0.2,0c-0.1,0-0.2,0-0.2-0.1c0-0.1-0.1-0.1,0-0.2c0,0,0-0.1,0.1-0.1c0,0,0.1-0.1,0.1-0.1c0,0,0.1,0,0.1-0.1   c0,0,0.1,0,0.1,0c0.1,0,0.2,0,0.3,0c0,0,0,0,0,0c0-0.1,0-0.1,0-0.1c0,0-0.1-0.1-0.2-0.1c-0.1,0-0.1,0-0.2,0c0,0-0.1,0.1-0.1,0.1   l-0.2,0c0-0.1,0.1-0.1,0.1-0.2c0,0,0.1-0.1,0.2-0.1c0.1,0,0.1,0,0.2,0c0.1,0,0.2,0,0.2,0c0,0,0.1,0,0.1,0.1c0,0,0,0.1,0,0.1   c0,0,0,0.1,0,0.2l0,0.2c0,0.2,0,0.3,0,0.3c0,0,0,0.1,0,0.1H191C191,281.6,191,281.6,191,281.5L191,281.5z M191.1,281.2   c-0.1,0-0.2,0-0.3,0c-0.1,0-0.1,0-0.1,0c0,0-0.1,0-0.1,0c0,0,0,0,0,0.1c0,0,0,0.1,0,0.1c0,0,0.1,0,0.1,0c0.1,0,0.1,0,0.2,0   c0.1,0,0.1-0.1,0.1-0.1C191,281.4,191,281.3,191.1,281.2L191.1,281.2L191.1,281.2z M191.9,281.2c0-0.2,0.1-0.3,0.2-0.4   c0.1-0.1,0.2-0.1,0.3-0.1c0.1,0,0.2,0,0.3,0.1c0.1,0.1,0.1,0.2,0,0.4c0,0.1-0.1,0.2-0.1,0.3c0,0.1-0.1,0.1-0.2,0.2   c-0.1,0-0.2,0-0.2,0c-0.1,0-0.2,0-0.3-0.1C191.9,281.5,191.9,281.4,191.9,281.2L191.9,281.2z M192.1,281.2c0,0.1,0,0.2,0,0.3   c0,0.1,0.1,0.1,0.2,0.1c0.1,0,0.2,0,0.2-0.1c0.1-0.1,0.1-0.2,0.1-0.3c0-0.1,0-0.2,0-0.3c0-0.1-0.1-0.1-0.2-0.1   c-0.1,0-0.2,0-0.2,0.1C192.2,281,192.1,281.1,192.1,281.2L192.1,281.2z M193.3,282.2l0.3-1.4h0.1l0,0.1c0,0,0.1-0.1,0.1-0.1   c0.1,0,0.1,0,0.2,0c0.1,0,0.2,0,0.2,0.1c0,0,0.1,0.1,0.1,0.2c0,0.1,0,0.2,0,0.3c0,0.1-0.1,0.2-0.1,0.3c0,0.1-0.1,0.1-0.2,0.2   c-0.1,0-0.1,0.1-0.2,0c0,0-0.1,0-0.1,0c0,0-0.1-0.1-0.1-0.1l-0.1,0.5L193.3,282.2z M193.7,281.3c0,0.1,0,0.2,0,0.3   c0,0.1,0.1,0.1,0.2,0.1c0.1,0,0.1,0,0.2-0.1c0.1-0.1,0.1-0.2,0.1-0.3c0-0.1,0-0.2,0-0.3c0-0.1-0.1-0.1-0.2-0.1   c-0.1,0-0.1,0-0.2,0.1C193.8,281.1,193.7,281.2,193.7,281.3L193.7,281.3z M194.5,281.8l0.2-1h0.1l0,0.2c0-0.1,0.1-0.1,0.1-0.1   c0,0,0.1,0,0.1,0c0.1,0,0.1,0,0.2,0.1l-0.1,0.2c0,0-0.1,0-0.1,0c-0.1,0-0.1,0-0.1,0c0,0-0.1,0.1-0.1,0.1c0,0.1,0,0.1-0.1,0.2   l-0.1,0.5H194.5L194.5,281.8z M195.1,281.4c0-0.2,0.1-0.3,0.2-0.4c0.1-0.1,0.2-0.1,0.3-0.1c0.1,0,0.2,0,0.3,0.1   c0.1,0.1,0.1,0.2,0,0.4c0,0.1-0.1,0.2-0.1,0.3c0,0.1-0.1,0.1-0.2,0.2c-0.1,0-0.2,0-0.3,0c-0.1,0-0.2-0.1-0.3-0.2   C195.1,281.7,195.1,281.6,195.1,281.4L195.1,281.4z M195.3,281.4c0,0.1,0,0.2,0,0.3c0,0.1,0.1,0.1,0.2,0.1c0.1,0,0.2,0,0.2-0.1   c0.1-0.1,0.1-0.1,0.1-0.3c0-0.1,0-0.2,0-0.3c0-0.1-0.1-0.1-0.2-0.1c-0.1,0-0.2,0-0.2,0.1C195.4,281.2,195.3,281.3,195.3,281.4   L195.3,281.4z M196.3,280.8l0-0.2h0.2l0,0.2L196.3,280.8L196.3,280.8z M195.8,282.3l0.1-0.1c0,0,0,0,0,0c0,0,0.1,0,0.1,0   c0,0,0-0.1,0.1-0.2l0.2-1l0.2,0l-0.2,1c0,0.1-0.1,0.2-0.1,0.3c0,0.1-0.1,0.1-0.2,0.1C195.9,282.4,195.8,282.4,195.8,282.3   L195.8,282.3z M197.2,281.7l0.2,0c0,0.1-0.1,0.2-0.2,0.2c-0.1,0.1-0.2,0.1-0.3,0.1c-0.1,0-0.2-0.1-0.3-0.2c-0.1-0.1-0.1-0.2,0-0.4   c0-0.2,0.1-0.3,0.2-0.4c0.1-0.1,0.2-0.1,0.4-0.1c0.1,0,0.2,0,0.3,0.1c0.1,0.1,0.1,0.2,0,0.4c0,0,0,0,0,0l-0.7,0c0,0.1,0,0.2,0,0.3   c0,0.1,0.1,0.1,0.2,0.1c0.1,0,0.1,0,0.2,0C197.1,281.8,197.2,281.8,197.2,281.7L197.2,281.7z M196.8,281.4l0.5,0c0-0.1,0-0.1,0-0.2   c0-0.1-0.1-0.1-0.2-0.1c-0.1,0-0.1,0-0.2,0.1S196.8,281.3,196.8,281.4L196.8,281.4z"/><path class="st3" d="M198.2,281.7l0.2,0c0,0.1-0.1,0.2-0.2,0.3c-0.1,0.1-0.2,0.1-0.3,0.1c-0.1,0-0.2-0.1-0.3-0.2   c-0.1-0.1-0.1-0.2,0-0.4c0-0.1,0.1-0.2,0.1-0.3c0-0.1,0.1-0.1,0.2-0.2c0.1,0,0.2,0,0.2,0c0.1,0,0.2,0,0.2,0.1   c0,0.1,0.1,0.1,0.1,0.2l-0.2,0c0-0.1,0-0.1,0-0.2c0,0-0.1-0.1-0.1-0.1c-0.1,0-0.2,0-0.2,0.1c-0.1,0.1-0.1,0.2-0.1,0.3   c0,0.1,0,0.2,0,0.3c0,0.1,0.1,0.1,0.2,0.1c0.1,0,0.1,0,0.2,0C198.1,281.9,198.2,281.8,198.2,281.7L198.2,281.7z M198.8,282l0,0.2   c0,0-0.1,0-0.1,0c-0.1,0-0.1,0-0.2,0c0,0,0,0-0.1-0.1c0,0,0-0.1,0-0.2l0.1-0.6l-0.1,0l0-0.1l0.1,0l0-0.3l0.2-0.1l-0.1,0.3l0.2,0   l0,0.1l-0.2,0l-0.1,0.6c0,0,0,0.1,0,0.1c0,0,0,0,0,0C198.7,282,198.7,282,198.8,282C198.7,282,198.8,282,198.8,282L198.8,282z    M199,281.7c0-0.2,0.1-0.3,0.2-0.4c0.1-0.1,0.2-0.1,0.3-0.1c0.1,0,0.2,0.1,0.3,0.2c0.1,0.1,0.1,0.2,0,0.4c0,0.1-0.1,0.2-0.1,0.3   c-0.1,0.1-0.1,0.1-0.2,0.2c-0.1,0-0.2,0.1-0.2,0c-0.1,0-0.2-0.1-0.3-0.2C199,282,199,281.8,199,281.7L199,281.7z M199.2,281.7   c0,0.1,0,0.2,0,0.3c0,0.1,0.1,0.1,0.2,0.1c0.1,0,0.2,0,0.2-0.1c0.1-0.1,0.1-0.2,0.1-0.3c0-0.1,0-0.2,0-0.3c0-0.1-0.1-0.1-0.2-0.1   c-0.1,0-0.2,0-0.2,0.1C199.2,281.5,199.2,281.6,199.2,281.7L199.2,281.7z M201.1,282.4l0-0.1c-0.1,0.1-0.2,0.1-0.3,0.1   c-0.1,0-0.1,0-0.2-0.1c-0.1,0-0.1-0.1-0.1-0.2c0-0.1,0-0.2,0-0.3c0-0.1,0.1-0.2,0.1-0.3c0-0.1,0.1-0.1,0.2-0.2c0.1,0,0.2,0,0.2,0   c0.1,0,0.1,0,0.1,0c0,0,0.1,0.1,0.1,0.1l0.1-0.5l0.2,0l-0.3,1.4L201.1,282.4L201.1,282.4z M200.7,281.8c0,0.1,0,0.2,0,0.3   c0,0.1,0.1,0.1,0.2,0.1c0.1,0,0.1,0,0.2-0.1c0.1-0.1,0.1-0.1,0.1-0.3c0-0.1,0-0.2,0-0.3c0-0.1-0.1-0.1-0.2-0.1   c-0.1,0-0.1,0-0.2,0.1C200.8,281.6,200.7,281.7,200.7,281.8L200.7,281.8z M202.2,282.2l0.2,0c-0.1,0.1-0.1,0.2-0.2,0.2   c-0.1,0-0.2,0.1-0.3,0c-0.1,0-0.2-0.1-0.3-0.2c-0.1-0.1-0.1-0.2,0-0.4c0-0.2,0.1-0.3,0.2-0.4c0.1-0.1,0.2-0.1,0.3-0.1   c0.1,0,0.2,0.1,0.3,0.2c0.1,0.1,0.1,0.2,0,0.4c0,0,0,0,0,0l-0.7-0.1c0,0.1,0,0.2,0,0.3c0,0.1,0.1,0.1,0.2,0.1c0.1,0,0.1,0,0.2,0   C202.1,282.3,202.2,282.2,202.2,282.2L202.2,282.2z M201.8,281.8l0.5,0c0-0.1,0-0.1,0-0.2c0-0.1-0.1-0.1-0.2-0.1   c-0.1,0-0.1,0-0.2,0.1C201.8,281.7,201.8,281.7,201.8,281.8L201.8,281.8z M204.1,282.2l0.2,0.1c-0.1,0.1-0.2,0.3-0.3,0.3   c-0.1,0.1-0.2,0.1-0.4,0.1c-0.1,0-0.2,0-0.3-0.1c-0.1-0.1-0.1-0.2-0.1-0.3c0-0.1,0-0.3,0-0.4c0-0.1,0.1-0.3,0.2-0.4   c0.1-0.1,0.2-0.2,0.3-0.2c0.1,0,0.2-0.1,0.3-0.1c0.1,0,0.2,0.1,0.3,0.1c0.1,0.1,0.1,0.2,0.1,0.3l-0.2,0c0-0.1,0-0.2-0.1-0.2   c0-0.1-0.1-0.1-0.2-0.1c-0.1,0-0.2,0-0.3,0c-0.1,0-0.1,0.1-0.2,0.2c0,0.1-0.1,0.2-0.1,0.3c0,0.1,0,0.2,0,0.3c0,0.1,0,0.2,0.1,0.2   c0.1,0,0.1,0.1,0.2,0.1c0.1,0,0.2,0,0.3-0.1C204,282.4,204,282.3,204.1,282.2L204.1,282.2z M204.4,282.2c0-0.2,0.1-0.3,0.3-0.4   c0.1-0.1,0.2-0.1,0.3-0.1c0.1,0,0.2,0.1,0.3,0.2s0.1,0.2,0,0.4c0,0.1-0.1,0.2-0.1,0.3c0,0.1-0.1,0.1-0.2,0.1c-0.1,0-0.2,0-0.2,0   c-0.1,0-0.2-0.1-0.3-0.2C204.4,282.5,204.3,282.4,204.4,282.2L204.4,282.2z M204.6,282.2c0,0.1,0,0.2,0,0.3s0.1,0.1,0.2,0.1   c0.1,0,0.2,0,0.2-0.1c0.1,0,0.1-0.1,0.2-0.3c0-0.1,0-0.2,0-0.3c0-0.1-0.1-0.1-0.2-0.1c-0.1,0-0.2,0-0.2,0.1   C204.6,282,204.6,282.1,204.6,282.2L204.6,282.2z M205.3,282.8l0.4-1.4l0.2,0l-0.4,1.4L205.3,282.8L205.3,282.8z M206.4,282.9   l0-0.1c-0.1,0.1-0.2,0.1-0.3,0.1c-0.1,0-0.1,0-0.2,0c0,0-0.1-0.1-0.1-0.1c0,0,0-0.1,0-0.1c0,0,0-0.1,0-0.2l0.2-0.6l0.2,0l-0.2,0.6   c0,0.1,0,0.1,0,0.2c0,0,0,0.1,0,0.1c0,0,0.1,0,0.1,0c0,0,0.1,0,0.1,0c0.1,0,0.1,0,0.1-0.1c0,0,0.1-0.1,0.1-0.2l0.1-0.5l0.2,0   l-0.3,1L206.4,282.9L206.4,282.9z M206.7,283l0.3-1l0.1,0l0,0.1c0,0,0.1-0.1,0.1-0.1c0.1,0,0.1,0,0.2,0c0.1,0,0.1,0,0.2,0.1   c0,0,0,0.1,0.1,0.1c0.1-0.1,0.2-0.2,0.3-0.1c0.1,0,0.2,0,0.2,0.1c0,0.1,0,0.1,0,0.3l-0.2,0.7l-0.2,0l0.2-0.6c0-0.1,0-0.1,0-0.2   c0,0,0,0,0-0.1c0,0,0,0,0,0c-0.1,0-0.2,0-0.2,0c0,0-0.1,0.1-0.1,0.2l-0.2,0.6l-0.2,0l0.2-0.6c0-0.1,0-0.1,0-0.2   c0,0-0.1-0.1-0.1-0.1c0,0-0.1,0-0.1,0c0,0-0.1,0.1-0.1,0.1c0,0-0.1,0.1-0.1,0.2l-0.1,0.5L206.7,283z M208.4,283.2l-0.1,0l0.4-1.4   l0.2,0l-0.1,0.5c0.1-0.1,0.2-0.1,0.3-0.1c0.1,0,0.1,0,0.2,0.1c0,0,0.1,0.1,0.1,0.1c0,0,0,0.1,0,0.2c0,0.1,0,0.1,0,0.2   c-0.1,0.2-0.1,0.3-0.2,0.4c-0.1,0.1-0.2,0.1-0.3,0.1c-0.1,0-0.2-0.1-0.2-0.2L208.4,283.2L208.4,283.2z M208.5,282.7   c0,0.1,0,0.2,0,0.3c0,0.1,0.1,0.1,0.2,0.2c0.1,0,0.1,0,0.2-0.1c0.1-0.1,0.1-0.1,0.2-0.3c0-0.1,0-0.2,0-0.3c0-0.1-0.1-0.1-0.1-0.1   c-0.1,0-0.1,0-0.2,0.1C208.6,282.5,208.6,282.6,208.5,282.7L208.5,282.7z M209.9,283.3c-0.1,0-0.1,0.1-0.2,0.1c-0.1,0-0.1,0-0.2,0   c-0.1,0-0.2-0.1-0.2-0.1c0-0.1-0.1-0.1,0-0.2c0,0,0-0.1,0.1-0.1c0,0,0.1-0.1,0.1-0.1c0,0,0.1,0,0.1,0c0,0,0.1,0,0.1,0   c0.1,0,0.2,0,0.3,0c0,0,0,0,0,0c0-0.1,0-0.1,0-0.2c0,0-0.1-0.1-0.2-0.1c-0.1,0-0.1,0-0.2,0c0,0-0.1,0.1-0.1,0.1l-0.2,0   c0-0.1,0.1-0.1,0.1-0.2c0,0,0.1-0.1,0.2-0.1c0.1,0,0.1,0,0.2,0c0.1,0,0.1,0,0.2,0.1c0,0,0.1,0.1,0.1,0.1c0,0,0,0.1,0,0.1   c0,0,0,0.1,0,0.2l-0.1,0.2c0,0.2-0.1,0.3-0.1,0.3c0,0,0,0.1,0,0.1l-0.2,0C209.9,283.4,209.9,283.3,209.9,283.3L209.9,283.3z    M210,282.9c-0.1,0-0.2,0-0.3,0c-0.1,0-0.1,0-0.1,0c0,0-0.1,0-0.1,0c0,0,0,0,0,0.1c0,0,0,0.1,0,0.1c0,0,0.1,0.1,0.1,0.1   c0.1,0,0.1,0,0.2,0c0.1,0,0.1,0,0.1-0.1C209.9,283.1,210,283,210,282.9L210,282.9L210,282.9z M210.3,283.5l0.3-1l0.1,0l0,0.1   c0.1-0.1,0.2-0.1,0.3-0.1c0.1,0,0.1,0,0.1,0c0,0,0.1,0.1,0.1,0.1c0,0,0,0.1,0,0.1c0,0,0,0.1,0,0.2l-0.2,0.6l-0.2,0l0.2-0.6   c0-0.1,0-0.1,0-0.2c0,0,0-0.1,0-0.1c0,0-0.1,0-0.1,0c-0.1,0-0.2,0-0.2,0c-0.1,0-0.1,0.1-0.2,0.2l-0.2,0.5L210.3,283.5L210.3,283.5z    M211.3,283.1c0-0.2,0.1-0.3,0.3-0.4c0.1-0.1,0.2-0.1,0.3-0.1c0.1,0,0.2,0.1,0.3,0.2c0,0.1,0.1,0.2,0,0.4c0,0.1-0.1,0.2-0.1,0.3   c-0.1,0.1-0.1,0.1-0.2,0.1c-0.1,0-0.2,0-0.2,0c-0.1,0-0.2-0.1-0.3-0.2C211.3,283.4,211.3,283.3,211.3,283.1L211.3,283.1z    M211.5,283.2c0,0.1,0,0.2,0,0.3c0,0.1,0.1,0.1,0.2,0.1c0.1,0,0.1,0,0.2-0.1c0.1-0.1,0.1-0.1,0.2-0.3c0-0.1,0-0.2,0-0.3   c0-0.1-0.1-0.1-0.2-0.1c-0.1,0-0.2,0-0.2,0.1C211.6,282.9,211.5,283,211.5,283.2L211.5,283.2z"/><g><path class="st0" d="M215.3,288c-0.1,0-0.1,0-0.2,0c-0.2-0.1-0.2-0.3-0.1-0.5l4-7.2c0.1-0.2,0.3-0.2,0.5-0.1    c0.2,0.1,0.2,0.3,0.1,0.5l-4,7.2C215.6,287.9,215.4,288,215.3,288L215.3,288z"/></g><path class="st2" d="M117.1,214.6c22.7-0.3,127.5,64.1,127.8,76l-6.5,10c-2.9-13.8-109.3-76.4-126.8-75.3L117.1,214.6L117.1,214.6z   "/><g><path class="st3" d="M239.1,300l5.1-8.8c0.1-0.1,0.2-0.1,0.3-0.1c0.1,0.1,0.1,0.2,0.1,0.3L239.1,300L239.1,300z"/></g><g><path class="st3" d="M112,224.7l4.7-9.7c0.1-0.1,0.2-0.1,0.3-0.1c0.1,0.1,0.1,0.2,0.1,0.3L112,224.7L112,224.7z"/></g><path class="st2" d="M110.9,224.9c4.2-2.9,35.2,10.9,67.6,30.5c32.3,19.6,63.2,41.8,60.4,45.9l-0.9,1.4l-0.4,0.3   c0.1-0.1,0.6-0.6,0-2.2c-1.4-4.5-23.3-22-59.6-44c-35.4-21.1-64.9-33.9-67.9-30.2L110.9,224.9L110.9,224.9z M245.5,291.3   c2.7-5.3-26.1-26.9-61.6-48c-36.4-20.7-62.7-32.8-67.5-29.2l-1.1,1.9c0,0.1,0-0.1,0.3-0.3c0.9-0.8,2.3-0.7,3-0.7   c8.3,0.1,31.8,11,64.9,30c14.5,8.5,61.2,38.4,61.1,46.9c0,0.7,0.1,0.9-0.2,1.2L245.5,291.3L245.5,291.3z"/><g><path class="st3" d="M237.7,303.2l-0.2-0.3c-0.1,0-0.1,0-0.1-0.1c0,0,0.5-0.5-0.1-1.9c-1.4-4.7-24.6-22.7-59.5-43.9    c-29.9-17.9-57.6-30.8-65.8-30.8c-0.9,0-1.6,0.2-1.9,0.5l0-0.1c0-0.1,0-0.2,0.1-0.3l0.5-1.6c0.5-0.4,1.1-0.5,1.9-0.5    c8.3,0,37.2,13.6,65.9,30.9c29.1,17.7,59.3,38.8,60.6,45c0.1,0.5,0.1,0.9-0.2,1.2l-0.9,1.4c0,0-0.2,0.1-0.3,0.2    C237.8,303.1,237.7,303.2,237.7,303.2L237.7,303.2z M112,225.8c8.2,0,36,13,66,30.9c35.5,21.5,58.2,39.3,59.7,44.1    c0.2,0.6,0.3,1.1,0.3,1.4l0.7-1.1c0.2-0.2,0.2-0.5,0.1-0.9c-1.3-6.1-32.1-27.6-60.4-44.7c-28.6-17.3-57.5-30.8-65.7-30.8    c-0.7,0-1.3,0.1-1.6,0.3l-0.6,1.1C110.8,225.9,111.3,225.8,112,225.8L112,225.8z M244.5,293.1c0,0-0.1,0-0.1,0c0,0,0,0,0,0    l-0.1-0.3c0,0,0,0,0,0l-0.1,0.2l0.1-0.2c0.1-0.1,0.1-0.3,0.1-0.7c0.2-8.7-47.5-39.1-61-47c-33-18.9-56.6-29.8-64.8-29.9    c-0.8,0-2.1,0-2.8,0.7c0,0,0,0,0,0c0.8-1.1,2-1.1,2.7-1.1c8.5,0.1,32.2,11,65.2,30c9.5,5.6,61.4,37.9,61.2,47.1c0,0.1,0,0.1,0,0.2    l0.6-0.9c2.5-4.8-24.6-25.8-61.6-47.7c-39.1-22.2-62.9-32.4-67.2-29.2l-0.9,1.6c-0.2,0.1-0.5,0.2-0.5,0.1l1.1-2    c0.7-0.5,1.6-0.7,2.8-0.7c10.2,0,41,16.2,65,29.9c32.1,19,64.7,42.4,61.7,48.3l-1.1,1.6C244.6,293.1,244.5,293.1,244.5,293.1    L244.5,293.1z"/></g><path class="st5" d="M134.7,264.2c0,12.1,5,23.1,13,31.2c8.1,8,19,13.1,31.2,13.1c12.2,0,23.3-5,31.4-13c8-8,13-19.1,13-31.3l0,0   v-59.1l-88.6-0.1L134.7,264.2L134.7,264.2z"/><g><path class="st3" d="M179,308.8c-11.7,0-22.8-4.7-31.4-13.2c-8.5-8.4-13.1-19.6-13.1-31.4l0-59.2l88.9-0.1l0.3,59.4    c0,11.9-4.7,23-13.1,31.4C202.1,304.1,190.9,308.8,179,308.8L179,308.8z M223.1,205.1l-88.3,0.1l0.3,59c0,11.7,4.6,22.7,13,31    c8.4,8.4,19.5,13,31,13c11.8,0,22.8-4.6,31.2-12.9c8.3-8.3,12.9-19.4,12.9-31.1V205.1L223.1,205.1z"/></g><path class="st0" d="M136.4,264.3L136.4,264.3c0,11.7,4.8,22.2,12.5,29.9c7.7,7.7,18.4,12.5,30,12.5c11.7,0,22.3-4.7,30-12.4   c7.7-7.7,12.5-18.2,12.5-29.9l0,0V207l-84.9,0L136.4,264.3L136.4,264.3z M204.3,224.2l0,36.5l0,3.9l0,0c0,1-0.1,2.2-0.2,3.2   c-0.7,5.8-3.3,10.8-7.3,14.7c-4.6,4.6-10.9,7.4-17.9,7.4c-7,0-13.2-2.9-17.8-7.5c-4.7-4.7-7.5-11.2-7.5-17.9v-40.3L204.3,224.2   L204.3,224.2z"/><g><path class="st3" d="M178.9,306.9c-11.3,0-22-4.5-30.1-12.5c-8.1-8.1-12.6-18.7-12.6-30l0-57.3l85.1-0.2l0.2,57.6    c0,11.3-4.4,22-12.5,30C201,302.5,190.3,306.9,178.9,306.9L178.9,306.9z M221.2,207l-84.8,0.2l0.1,57.1c0,11.2,4.4,21.8,12.5,29.8    c8,8,18.7,12.4,29.9,12.4c11.3,0,21.9-4.4,29.9-12.4c8-8,12.4-18.5,12.4-29.8V207L221.2,207z M178.9,290c-6.6,0-13-2.7-17.9-7.6    c-4.8-4.8-7.5-11.4-7.5-18l0-40.5l50.9,0.1l0.2,36.7l0,3.9c0,1-0.1,2.2-0.2,3.2c-0.7,5.6-3.2,10.7-7.3,14.8    C192.1,287.4,185.7,290,178.9,290L178.9,290z M153.8,224.3l0,40.1c0,6.6,2.7,13,7.4,17.8c4.9,4.8,11.1,7.5,17.6,7.5    c6.7,0,13-2.6,17.8-7.4c4.1-4.1,6.6-9.1,7.2-14.6c0.1-1,0.2-2.1,0.2-3.1l0-40.4L153.8,224.3L153.8,224.3z"/></g><path class="st6" d="M173.6,257.8L173.6,257.8c0,1.7,0.6,3.2,1.6,4.3c1,1.1,2.4,1.8,4,1.8c1.5,0,2.9-0.7,4-1.8   c1-1.1,1.6-2.6,1.6-4.3v-8l-11.2,0L173.6,257.8L173.6,257.8z"/><path class="st5" d="M182.3,251.7c-0.6,0-1.1,0.5-1.1,1.1c0,0.6,0.5,1.1,1.1,1.1c0.6,0,1.1-0.5,1.1-1.1   C183.5,252.2,182.9,251.7,182.3,251.7L182.3,251.7z"/><path class="st5" d="M179.2,254.7c-0.6,0-1.1,0.5-1.1,1.1c0,0.6,0.5,1.1,1.1,1.1c0.6,0,1.1-0.5,1.1-1.1   C180.3,255.2,179.8,254.7,179.2,254.7L179.2,254.7z"/><path class="st5" d="M182.3,257.8c-0.6,0-1.1,0.5-1.1,1.1c0,0.6,0.5,1.1,1.1,1.1c0.6,0,1.1-0.5,1.1-1.1   C183.4,258.3,182.9,257.8,182.3,257.8L182.3,257.8z"/><path class="st5" d="M176.3,257.8c-0.6,0-1.1,0.5-1.1,1.1c0,0.6,0.5,1.1,1.1,1.1c0.6,0,1.1-0.5,1.1-1.1   C177.4,258.3,176.9,257.8,176.3,257.8L176.3,257.8z"/><path class="st5" d="M176.3,251.7c-0.6,0-1.1,0.5-1.1,1.1c0,0.6,0.5,1.1,1.1,1.1c0.6,0,1.1-0.5,1.1-1.1   C177.4,252.2,176.9,251.7,176.3,251.7L176.3,251.7z"/><path class="st6" d="M173.5,277.1L173.5,277.1c0,1.7,0.6,3.2,1.7,4.3c1,1.1,2.4,1.8,4,1.8c1.5,0,2.9-0.7,4-1.8   c1-1.1,1.6-2.6,1.6-4.2v-8l-11.2,0L173.5,277.1L173.5,277.1z"/><path class="st5" d="M182.3,271c-0.6,0-1.1,0.5-1.1,1.1c0,0.6,0.5,1.1,1.1,1.1c0.6,0,1.1-0.5,1.1-1.1   C183.4,271.5,182.9,271,182.3,271L182.3,271z"/><path class="st5" d="M179.2,274c-0.6,0-1.1,0.5-1.1,1.1c0,0.6,0.5,1.1,1.1,1.1s1.1-0.5,1.1-1.1C180.3,274.4,179.8,274,179.2,274   L179.2,274z"/><path class="st5" d="M182.3,277.1c-0.6,0-1.1,0.5-1.1,1.1s0.5,1.1,1.1,1.1c0.6,0,1.1-0.5,1.1-1.1S182.9,277.1,182.3,277.1   L182.3,277.1z"/><path class="st5" d="M176.2,277.1c-0.6,0-1.1,0.5-1.1,1.1c0,0.6,0.5,1.1,1.1,1.1c0.6,0,1.1-0.5,1.1-1.1   C177.3,277.6,176.8,277.1,176.2,277.1L176.2,277.1z"/><path class="st5" d="M176.2,271c-0.6,0-1.1,0.5-1.1,1.1c0,0.6,0.5,1.1,1.1,1.1c0.6,0,1.1-0.5,1.1-1.1   C177.3,271.5,176.8,271,176.2,271L176.2,271z"/><path class="st6" d="M158.1,257.8L158.1,257.8c0,1.6,0.6,3.2,1.6,4.2c1,1.1,2.4,1.8,4,1.8c1.6,0,2.9-0.7,4-1.8   c1-1.1,1.6-2.6,1.6-4.2v-8l-11.2,0L158.1,257.8L158.1,257.8z"/><path class="st5" d="M166.8,251.8c-0.6,0-1.1,0.5-1.1,1.1c0,0.6,0.5,1.1,1.1,1.1c0.6,0,1.1-0.5,1.1-1.1   C167.9,252.2,167.4,251.8,166.8,251.8L166.8,251.8z"/><path class="st5" d="M163.7,254.7c-0.6,0-1.1,0.5-1.1,1.1s0.5,1.1,1.1,1.1c0.6,0,1.1-0.5,1.1-1.1S164.3,254.7,163.7,254.7   L163.7,254.7z"/><path class="st5" d="M166.8,257.9c-0.6,0-1.1,0.5-1.1,1.1c0,0.6,0.5,1.1,1.1,1.1c0.6,0,1.1-0.5,1.1-1.1   C167.9,258.3,167.4,257.9,166.8,257.9L166.8,257.9z"/><path class="st5" d="M160.8,257.9c-0.6,0-1.1,0.5-1.1,1.1c0,0.6,0.5,1.1,1.1,1.1c0.6,0,1.1-0.5,1.1-1.1   C161.9,258.4,161.4,257.9,160.8,257.9L160.8,257.9z"/><path class="st5" d="M160.7,251.7c-0.6,0-1.1,0.5-1.1,1.1c0,0.6,0.5,1.1,1.1,1.1c0.6,0,1.1-0.5,1.1-1.1   C161.9,252.2,161.4,251.7,160.7,251.7L160.7,251.7z"/><path class="st6" d="M189.1,257.8L189.1,257.8c0,1.7,0.6,3.2,1.6,4.3c1,1.1,2.4,1.8,4,1.8s2.9-0.7,4-1.8c1-1.1,1.6-2.6,1.6-4.2v-8   l-11.2,0L189.1,257.8L189.1,257.8z"/><path class="st5" d="M197.8,251.7c-0.6,0-1.1,0.5-1.1,1.1c0,0.6,0.5,1.1,1.1,1.1c0.6,0,1.1-0.5,1.1-1.1   C198.9,252.2,198.4,251.7,197.8,251.7L197.8,251.7z"/><path class="st5" d="M194.7,254.7c-0.6,0-1.1,0.5-1.1,1.1c0,0.6,0.5,1.1,1.1,1.1c0.6,0,1.1-0.5,1.1-1.1   C195.8,255.2,195.3,254.7,194.7,254.7L194.7,254.7z"/><path class="st5" d="M197.8,257.8c-0.6,0-1.1,0.5-1.1,1.1c0,0.6,0.5,1.1,1.1,1.1c0.6,0,1.1-0.5,1.1-1.1   C198.9,258.3,198.4,257.8,197.8,257.8L197.8,257.8z"/><path class="st5" d="M191.8,257.9c-0.6,0-1.1,0.5-1.1,1.1c0,0.6,0.5,1.1,1.1,1.1c0.6,0,1.1-0.5,1.1-1.1   C192.9,258.3,192.4,257.9,191.8,257.9L191.8,257.9z"/><path class="st5" d="M191.7,251.7c-0.6,0-1.1,0.5-1.1,1.1c0,0.6,0.5,1.1,1.1,1.1s1.1-0.5,1.1-1.1   C192.9,252.2,192.4,251.7,191.7,251.7L191.7,251.7z"/><path class="st6" d="M173.6,238.4L173.6,238.4c0,1.6,0.6,3.1,1.6,4.2c1,1.1,2.4,1.8,4,1.8s2.9-0.7,4-1.8c1-1.1,1.6-2.6,1.6-4.3v-8   l-11.2,0L173.6,238.4L173.6,238.4z"/><path class="st5" d="M182.3,232.3c-0.6,0-1.1,0.5-1.1,1.1c0,0.6,0.5,1.1,1.1,1.1c0.6,0,1.1-0.5,1.1-1.1   C183.4,232.8,182.9,232.3,182.3,232.3L182.3,232.3z"/><path class="st5" d="M179.2,235.3c-0.6,0-1.1,0.5-1.1,1.1s0.5,1.1,1.1,1.1c0.6,0,1.1-0.5,1.1-1.1S179.8,235.3,179.2,235.3   L179.2,235.3z"/><path class="st5" d="M182.3,238.4c-0.6,0-1.1,0.5-1.1,1.1c0,0.6,0.5,1.1,1.1,1.1c0.6,0,1.1-0.5,1.1-1.1   C183.4,238.9,182.9,238.4,182.3,238.4L182.3,238.4z"/><path class="st5" d="M176.3,238.4c-0.6,0-1.1,0.5-1.1,1.1c0,0.6,0.5,1.1,1.1,1.1c0.6,0,1.1-0.5,1.1-1.1   C177.4,238.9,176.9,238.4,176.3,238.4L176.3,238.4z"/><path class="st5" d="M176.3,232.3c-0.6,0-1.1,0.5-1.1,1.1s0.5,1.1,1.1,1.1c0.6,0,1.1-0.5,1.1-1.1S176.9,232.3,176.3,232.3   L176.3,232.3z"/><path class="st2" d="M141.9,222c0.1-4.1,3-5.1,3-5.1c0,0,3.2,1,3.1,5.1L141.9,222L141.9,222z"/><path class="st2" d="M139.4,216.9l-0.5,4.7l3.1,0c0-3.9,3-4.6,3-4.6c0.1,0,3,0.9,3.1,4.6h3.1l-0.6-4.8L139.4,216.9L139.4,216.9z"/><g><path class="st3" d="M151.3,221.9H148c-0.3-3.7-3-4.6-3.1-4.6c0,0-2.8,0.6-2.8,4.4l-3.3,0.2l0.3-4.9l11.4-0.2L151.3,221.9    L151.3,221.9z M144.7,217l-5.3,0.1l-0.3,4.6l2.9-0.2C141.8,218.3,143.8,217.3,144.7,217L144.7,217z M145.2,217    c0.8,0.3,2.9,1.4,3,4.7l2.7-0.2l-0.5-4.6L145.2,217L145.2,217z"/></g><path class="st2" d="M138.7,221.7h12.6c0.3,0,0.5,0.3,0.5,0.6c0,0.3-0.2,0.6-0.5,0.6h-12.6c-0.3,0-0.5-0.3-0.5-0.6   C138.2,222,138.4,221.7,138.7,221.7L138.7,221.7z"/><g><path class="st3" d="M151.3,223.1h-12.6c-0.4,0-0.7-0.3-0.7-0.8c0-0.4,0.3-0.8,0.7-0.8h12.6c0.4,0,0.7,0.3,0.7,0.8    C152,222.7,151.7,223.1,151.3,223.1L151.3,223.1z M138.7,221.9v0.8h12.6c0.2,0,0.3-0.2,0.3-0.4L138.7,221.9L138.7,221.9z"/></g><path class="st2" d="M143.3,221.7c0-2.5,1.7-3.2,1.7-3.2s1.8,0.7,1.8,3.2H143.3L143.3,221.7z"/><g><path class="st3" d="M146.9,221.9h-3.6c-0.2-2.8,1.5-3.5,1.6-3.5c0.2,0,2,0.8,2,3.3V221.9L146.9,221.9z M144.9,218.7    c0.1,0-1.4,0.7-1.4,3l3.1-0.2C146.4,219.4,144.9,218.7,144.9,218.7L144.9,218.7z"/></g><path class="st2" d="M138.9,215h12.1c0.3,0,0.5,0.2,0.5,0.5c0,0.3-0.2,0.5-0.5,0.5h-12.1c-0.3,0-0.5-0.2-0.5-0.5   C138.5,215.2,138.7,215,138.9,215L138.9,215z"/><g><path class="st3" d="M151.1,216.2h-12.1c-0.4,0-0.6-0.3-0.6-0.7c0-0.4,0.3-0.7,0.6-0.7h12.1c0.4,0,0.6,0.3,0.6,0.7    C151.7,215.9,151.4,216.2,151.1,216.2L151.1,216.2z M138.9,215.2v0.7h12.1c0.1,0,0.3-0.2,0.3-0.3L138.9,215.2L138.9,215.2z"/></g><path class="st2" d="M139.2,216h11.6c0.2,0,0.4,0.2,0.4,0.5c0,0.3-0.2,0.5-0.4,0.5h-11.6c-0.3,0-0.4-0.2-0.4-0.5   C138.7,216.3,138.9,216,139.2,216L139.2,216z"/><g><path class="st3" d="M150.8,217.3h-11.6c-0.4,0-0.6-0.3-0.6-0.7c0-0.4,0.3-0.7,0.6-0.7h11.6c0.3,0,0.6,0.3,0.6,0.7    C151.4,216.9,151.1,217.3,150.8,217.3L150.8,217.3z M139.2,216.2v0.7h11.6c0.1,0,0.3-0.2,0.3-0.3L139.2,216.2L139.2,216.2z"/></g><path class="st2" d="M142.9,208.1h0.9v0.6h0.7v-0.7h0.9v0.7h0.7v-0.7h0.9v1.5c0,0.2-0.2,0.4-0.4,0.4h-3.3c-0.2,0-0.4-0.2-0.4-0.4   V208.1L142.9,208.1z"/><g><path class="st3" d="M146.7,210.2h-3.5l-0.4-0.6v-1.5l1.1-0.2l0.2,0.8l0.5-0.2l-0.2-0.5l1.1-0.2l0.2,0.8l0.5-0.2l-0.2-0.5l1.1-0.2    l0.2,1.9L146.7,210.2L146.7,210.2z M143.7,208.1l-0.7,0.2l0.2,1.3l3.5,0.4l0.2-0.4v-1.5l-0.8,0.2l0.2,0.5l-0.9,0.2l-0.2-0.8    l-0.8,0.2l0.2,0.5l-0.8,0.2L143.7,208.1L143.7,208.1z"/></g><polygon class="st2" points="146.4,210.1 146.6,215 143.4,214.9 143.6,210.1 146.4,210.1  "/><g><path class="st3" d="M146.8,215.1l-3.4,0l0-5l3-0.2L146.8,215.1L146.8,215.1z M146.2,210.1l-2.6,0.2l0,4.6l2.8-0.2L146.2,210.1    L146.2,210.1z"/></g><path class="st2" d="M146.9,210.5h0.9v0.6h0.6v-0.7h0.9v0.7h0.6v-0.7h0.9v1.5c0,0.2-0.2,0.4-0.4,0.4h-3.2c-0.2,0-0.4-0.2-0.4-0.4   V210.5L146.9,210.5z"/><g><path class="st3" d="M150.6,212.5h-3.4l-0.4-0.6v-1.5l1.1-0.2l0.2,0.8l0.5-0.2l-0.2-0.5l1.1-0.2l0.2,0.8l0.5-0.2l-0.2-0.5l1.1-0.2    l0.2,1.9L150.6,212.5L150.6,212.5z M147.6,210.5l-0.7,0.2l0.2,1.3l3.4,0.4l0.2-0.4v-1.5l-0.7,0.2l0.2,0.5l-0.8,0.2l-0.2-0.8    l-0.7,0.2l0.2,0.5l-0.8,0.2L147.6,210.5L147.6,210.5z"/></g><polygon class="st2" points="150.4,212.4 150.5,215 147.4,215 147.5,212.4  "/><g><path class="st3" d="M150.7,215.1h-3.3l-0.1-2.8l3.1-0.2L150.7,215.1L150.7,215.1z M150.2,212.4l-2.7,0.2l0.1,2.4l2.7-0.2    L150.2,212.4L150.2,212.4z"/></g><path class="st2" d="M139,210.5h0.9v0.7h0.6v-0.7l0.9,0v0.7h0.7v-0.7h0.9v1.5c0,0.2-0.2,0.4-0.4,0.4h-3.2c-0.2,0-0.4-0.2-0.4-0.4   V210.5L139,210.5z"/><g><path class="st3" d="M142.6,212.6h-3.4l-0.4-0.6v-1.5l1.1-0.2l0.2,0.8l0.5-0.2l-0.2-0.5l1.1-0.2l0.2,0.8l0.5-0.2l-0.2-0.5l1.1-0.2    l0.2,1.9L142.6,212.6L142.6,212.6z M139.7,210.5l-0.7,0.2l0.2,1.3l3.5,0.4l0.2-0.4v-1.5l-0.7,0.2l0.2,0.5l-0.8,0.2l-0.2-0.8    l-0.7,0.2l0.2,0.5l-0.8,0.2L139.7,210.5L139.7,210.5z"/></g><polygon class="st2" points="142.5,212.4 142.6,215 139.5,215 139.6,212.4  "/><g><path class="st3" d="M142.7,215.2h-3.3l-0.1-2.8l3.1-0.2L142.7,215.2L142.7,215.2z M142.3,212.4l-2.7,0.2l0.1,2.4l2.7-0.2    L142.3,212.4L142.3,212.4z"/></g><path class="st3" d="M144.7,211.7c0-0.5,0.6-0.5,0.6,0v1.1h-0.6V211.7L144.7,211.7z"/><path class="st3" d="M148.6,213.3c0-0.5,0.6-0.5,0.6,0v0.9h-0.6V213.3L148.6,213.3z"/><path class="st3" d="M140.7,213.3c0-0.4,0.6-0.5,0.6,0v0.9h-0.6V213.3L140.7,213.3z"/><path class="st2" d="M177,208.1h0.9v0.7h0.7v-0.7h0.9v0.7h0.7v-0.7h0.9v1.5c0,0.2-0.2,0.4-0.4,0.4h-3.3c-0.2,0-0.4-0.2-0.4-0.4   L177,208.1L177,208.1z"/><g><path class="st3" d="M180.8,210.2h-3.5l-0.4-0.6v-1.5l1.1-0.2l0.2,0.8l0.5-0.2l-0.2-0.5l1.1-0.2l0.2,0.9l0.5-0.2l-0.2-0.5l1.1-0.2    l0.2,1.9L180.8,210.2L180.8,210.2z M177.8,208.1l-0.7,0.2l0.2,1.3l3.5,0.4l0.2-0.4v-1.5l-0.8,0.2l0.2,0.5l-0.9,0.2l-0.2-0.9    l-0.8,0.2l0.2,0.5L178,209L177.8,208.1L177.8,208.1z"/></g><polygon class="st2" points="180.5,210.1 180.7,215 177.5,214.9 177.7,210.1 180.5,210.1  "/><g><path class="st3" d="M180.9,215.1l-3.4,0l0-5l3-0.2L180.9,215.1L180.9,215.1z M180.3,210.2l-2.6,0.2l0,4.6l2.8-0.2L180.3,210.2    L180.3,210.2z"/></g><path class="st2" d="M181,210.5h0.9v0.6h0.7v-0.7h0.9v0.7h0.6v-0.7h0.9v1.5c0,0.2-0.2,0.4-0.4,0.4l-3.2,0c-0.2,0-0.4-0.2-0.4-0.4   V210.5L181,210.5z"/><g><path class="st3" d="M184.7,212.5h-3.4l-0.4-0.6v-1.5l1.1-0.2l0.2,0.8l0.5-0.2l-0.2-0.5l1.1-0.2l0.2,0.9l0.5-0.2l-0.2-0.5l1.1-0.2    l0.2,1.9L184.7,212.5L184.7,212.5z M181.7,210.5l-0.7,0.2l0.2,1.3l3.4,0.4l0.2-0.4v-1.5l-0.7,0.2l0.2,0.5l-0.8,0.2l-0.2-0.9    l-0.7,0.2l0.2,0.5l-0.8,0.2L181.7,210.5L181.7,210.5z"/></g><polygon class="st2" points="184.5,212.4 184.6,215 181.5,215 181.6,212.4  "/><g><path class="st3" d="M181.3,215.2l0.1-2.8l3.1-0.2l0.3,2.8L181.3,215.2L181.3,215.2z M184.3,212.4l-2.7,0.2l0.1,2.2l2.9,0    L184.3,212.4L184.3,212.4z"/></g><path class="st2" d="M173.1,210.5h0.9v0.6h0.6v-0.7h0.9v0.7h0.6v-0.7h0.9l0,1.5c0,0.2-0.2,0.4-0.4,0.4h-3.2c-0.2,0-0.4-0.2-0.4-0.4   V210.5L173.1,210.5z"/><g><path class="st3" d="M176.7,212.6h-3.4l-0.4-0.6v-1.5l1.1-0.2l0.2,0.8l0.5-0.2l-0.2-0.5l1.1-0.2l0.2,0.8l0.5-0.2l-0.2-0.5l1.1-0.2    l0.2,1.9L176.7,212.6L176.7,212.6z M173.8,210.5l-0.7,0.2l0.2,1.3l3.5,0.4l0.2-0.4v-1.5l-0.7,0.2l0.2,0.5l-0.8,0.2l-0.2-0.8    l-0.7,0.2l0.2,0.5l-0.8,0.2L173.8,210.5L173.8,210.5z"/></g><polygon class="st2" points="176.6,212.4 176.7,215 173.6,215 173.7,212.4  "/><g><path class="st3" d="M176.9,215.2h-3.3l-0.1-2.8l3.1-0.2L176.9,215.2L176.9,215.2z M176.4,212.4l-2.7,0.2l0.1,2.4l2.7-0.2    L176.4,212.4L176.4,212.4z"/></g><path class="st2" d="M176,222c0.1-4.1,3-5.1,3-5.1c0,0,3.2,1.1,3.1,5.2L176,222L176,222z"/><path class="st2" d="M173.5,216.9l-0.5,4.7h3.1c0-3.9,3-4.6,3-4.6c0.1,0,3,0.9,3.1,4.6h3.1l-0.6-4.8L173.5,216.9L173.5,216.9z"/><g><path class="st3" d="M185.5,221.9h-3.3c-0.3-3.8-3.1-4.6-3.1-4.6c0,0-2.8,0.6-2.8,4.4l-3.3,0.2l0.3-4.9l11.4-0.2L185.5,221.9    L185.5,221.9z M178.7,217l-5.3,0.1l-0.3,4.6l2.9-0.2C175.9,218.3,177.9,217.3,178.7,217L178.7,217z M179.4,217    c0.8,0.3,2.9,1.4,3,4.7l2.7-0.2l-0.5-4.6L179.4,217L179.4,217z"/></g><path class="st2" d="M172.8,221.7h12.6c0.3,0,0.5,0.3,0.5,0.6c0,0.3-0.2,0.6-0.5,0.6h-12.6c-0.3,0-0.5-0.3-0.5-0.6   C172.3,222,172.5,221.7,172.8,221.7L172.8,221.7z"/><g><path class="st3" d="M185.4,223.1h-12.6c-0.4,0-0.7-0.3-0.7-0.8c0-0.4,0.3-0.8,0.7-0.8h12.6c0.4,0,0.7,0.3,0.7,0.8    C186.1,222.7,185.8,223.1,185.4,223.1L185.4,223.1z M172.8,221.9v0.8h12.6c0.2,0,0.3-0.2,0.3-0.4L172.8,221.9L172.8,221.9z"/></g><path class="st2" d="M177.4,221.7c0-2.5,1.7-3.2,1.7-3.2s1.8,0.7,1.8,3.2H177.4L177.4,221.7z"/><g><path class="st3" d="M181,221.9h-3.6c-0.2-2.8,1.5-3.5,1.6-3.5c0.2,0,2,0.8,2,3.3V221.9L181,221.9z M179,218.7    c0.1,0-1.4,0.7-1.4,3l3.1-0.2C180.5,219.4,179,218.7,179,218.7L179,218.7z"/></g><path class="st2" d="M173,215h12.1c0.3,0,0.5,0.2,0.5,0.5c0,0.3-0.2,0.5-0.5,0.5H173c-0.3,0-0.5-0.2-0.5-0.5   C172.6,215.2,172.8,215,173,215L173,215z"/><g><path class="st3" d="M185.2,216.2H173c-0.4,0-0.6-0.3-0.6-0.7c0-0.4,0.3-0.7,0.6-0.7h12.1c0.4,0,0.6,0.3,0.6,0.7    C185.8,215.9,185.5,216.2,185.2,216.2L185.2,216.2z M173,215.2v0.7h12.1c0.1,0,0.3-0.2,0.3-0.3L173,215.2L173,215.2z"/></g><path class="st2" d="M173.3,216h11.6c0.3,0,0.4,0.2,0.4,0.5c0,0.3-0.2,0.5-0.4,0.5h-11.6c-0.3,0-0.4-0.2-0.4-0.5   C172.9,216.3,173,216,173.3,216L173.3,216z"/><g><path class="st3" d="M184.9,217.3h-11.6c-0.4,0-0.6-0.3-0.6-0.7c0-0.4,0.3-0.7,0.6-0.7h11.6c0.3,0,0.6,0.3,0.6,0.7    C185.5,217,185.2,217.3,184.9,217.3L184.9,217.3z M173.3,216.2v0.7h11.6c0.1,0,0.3-0.2,0.3-0.3L173.3,216.2L173.3,216.2z"/></g><path class="st3" d="M178.8,211.7c0-0.5,0.6-0.5,0.6,0v1.2h-0.6V211.7L178.8,211.7z"/><path class="st3" d="M182.7,213.3c0-0.4,0.6-0.5,0.6,0v0.9h-0.6V213.3L182.7,213.3z"/><path class="st3" d="M174.8,213.3c0-0.5,0.6-0.5,0.6,0v0.9h-0.6V213.3L174.8,213.3z"/><path class="st2" d="M210.8,208.1h0.9v0.6h0.7v-0.7h0.9v0.7h0.7v-0.7h0.9v1.5c0,0.2-0.2,0.4-0.4,0.4h-3.3c-0.2,0-0.4-0.2-0.4-0.4   V208.1L210.8,208.1z"/><g><path class="st3" d="M214.5,210.2H211l-0.4-0.6v-1.5l1.1-0.2l0.2,0.8l0.5-0.2l-0.2-0.5l1.1-0.2l0.2,0.8l0.5-0.2l-0.2-0.5l1.1-0.2    l0.2,1.9L214.5,210.2L214.5,210.2z M211.5,208.1l-0.7,0.2l0.2,1.3l3.5,0.4l0.2-0.4v-1.5l-0.8,0.2l0.2,0.5l-0.8,0.2l-0.2-0.8    l-0.8,0.2l0.2,0.5l-0.9,0.2L211.5,208.1L211.5,208.1z"/></g><polygon class="st2" points="214.2,210.2 214.4,215 211.2,215 211.4,210.2  "/><g><path class="st3" d="M214.6,215.2l-3.4,0l0-5l3-0.2L214.6,215.2L214.6,215.2z M214,210.2l-2.6,0.2l0,4.6l2.8-0.2L214,210.2    L214,210.2z"/></g><path class="st2" d="M214.7,210.5h0.9v0.6h0.6v-0.7h0.9v0.7h0.7v-0.7h0.9v1.5c0,0.2-0.2,0.4-0.4,0.4h-3.2c-0.2,0-0.4-0.2-0.4-0.4   L214.7,210.5L214.7,210.5z"/><g><path class="st3" d="M218.4,212.6H215l-0.4-0.6v-1.5l1.1-0.2l0.2,0.8l0.5-0.2l-0.2-0.5l1.1-0.2l0.2,0.8l0.5-0.2l-0.2-0.5l1.1-0.2    l0.2,1.9L218.4,212.6L218.4,212.6z M215.5,210.5l-0.7,0.2l0.2,1.3l3.5,0.4l0.2-0.4v-1.5l-0.7,0.2l0.2,0.5l-0.8,0.2l-0.2-0.8    l-0.7,0.2l0.2,0.5l-0.8,0.2L215.5,210.5L215.5,210.5z"/></g><polygon class="st2" points="218.2,212.4 218.3,215 215.2,215 215.3,212.4  "/><g><path class="st3" d="M218.5,215.2h-3.3l-0.1-2.8l3.1-0.2L218.5,215.2L218.5,215.2z M218,212.4l-2.7,0.2l0.1,2.4l2.7-0.2L218,212.4    L218,212.4z"/></g><path class="st2" d="M206.8,210.5h0.9v0.6h0.7v-0.7h0.9v0.7h0.7v-0.7h0.9v1.5c0,0.2-0.2,0.4-0.4,0.4h-3.2c-0.2,0-0.4-0.2-0.4-0.4   V210.5L206.8,210.5z"/><g><path class="st3" d="M210.5,212.6h-3.4l-0.4-0.6v-1.5l1.1-0.2l0.2,0.8l0.5-0.2l-0.2-0.5l1.1-0.2l0.2,0.8l0.5-0.2l-0.2-0.5l1.1-0.2    l0.2,1.9L210.5,212.6L210.5,212.6z M207.5,210.5l-0.7,0.2l0.2,1.3l3.5,0.4l0.2-0.4v-1.5l-0.7,0.2l0.2,0.5l-0.8,0.2l-0.2-0.8    l-0.7,0.2l0.2,0.5l-0.8,0.2L207.5,210.5L207.5,210.5z"/></g><polygon class="st2" points="210.3,212.4 210.4,215 207.3,215 207.4,212.4  "/><g><path class="st3" d="M210.6,215.2h-3.3l-0.1-2.8l3.1-0.2L210.6,215.2L210.6,215.2z M210.1,212.4l-2.7,0.2l0.1,2.4l2.7-0.2    L210.1,212.4L210.1,212.4z"/></g><path class="st2" d="M209.7,222c0.1-4.1,3-5.1,3.1-5.1c0,0,3.2,1.1,3.1,5.2L209.7,222L209.7,222z"/><path class="st2" d="M207.2,217l-0.5,4.7h3.1c0-3.9,3-4.6,3-4.6c0.1,0,3,0.9,3.1,4.6h3.1l-0.6-4.8L207.2,217L207.2,217z"/><g><path class="st3" d="M219.2,221.9h-3.3c-0.3-3.7-3.1-4.6-3.1-4.6c0,0-2.8,0.6-2.8,4.4l-3.3,0.2l0.3-4.9l11.4-0.2L219.2,221.9    L219.2,221.9z M212.5,217.1l-5.3,0.1l-0.3,4.6l2.9-0.2C209.7,218.3,211.7,217.3,212.5,217.1L212.5,217.1z M213.1,217    c0.8,0.3,2.9,1.4,3,4.7l2.7-0.2l-0.5-4.6L213.1,217L213.1,217z"/></g><path class="st2" d="M206.5,221.7h12.6c0.3,0,0.5,0.3,0.5,0.6c0,0.3-0.2,0.6-0.5,0.6h-12.6c-0.3,0-0.5-0.3-0.5-0.6   C206,222,206.2,221.7,206.5,221.7L206.5,221.7z"/><g><path class="st3" d="M219.1,223.1h-12.6c-0.4,0-0.7-0.3-0.7-0.8s0.3-0.8,0.7-0.8h12.6c0.4,0,0.7,0.3,0.7,0.8    S219.5,223.1,219.1,223.1L219.1,223.1z M206.5,221.9v0.8h12.6c0.2,0,0.3-0.2,0.3-0.4L206.5,221.9L206.5,221.9z"/></g><path class="st2" d="M211.1,221.7c0-2.5,1.7-3.2,1.7-3.2c0,0,1.8,0.7,1.8,3.2H211.1L211.1,221.7z"/><g><path class="st3" d="M214.7,221.9l-3.6,0c-0.2-2.7,1.6-3.5,1.6-3.5c0.2,0,2,0.8,2,3.3V221.9L214.7,221.9z M212.7,218.7    c0.1,0-1.4,0.7-1.4,3l3.1-0.2C214.3,219.4,212.8,218.7,212.7,218.7L212.7,218.7z"/></g><path class="st2" d="M206.8,215h12.1c0.3,0,0.5,0.2,0.5,0.5c0,0.3-0.2,0.5-0.5,0.5h-12.1c-0.3,0-0.5-0.2-0.5-0.5   C206.3,215.2,206.5,215,206.8,215L206.8,215z"/><g><path class="st3" d="M218.9,216.2h-12.1c-0.4,0-0.7-0.3-0.7-0.7c0-0.4,0.3-0.7,0.7-0.7h12.1c0.4,0,0.7,0.3,0.7,0.7    C219.5,215.9,219.2,216.2,218.9,216.2L218.9,216.2z M206.8,215.2v0.7h12.1c0.2,0,0.3-0.2,0.3-0.3L206.8,215.2L206.8,215.2z"/></g><path class="st2" d="M207,216.1h11.6c0.2,0,0.4,0.2,0.4,0.5c0,0.3-0.2,0.5-0.4,0.5H207c-0.2,0-0.4-0.2-0.4-0.5   C206.6,216.3,206.8,216.1,207,216.1L207,216.1z"/><g><path class="st3" d="M218.6,217.3H207c-0.3,0-0.6-0.3-0.6-0.7c0-0.4,0.3-0.7,0.6-0.7h11.6c0.3,0,0.6,0.3,0.6,0.7    C219.2,217,219,217.3,218.6,217.3L218.6,217.3z M207,216.2v0.7h11.6c0.1,0,0.3-0.2,0.3-0.3L207,216.2L207,216.2z"/></g><path class="st3" d="M212.5,211.7c0-0.5,0.7-0.5,0.6,0v1.2h-0.6V211.7L212.5,211.7z"/><path class="st3" d="M216.5,213.3c0-0.5,0.6-0.5,0.6,0v0.9h-0.6V213.3L216.5,213.3z"/><path class="st3" d="M208.5,213.4c0-0.5,0.6-0.5,0.6,0v0.9h-0.6V213.4L208.5,213.4z"/><path class="st2" d="M143,242.7h0.9v0.7h0.7v-0.7h0.9v0.7h0.7v-0.7h0.9v1.5c0,0.2-0.2,0.4-0.4,0.4h-3.3c-0.2,0-0.4-0.2-0.4-0.4   V242.7L143,242.7z"/><g><path class="st3" d="M146.7,244.7h-3.5l-0.4-0.6v-1.5l1.1-0.2l0.2,0.8l0.5-0.2l-0.2-0.5l1.1-0.2l0.2,0.8l0.5-0.2l-0.2-0.5l1.1-0.2    l0.2,1.8L146.7,244.7L146.7,244.7z M143.7,242.7l-0.7,0.2l0.2,1.3l3.5,0.4l0.2-0.4v-1.5l-0.8,0.2l0.2,0.5l-0.8,0.2l-0.2-0.8    l-0.8,0.2l0.2,0.5l-0.8,0.2L143.7,242.7L143.7,242.7z"/></g><polygon class="st2" points="146.4,244.7 146.6,249.5 143.4,249.5 143.6,244.7 146.4,244.7  "/><g><path class="st3" d="M146.8,249.7l-3.4,0l0-5l3-0.2L146.8,249.7L146.8,249.7z M146.2,244.7l-2.6,0.2l0,4.6l2.8-0.2L146.2,244.7    L146.2,244.7z"/></g><path class="st2" d="M146.9,245.1h0.9v0.6h0.6V245h0.9v0.7h0.7V245h0.9v1.5c0,0.2-0.2,0.4-0.4,0.4h-3.2c-0.2,0-0.4-0.2-0.4-0.4   V245.1L146.9,245.1z"/><g><path class="st3" d="M150.6,247.1h-3.4l-0.4-0.6v-1.5l1.1-0.2l0.2,0.8l0.5-0.2l-0.2-0.5l1.1-0.2l0.2,0.8l0.5-0.2l-0.2-0.5l1.1-0.2    l0.2,1.9L150.6,247.1L150.6,247.1z M147.7,245.1l-0.7,0.2l0.2,1.3l3.5,0.4l0.2-0.4V245l-0.7,0.2l0.2,0.5l-0.8,0.2l-0.2-0.8    l-0.7,0.2l0.2,0.5l-0.8,0.2L147.7,245.1L147.7,245.1z"/></g><polygon class="st2" points="150.4,246.9 150.5,249.5 147.4,249.5 147.5,246.9  "/><g><path class="st3" d="M150.7,249.7h-3.3l-0.1-2.8l3.1-0.2L150.7,249.7L150.7,249.7z M150.2,246.9l-2.7,0.2l0.1,2.4l2.7-0.2    L150.2,246.9L150.2,246.9z"/></g><path class="st2" d="M139,245.1h0.9v0.6h0.7v-0.7h0.9v0.7h0.6v-0.7h0.9v1.5c0,0.2-0.2,0.4-0.4,0.4h-3.2c-0.2,0-0.4-0.2-0.4-0.4   V245.1L139,245.1z"/><g><path class="st3" d="M142.7,247.1h-3.4l-0.4-0.6v-1.5l1.1-0.2l0.2,0.8l0.5-0.2l-0.2-0.5l1.1-0.2l0.2,0.8l0.5-0.2l-0.2-0.5l1.1-0.2    l0.2,1.9L142.7,247.1L142.7,247.1z M139.7,245.1l-0.7,0.2l0.2,1.3l3.5,0.4l0.2-0.4v-1.5l-0.7,0.2l0.2,0.5l-0.8,0.2l-0.2-0.8    l-0.7,0.2l0.2,0.5l-0.8,0.2L139.7,245.1L139.7,245.1z"/></g><polygon class="st2" points="142.5,246.9 142.6,249.5 139.5,249.5 139.6,246.9  "/><g><path class="st3" d="M142.8,249.7h-3.3l-0.1-2.8l3.1-0.2L142.8,249.7L142.8,249.7z M142.3,247l-2.7,0.2l0.1,2.4l2.7-0.2L142.3,247    L142.3,247z"/></g><path class="st2" d="M141.9,256.6c0.1-4.1,3-5.1,3-5.1c0,0,3.2,1.1,3.1,5.2L141.9,256.6L141.9,256.6z"/><path class="st2" d="M139.4,251.5l-0.5,4.7h3.1c0-3.9,3-4.6,3-4.6c0.1,0,3,0.9,3.1,4.6h3.1l-0.6-4.8L139.4,251.5L139.4,251.5z"/><g><path class="st3" d="M151.4,256.5h-3.3c-0.3-3.8-3.1-4.6-3.1-4.6c0,0-2.8,0.6-2.8,4.4l-3.3,0.2l0.3-5l11.4-0.2L151.4,256.5    L151.4,256.5z M144.7,251.6l-5.3,0.1l-0.3,4.6l2.9-0.2C141.9,252.9,143.9,251.9,144.7,251.6L144.7,251.6z M145.3,251.6    c0.7,0.3,2.9,1.4,3,4.7l2.7-0.2l-0.5-4.6L145.3,251.6L145.3,251.6z"/></g><path class="st2" d="M138.7,256.3h12.6c0.3,0,0.5,0.3,0.5,0.6s-0.2,0.6-0.5,0.6h-12.6c-0.3,0-0.5-0.3-0.5-0.6   S138.4,256.3,138.7,256.3L138.7,256.3z"/><g><path class="st3" d="M151.3,257.6h-12.6c-0.4,0-0.7-0.3-0.7-0.8c0-0.4,0.3-0.8,0.7-0.8h12.6c0.4,0,0.7,0.3,0.7,0.8    C152,257.3,151.7,257.6,151.3,257.6L151.3,257.6z M138.7,256.5v0.8h12.6c0.2,0,0.3-0.2,0.3-0.4L138.7,256.5L138.7,256.5z"/></g><path class="st2" d="M143.3,256.3c0-2.5,1.7-3.2,1.7-3.2s1.8,0.7,1.8,3.2H143.3L143.3,256.3z"/><g><path class="st3" d="M146.9,256.4l-3.6,0c-0.2-2.7,1.5-3.5,1.7-3.5c0.1,0,1.9,0.8,1.9,3.4L146.9,256.4L146.9,256.4z M144.9,253.3    c0,0-1.4,0.7-1.4,3l3.1-0.2C146.5,254,145,253.3,144.9,253.3L144.9,253.3z"/></g><path class="st2" d="M138.9,249.6h12.1c0.3,0,0.5,0.2,0.5,0.5c0,0.3-0.2,0.5-0.5,0.5h-12.1c-0.3,0-0.5-0.2-0.5-0.5   C138.5,249.8,138.7,249.6,138.9,249.6L138.9,249.6z"/><g><path class="st3" d="M151.1,250.8h-12.1c-0.4,0-0.7-0.3-0.7-0.7c0-0.4,0.3-0.7,0.7-0.7h12.1c0.4,0,0.7,0.3,0.7,0.7    C151.7,250.5,151.4,250.8,151.1,250.8L151.1,250.8z M138.9,249.7v0.7h12.1c0.2,0,0.3-0.2,0.3-0.3L138.9,249.7L138.9,249.7z"/></g><path class="st2" d="M139.2,250.6h11.6c0.3,0,0.5,0.2,0.5,0.5c0,0.3-0.2,0.5-0.5,0.5h-11.6c-0.2,0-0.4-0.2-0.4-0.5   C138.8,250.8,139,250.6,139.2,250.6L139.2,250.6z"/><g><path class="st3" d="M150.8,251.8h-11.6c-0.3,0-0.6-0.3-0.6-0.7c0-0.4,0.3-0.7,0.6-0.7h11.6c0.4,0,0.6,0.3,0.6,0.7    C151.4,251.5,151.1,251.8,150.8,251.8L150.8,251.8z M139.2,250.8v0.7h11.6c0.1,0,0.3-0.2,0.3-0.3L139.2,250.8L139.2,250.8z"/></g><path class="st3" d="M144.7,246.2c0-0.5,0.6-0.5,0.6,0v1.1h-0.6V246.2L144.7,246.2z"/><path class="st3" d="M148.7,247.9c0-0.5,0.6-0.5,0.6,0v0.9h-0.6V247.9L148.7,247.9z"/><path class="st3" d="M140.7,247.9c0-0.5,0.6-0.5,0.6,0v0.9h-0.6V247.9L140.7,247.9z"/><path class="st2" d="M208.8,279.2l0.6,0.6l-0.5,0.5l0.5,0.5l0.5-0.5l0.7,0.7l-0.5,0.5l0.5,0.5l0.5-0.5l0.7,0.7l-1.1,1.1   c-0.2,0.2-0.4,0.1-0.6,0l-2.3-2.3c-0.2-0.2-0.2-0.4,0-0.6L208.8,279.2L208.8,279.2z"/><g><path class="st3" d="M210.4,283.5l-0.4-0.2l-2.5-2.5l0.1-0.7l1.1-1.1l0.9,0.6l-0.5,0.7l0.5,0.2l0.2-0.5l0.9,0.7l-0.5,0.7l0.5,0.2    l0.2-0.5l0.9,0.7L210.4,283.5L210.4,283.5z M208.7,279.3l-0.8,1l2.5,2.9l0.1-0.2l1.1-1.1l-0.7-0.4l-0.2,0.5l-0.7-0.5l0.5-0.7    l-0.7-0.4l-0.2,0.5l-0.7-0.5l0.5-0.7L208.7,279.3L208.7,279.3z"/></g><polygon class="st2" points="209.8,283.1 206.5,286.6 204.3,284.3 207.8,281.1  "/><g><path class="st3" d="M206.5,286.9l-2.4-2.4l3.6-3.5l2.2,2L206.5,286.9L206.5,286.9z M207.7,281.2l-3.3,3.3l2.1,1.9l3.1-3.4    L207.7,281.2L207.7,281.2z"/></g><path class="st2" d="M209.9,283.7l0.6,0.6l-0.5,0.5l0.5,0.5l0.5-0.5l0.6,0.6l-0.5,0.5l0.5,0.5l0.5-0.5l0.6,0.6l-1.1,1.1   c-0.2,0.2-0.4,0.1-0.6,0l-2.3-2.3c-0.2-0.2-0.2-0.4,0-0.6L209.9,283.7L209.9,283.7z"/><g><path class="st3" d="M211.5,287.9l-0.4-0.2l-2.4-2.4l0.1-0.7l1.1-1.1l0.9,0.6l-0.5,0.7l0.5,0.2l0.2-0.5l0.9,0.6l-0.5,0.7l0.5,0.2    l0.2-0.5l0.9,0.6L211.5,287.9L211.5,287.9z M209.8,283.8l-0.8,1l2.5,2.8l0.1-0.2l1.1-1.1L212,286l-0.2,0.5l-0.7-0.5l0.5-0.7    l-0.6-0.4l-0.2,0.5l-0.7-0.5l0.5-0.7L209.8,283.8L209.8,283.8z"/></g><polygon class="st2" points="211.1,287.5 209.3,289.4 207.1,287.2 209,285.4 211.1,287.5  "/><g><path class="st3" d="M209.3,289.6l-2.3-2.3l1.9-2l2.3,2.1L209.3,289.6L209.3,289.6z M208.9,285.5l-1.6,1.8l2,1.8l1.6-1.8    L208.9,285.5L208.9,285.5z"/></g><path class="st2" d="M204.3,278.1l0.6,0.6l-0.5,0.5l0.5,0.5l0.5-0.5l0.6,0.6l-0.5,0.5l0.5,0.5l0.5-0.5l0.6,0.6l-1.1,1.1   c-0.2,0.2-0.4,0.1-0.6,0l-2.3-2.3c-0.2-0.1-0.2-0.4,0-0.6L204.3,278.1L204.3,278.1z"/><g><path class="st3" d="M205.9,282.3l-0.4-0.2l-2.3-2.4l0-0.8l1-1.1l0.9,0.6l-0.5,0.7l0.5,0.2l0.2-0.5l0.9,0.6l-0.5,0.7l0.5,0.2    l0.2-0.5l0.9,0.6L205.9,282.3L205.9,282.3z M204.2,278.2l-0.8,1.1l2.5,2.8l0.1-0.2l1.1-1.1l-0.6-0.4l-0.2,0.5l-0.7-0.5l0.5-0.7    l-0.6-0.4l-0.2,0.5l-0.7-0.5l0.5-0.7L204.2,278.2L204.2,278.2z"/></g><polygon class="st2" points="205.4,281.8 203.7,283.8 201.5,281.6 203.4,279.8  "/><g><path class="st3" d="M203.7,284l-2.3-2.3l1.9-2l2.3,2L203.7,284L203.7,284z M203.3,279.9l-1.6,1.8l2,1.8l1.6-1.8L203.3,279.9    L203.3,279.9z"/></g><path class="st2" d="M198.3,288.3c3-2.8,5.7-1.5,5.8-1.5c0,0,1.5,3-1.4,5.9L198.3,288.3L198.3,288.3z"/><path class="st2" d="M200,282.9l-3.7,3l2.2,2.2c2.8-2.8,5.3-1.1,5.4-1.1c0,0,1.5,2.7-1.1,5.4l2.2,2.2l3-3.8L200,282.9L200,282.9z"/><g><path class="st3" d="M205,294.9l-2.3-2.3c2.4-2.8,1.1-5.3,1-5.4l0,0c0,0-0.7-0.5-1.8-0.5c-1.2,0-2.3,0.5-3.3,1.5l-2.4-2.2l3.7-3.3    l8.2,7.9L205,294.9L205,294.9z M204.2,287.2c0.1,0.3,0.3,0.8,0.3,1.4c0.1,1-0.1,2.5-1.5,4l2,1.8l2.8-3.6L204.2,287.2L204.2,287.2z     M199.9,283l-3.5,3l2.2,1.9c1.4-1.8,4.1-1.7,5-1.3L199.9,283L199.9,283z"/></g><path class="st2" d="M196.2,285.8l8.9,8.9c0.2,0.2,0.2,0.5-0.1,0.8c-0.2,0.2-0.6,0.3-0.8,0.1l-8.9-8.9c-0.2-0.2-0.2-0.5,0.1-0.8   C195.6,285.6,196,285.6,196.2,285.8L196.2,285.8z"/><g><path class="st3" d="M204.6,295.9l-0.4-0.2l-8.9-8.9c-0.3-0.3-0.2-0.7,0.1-1l0.6-0.3l9.4,9.1c0.3,0.3,0.2,0.7-0.1,1L204.6,295.9    L204.6,295.9z M195.5,286.5l9.1,9.2l0.3-0.3l-8.9-9.4l-0.7,0.7L195.5,286.5L195.5,286.5z"/></g><path class="st2" d="M199.4,289c1.8-1.7,3.4-1,3.5-1c0,0,0.7,1.7-1,3.5L199.4,289L199.4,289z"/><g><path class="st3" d="M201.9,291.7l-2.6-2.6c1.9-2.4,3.6-1.4,3.6-1.3c0.2,0.2,0.8,2-0.9,3.8L201.9,291.7L201.9,291.7z M202,288    c-0.6,0-1.5,0.2-2.4,1.1l2.3,2.1c1.4-1.5,0.9-2.9,0.8-3.1C202.7,288.1,202.4,288,202,288L202,288z"/></g><path class="st2" d="M201.1,281.2l8.6,8.6c0.2,0.2,0.2,0.5,0,0.7c-0.2,0.2-0.5,0.2-0.7,0l-8.6-8.6c-0.2-0.2-0.2-0.5,0-0.7   C200.6,281,200.9,281,201.1,281.2L201.1,281.2z"/><g><path class="st3" d="M209.3,290.8l-0.5-0.2l-8.6-8.6c-0.3-0.3-0.2-0.7,0-1l1,0l8.6,8.6c0.2,0.2,0.2,0.7,0,1L209.3,290.8    L209.3,290.8z M201,281.3l-0.5,0.5l8.8,8.8l0.2-0.3L201,281.3L201,281.3z"/></g><path class="st2" d="M200.5,282.1l8.2,8.2c0.2,0.2,0.1,0.5-0.1,0.7c-0.2,0.2-0.5,0.2-0.7,0l-8.2-8.2c-0.2-0.2-0.1-0.5,0.1-0.7   C200.1,282,200.4,282,200.5,282.1L200.5,282.1z"/><g><path class="st3" d="M208.3,291.4l-0.4-0.2l-8.2-8.2c-0.2-0.2-0.2-0.7,0.1-0.9l0.9-0.1l8.2,8.2c0.2,0.2,0.2,0.7-0.1,0.9    L208.3,291.4L208.3,291.4z M200.4,282.3l-0.5,0.5l8.4,8.5l0.3-0.3L200.4,282.3L200.4,282.3z"/></g><path class="st3" d="M207.5,282.8c0.3-0.3,0.8,0.1,0.5,0.5l-0.8,0.8l-0.5-0.5L207.5,282.8L207.5,282.8z"/><path class="st3" d="M209.1,286.8c0.3-0.3,0.8,0.1,0.4,0.4l-0.6,0.6l-0.4-0.4L209.1,286.8L209.1,286.8z"/><path class="st3" d="M203.5,281.2c0.3-0.3,0.8,0.1,0.4,0.4l-0.6,0.6l-0.4-0.4L203.5,281.2L203.5,281.2z"/><path class="st2" d="M210.7,242.7h0.9v0.6h0.7v-0.7h0.9v0.7h0.7v-0.7h0.9v1.5c0,0.2-0.2,0.4-0.4,0.4h-3.3c-0.2,0-0.4-0.2-0.4-0.4   V242.7L210.7,242.7z"/><g><path class="st3" d="M214.4,244.8H211l-0.4-0.6v-1.5l1.1-0.2l0.2,0.8l0.5-0.2l-0.2-0.5l1.1-0.2l0.2,0.8l0.5-0.2l-0.2-0.5l1.1-0.2    l0.2,1.9L214.4,244.8L214.4,244.8z M211.4,242.7l-0.7,0.2l0.2,1.3l3.5,0.4l0.2-0.4v-1.5l-0.8,0.2l0.2,0.5l-0.9,0.2l-0.2-0.8    l-0.8,0.2l0.2,0.5l-0.8,0.2L211.4,242.7L211.4,242.7z"/></g><polygon class="st2" points="214.2,244.7 214.4,249.5 211.2,249.5 211.4,244.7  "/><g><path class="st3" d="M214.6,249.7l-3.4,0l0-5l3-0.2L214.6,249.7L214.6,249.7z M214,244.7l-2.6,0.2l0,4.6l2.8-0.2L214,244.7    L214,244.7z"/></g><path class="st2" d="M214.7,245.1h0.9v0.6h0.6v-0.7h0.9v0.7h0.7v-0.7h0.9v1.5c0,0.2-0.2,0.4-0.4,0.4h-3.2c-0.2,0-0.4-0.2-0.4-0.4   V245.1L214.7,245.1z"/><g><path class="st3" d="M218.3,247.1h-3.4l-0.4-0.6v-1.5l1.1-0.2l0.2,0.8l0.5-0.2l-0.2-0.5l1.1-0.2l0.2,0.8l0.5-0.2l-0.2-0.5l1.1-0.2    l0.2,1.9L218.3,247.1L218.3,247.1z M215.4,245.1l-0.7,0.2l0.2,1.3l3.5,0.4l0.2-0.4v-1.5l-0.7,0.2l0.2,0.5l-0.8,0.2l-0.2-0.8    l-0.7,0.2l0.2,0.5l-0.8,0.2L215.4,245.1L215.4,245.1z"/></g><polygon class="st2" points="218.2,246.9 218.3,249.5 215.2,249.5 215.3,246.9  "/><g><path class="st3" d="M218.4,249.7h-3.3l-0.1-2.8l3.1-0.2L218.4,249.7L218.4,249.7z M218,247l-2.7,0.2l0.1,2.4l2.7-0.2L218,247    L218,247z"/></g><path class="st2" d="M206.8,245.1h0.9v0.6h0.7v-0.7h0.9v0.7h0.7v-0.7h0.9v1.5c0,0.2-0.2,0.4-0.4,0.4h-3.2c-0.2,0-0.4-0.2-0.4-0.4   V245.1L206.8,245.1z"/><g><path class="st3" d="M210.4,247.1H207l-0.4-0.6v-1.5l1.1-0.2l0.2,0.8l0.5-0.2l-0.2-0.5l1.1-0.2l0.2,0.8l0.5-0.2l-0.2-0.5l1.1-0.2    l0.2,1.9L210.4,247.1L210.4,247.1z M207.5,245.1l-0.7,0.2l0.2,1.3l3.4,0.4l0.2-0.4v-1.5l-0.7,0.2l0.2,0.5l-0.8,0.2l-0.2-0.8    l-0.7,0.2l0.2,0.5l-0.8,0.2L207.5,245.1L207.5,245.1z"/></g><polygon class="st2" points="210.3,247 210.3,249.5 207.3,249.6 207.4,246.9  "/><g><path class="st3" d="M207.1,249.7l0.1-2.8l3.1-0.2l0.3,2.8L207.1,249.7L207.1,249.7z M210.1,247l-2.7,0.2l0.1,2.2l2.9,0L210.1,247    L210.1,247z"/></g><path class="st2" d="M209.7,256.6c0.1-4.1,3-5.1,3-5.1c0,0,3.2,1,3.1,5.1L209.7,256.6L209.7,256.6z"/><path class="st2" d="M207.2,251.5l-0.5,4.7l3.1,0c0-3.9,3-4.6,3-4.6c0.1,0,3,0.9,3.1,4.6h3.1l-0.6-4.8L207.2,251.5L207.2,251.5z"/><g><path class="st3" d="M219.1,256.5h-3.3c-0.3-3.8-3-4.6-3.1-4.6c0,0-2.8,0.6-2.8,4.4l-3.3,0.2l0.3-4.9l11.4-0.2L219.1,256.5    L219.1,256.5z M212.4,251.6l-5.3,0.1l-0.3,4.6l2.9-0.2C209.6,252.9,211.6,251.9,212.4,251.6L212.4,251.6z M213.1,251.6    c0.8,0.3,2.9,1.5,2.9,4.7l2.7-0.2l-0.5-4.6L213.1,251.6L213.1,251.6z"/></g><path class="st2" d="M206.5,256.3h12.6c0.3,0,0.5,0.3,0.5,0.6c0,0.3-0.2,0.6-0.5,0.6h-12.6c-0.3,0-0.5-0.3-0.5-0.6   C206,256.6,206.2,256.3,206.5,256.3L206.5,256.3z"/><g><path class="st3" d="M219.1,257.6h-12.6c-0.4,0-0.7-0.3-0.7-0.8c0-0.4,0.3-0.8,0.7-0.8h12.6c0.4,0,0.7,0.3,0.7,0.8    C219.8,257.3,219.5,257.6,219.1,257.6L219.1,257.6z M206.5,256.5v0.8h12.6c0.2,0,0.3-0.2,0.3-0.4L206.5,256.5L206.5,256.5z"/></g><path class="st2" d="M211,256.3c0-2.5,1.7-3.2,1.7-3.2s1.8,0.7,1.8,3.2H211L211,256.3z"/><g><path class="st3" d="M214.7,256.5H211c-0.2-2.8,1.6-3.5,1.6-3.5c0.2,0,2,0.8,2,3.3V256.5L214.7,256.5z M212.7,253.3    c0.1,0-1.4,0.7-1.4,3l3.1-0.2C214.2,254,212.7,253.3,212.7,253.3L212.7,253.3z"/></g><path class="st2" d="M206.7,249.6h12.1c0.3,0,0.5,0.2,0.5,0.5c0,0.3-0.2,0.5-0.5,0.5h-12.1c-0.3,0-0.5-0.2-0.5-0.5   C206.2,249.8,206.5,249.6,206.7,249.6L206.7,249.6z"/><g><path class="st3" d="M218.8,250.8h-12.1c-0.4,0-0.7-0.3-0.7-0.7c0-0.4,0.3-0.7,0.7-0.7h12.1c0.4,0,0.7,0.3,0.7,0.7    C219.5,250.5,219.2,250.8,218.8,250.8L218.8,250.8z M206.7,249.8v0.7h12.1c0.2,0,0.3-0.2,0.3-0.3L206.7,249.8L206.7,249.8z"/></g><path class="st2" d="M207,250.6h11.6c0.2,0,0.4,0.2,0.4,0.5c0,0.3-0.2,0.5-0.4,0.5H207c-0.2,0-0.4-0.2-0.4-0.5   C206.5,250.9,206.7,250.6,207,250.6L207,250.6z"/><g><path class="st3" d="M218.6,251.9H207c-0.3,0-0.6-0.3-0.6-0.7c0-0.4,0.3-0.7,0.6-0.7h11.6c0.4,0,0.6,0.3,0.6,0.7    C219.2,251.5,218.9,251.9,218.6,251.9L218.6,251.9z M207,250.8v0.7h11.6c0.1,0,0.3-0.2,0.3-0.3L207,250.8L207,250.8z"/></g><path class="st3" d="M212.5,246.2c0-0.5,0.6-0.5,0.6,0v1.2h-0.6V246.2L212.5,246.2z"/><path class="st3" d="M216.4,247.9c0-0.5,0.6-0.5,0.6,0v0.9h-0.6V247.9L216.4,247.9z"/><path class="st3" d="M208.5,247.9c0-0.4,0.6-0.5,0.6,0v0.9h-0.6V247.9L208.5,247.9z"/><path class="st2" d="M146.3,282.1l0.6-0.6l0.5,0.5l0.5-0.5l-0.5-0.5l0.7-0.7l0.5,0.5l0.5-0.5l-0.5-0.5l0.7-0.7l1.1,1.1   c0.2,0.2,0.1,0.4,0,0.6l-2.3,2.3c-0.2,0.2-0.4,0.2-0.6,0L146.3,282.1L146.3,282.1z"/><g><path class="st3" d="M147.6,283.4l-0.4-0.2l-1-1l0.6-0.9l0.7,0.5l0.2-0.5l-0.5-0.2l0.7-0.9l0.7,0.5l0.2-0.5l-0.5-0.2l0.7-0.9    l1.5,1.2l-0.1,0.7L147.6,283.4L147.6,283.4z M146.8,281.5l-0.4,0.6l1.2,1l0.2-0.3l2.3-2.3l-1-1.4l-0.4,0.7l0.5,0.2l-0.5,0.7    l-0.7-0.5l-0.4,0.7l0.5,0.2l-0.5,0.7L146.8,281.5L146.8,281.5z"/></g><polygon class="st2" points="150.2,281 153.7,284.3 151.4,286.6 148.2,283  "/><g><path class="st3" d="M151.4,286.8l-3.4-3.7l2-2.2l3.8,3.3L151.4,286.8L151.4,286.8z M150,281.2l-1.7,2l3.1,3.1l2.1-2.1L150,281.2    L150,281.2z"/></g><path class="st2" d="M150.8,280.9l0.6-0.6l0.5,0.5l0.5-0.5l-0.5-0.5l0.6-0.6l0.5,0.5l0.5-0.5l-0.5-0.5l0.7-0.6l1.1,1.1   c0.2,0.2,0.1,0.4,0,0.6l-2.3,2.3c-0.2,0.1-0.4,0.2-0.6,0L150.8,280.9L150.8,280.9z"/><g><path class="st3" d="M152.1,282.2l-0.4-0.2l-1-1l0.6-0.9l0.7,0.5l0.2-0.5l-0.5-0.2l0.6-0.9l0.7,0.5l0.2-0.5l-0.5-0.2l0.7-0.9    l1.3,1.2l0,0.7L152.1,282.2L152.1,282.2z M151.3,280.4l-0.4,0.6l1.2,1l0.2-0.3l2.3-2.3l-1-1.4l-0.4,0.6l0.5,0.2l-0.5,0.7l-0.7-0.5    l-0.4,0.6l0.5,0.2l-0.5,0.7L151.3,280.4L151.3,280.4z"/></g><polygon class="st2" points="154.6,279.8 156.5,281.5 154.3,283.7 152.5,281.8  "/><g><path class="st3" d="M154.3,284l-1.9-2l2.1-2.3l2.2,1.8L154.3,284L154.3,284z M154.4,279.9l-1.8,2l1.6,1.5l2-2L154.4,279.9    L154.4,279.9z"/></g><path class="st2" d="M145.2,286.5l0.6-0.6l0.5,0.5l0.5-0.5l-0.5-0.5l0.6-0.6l0.5,0.5l0.5-0.5l-0.5-0.5l0.6-0.6l1.1,1.1   c0.2,0.2,0.1,0.4,0,0.6l-2.3,2.3c-0.1,0.2-0.4,0.2-0.6,0L145.2,286.5L145.2,286.5z"/><g><path class="st3" d="M146.5,287.8l-0.4-0.2l-1.1-1l0.6-0.9l0.7,0.5l0.2-0.5l-0.5-0.2l0.6-0.9l0.7,0.5l0.2-0.5l-0.5-0.2l0.6-0.9    l1.3,1.1l0,0.7L146.5,287.8L146.5,287.8z M145.7,286l-0.4,0.6l1.2,1l0.2-0.3l2.3-2.3l-1.1-1.3l-0.4,0.6l0.5,0.2l-0.5,0.7l-0.7-0.5    l-0.4,0.6l0.5,0.2l-0.5,0.7L145.7,286L145.7,286z"/></g><polygon class="st2" points="149,285.4 150.9,287.2 148.7,289.3 146.9,287.4  "/><g><path class="st3" d="M148.7,289.6l-1.9-2l2-2.3l2.2,1.8L148.7,289.6L148.7,289.6z M148.8,285.5l-1.8,2l1.6,1.5l2-2L148.8,285.5    L148.8,285.5z"/></g><path class="st2" d="M155.4,292.6c-2.8-3-1.5-5.7-1.5-5.8c0,0,3-1.5,5.9,1.4L155.4,292.6L155.4,292.6z"/><path class="st2" d="M150,290.8l3,3.7l2.2-2.2c-2.8-2.8-1.1-5.3-1.1-5.4c0,0,2.7-1.5,5.4,1.1l2.2-2.2l-3.8-3L150,290.8L150,290.8z"/><g><path class="st3" d="M153,294.8l-3.1-3.9l7.9-8.2l4,3l-2.2,2.5c-1.3-1-2.4-1.5-3.6-1.5c-1.1,0-1.8,0.4-1.8,0.4l0,0    c0,0-1.5,2.4,1.1,5.1L153,294.8L153,294.8z M153.8,287.2l-3.6,3.8l2.9,3.3l2-2c-1.6-1.3-1.7-2.8-1.6-3.8    C153.5,287.9,153.6,287.4,153.8,287.2L153.8,287.2z M156,286.3c1.3,0,2.5,0.5,3.6,1.6l1.9-2.2l-3.7-2.7l-3.6,3.7    C154.6,286.5,155.2,286.3,156,286.3L156,286.3z"/></g><path class="st2" d="M152.9,294.7l8.9-8.9c0.2-0.2,0.5-0.2,0.8,0.1c0.2,0.2,0.3,0.6,0.1,0.8l-8.9,8.9c-0.2,0.2-0.5,0.2-0.7-0.1   C152.7,295.2,152.7,294.9,152.9,294.7L152.9,294.7z"/><g><path class="st3" d="M153.4,295.8l-0.6-0.3c-0.2-0.2-0.3-0.8-0.1-1l8.9-8.9c0.7-0.2,0.9-0.1,1,0.1c0.2,0.2,0.3,0.8,0.1,1    L153.4,295.8L153.4,295.8z M162.1,285.8l-9.1,9l-0.1,0.6l0.4,0.2l0.2-0.2l9-9l0.1-0.6L162.1,285.8L162.1,285.8z"/></g><path class="st2" d="M156.1,291.4c-1.7-1.8-1-3.4-1-3.4s1.7-0.7,3.5,1L156.1,291.4L156.1,291.4z"/><g><path class="st3" d="M156.1,291.7l-0.1-0.1c-1.8-1.8-1.1-3.6-1.1-3.6c0.2-0.2,1.9-0.9,3.8,0.9L156.1,291.7L156.1,291.7z     M155.1,288.1c0.1,0-0.5,1.4,1,3l2.3-2.3C156.7,287.6,155.2,288.1,155.1,288.1L155.1,288.1L155.1,288.1z"/></g><path class="st2" d="M148.3,289.7l8.6-8.6c0.2-0.2,0.5-0.2,0.7,0c0.2,0.2,0.2,0.5,0,0.7l-8.6,8.6c-0.2,0.2-0.5,0.2-0.7,0   C148.1,290.2,148.1,289.9,148.3,289.7L148.3,289.7z"/><g><path class="st3" d="M148.7,290.8l-0.5-0.3l0-0.9l8.6-8.6l1,0c0.3,0.3,0.3,0.7,0,1L148.7,290.8L148.7,290.8z M148.7,290.4v0.2    l0.2-0.3l8.6-8.6l0.1-0.6l-0.4,0l-8.8,8.6l-0.1,0.6L148.7,290.4L148.7,290.4z"/></g><path class="st2" d="M149.2,290.3l8.2-8.2c0.2-0.2,0.5-0.2,0.7,0c0.2,0.2,0.2,0.5,0.1,0.7L150,291c-0.2,0.2-0.5,0.1-0.7-0.1   C149.1,290.8,149.1,290.5,149.2,290.3L149.2,290.3z"/><g><path class="st3" d="M149.7,291.3l-0.5-0.2c-0.3-0.3-0.3-0.7-0.1-0.9l8.2-8.2l1,0.1c0.3,0.3,0.3,0.7,0.1,1L149.7,291.3    L149.7,291.3z M149.7,291v0.2l0.2-0.2l8.2-8.2l0.1-0.6l-0.4,0l-8.4,8.3l-0.1,0.6L149.7,291L149.7,291z"/></g><path class="st3" d="M150,283.2c-0.3-0.3,0.1-0.8,0.5-0.5l0.8,0.8l-0.5,0.5L150,283.2L150,283.2z"/><path class="st3" d="M154,281.6c-0.3-0.3,0.1-0.8,0.4-0.4l0.6,0.6l-0.4,0.4L154,281.6L154,281.6z"/><path class="st3" d="M148.4,287.2c-0.3-0.3,0.1-0.8,0.4-0.4l0.6,0.6l-0.4,0.4L148.4,287.2L148.4,287.2z"/></g></svg>