<?xml version="1.0" encoding="utf-8"?>
<!-- Generator: Adobe Illustrator 21.1.0, SVG Export Plug-In . SVG Version: 6.00 Build 0)  -->
<svg version="1.1" id="Layer_1" xmlns="http://www.w3.org/2000/svg" xmlns:xlink="http://www.w3.org/1999/xlink" x="0px" y="0px"
	 viewBox="0 0 512 298.7" style="enable-background:new 0 0 512 298.7;" xml:space="preserve">
<style type="text/css">
	.st0{fill:#FFFFFF;}
	.st1{fill:#BD0034;}
	.st2{fill:#1A237B;}
</style>
<g>
	<rect class="st0" width="512" height="298.7"/>
	<polygon class="st1" points="342.8,108 512,13.2 512,0 500.3,0 307.4,108 	"/>
	<polygon class="st1" points="334.8,196.7 512,295.8 512,276 370.2,196.7 	"/>
	<polygon class="st1" points="0,22.7 151.5,108 187,108 0,2.8 	"/>
	<polygon class="st1" points="178.9,196.7 0,296.9 0,298.7 32.3,298.7 214.4,196.7 	"/>
	<polygon class="st2" points="477,0 297.7,0 297.7,100.4 	"/>
	<polygon class="st2" points="218.5,0 40,0 218.5,100.4 	"/>
	<polygon class="st2" points="512,108 512,39.4 390.4,108 	"/>
	<polygon class="st2" points="512,264.4 512,196.7 390.4,196.7 	"/>
	<polygon class="st2" points="50.1,298.7 218.5,298.7 218.5,204.2 	"/>
	<polygon class="st2" points="297.7,298.7 466.6,298.7 297.7,204.2 	"/>
	<polygon class="st2" points="0,196.7 0,267.5 125.8,196.7 	"/>
	<polygon class="st2" points="0,108 125.8,108 0,37 	"/>
	<polygon class="st1" points="234.4,0 234.4,125.7 0,125.7 0,178.9 234.4,178.9 234.4,298.7 281.9,298.7 281.9,178.9 512,178.9 
		512,125.7 281.9,125.7 281.9,0 	"/>
</g>
</svg>
