<?xml version="1.0" encoding="utf-8"?>
<!-- Generator: Adobe Illustrator 21.1.0, SVG Export Plug-In . SVG Version: 6.00 Build 0)  -->
<svg version="1.1" id="Layer_1" xmlns="http://www.w3.org/2000/svg" xmlns:xlink="http://www.w3.org/1999/xlink" x="0px" y="0px"
	 viewBox="0 0 512 298.7" style="enable-background:new 0 0 512 298.7;" xml:space="preserve">
<style type="text/css">
	.st0{fill:#2C2A7C;}
	.st1{fill:#FFFFFF;}
	.st2{fill:#E91E26;}
</style>
<g id="XMLID_1_">
	<rect id="XMLID_16_" class="st0" width="512" height="298.7"/>
	<polygon id="XMLID_15_" class="st1" points="134.7,182.9 142.5,207.2 166.3,198.2 152.2,219.4 174.1,232.3 148.7,234.6 
		152.2,259.8 134.7,241.3 117.2,259.8 120.7,234.6 95.3,232.3 117.2,219.4 103.1,198.2 126.9,207.2 	"/>
	<polygon id="XMLID_14_" class="st1" points="404.1,226.6 407.8,238.1 419.1,233.8 412.4,243.9 422.9,250.1 410.8,251.1 
		412.4,263.1 404.1,254.3 395.7,263.1 397.4,251.1 385.3,250.1 395.8,243.9 389,233.8 400.4,238.1 	"/>
	<polygon id="XMLID_13_" class="st1" points="336.7,119.9 340.5,131.5 351.8,127.2 345.1,137.3 355.5,143.4 343.4,144.5 
		345.1,156.5 336.7,147.7 328.4,156.5 330.1,144.5 318,143.4 328.4,137.3 321.7,127.2 333,131.5 	"/>
	<polygon id="XMLID_12_" class="st1" points="404.1,47 407.8,58.5 419.1,54.2 412.4,64.3 422.9,70.5 410.8,71.6 412.4,83.6 
		404.1,74.8 395.7,83.6 397.4,71.6 385.3,70.5 395.8,64.3 389,54.2 400.4,58.5 	"/>
	<polygon id="XMLID_11_" class="st1" points="464,102 467.7,113.5 479,109.2 472.3,119.3 482.7,125.5 470.6,126.6 472.3,138.6 
		464,129.8 455.6,138.6 457.3,126.6 445.2,125.5 455.6,119.3 448.9,109.2 460.2,113.5 	"/>
	<polygon id="XMLID_10_" class="st1" points="431,156 434,163.2 441.7,163.8 435.8,168.8 437.6,176.3 431,172.2 424.4,176.3 
		426.3,168.8 420.4,163.8 428.1,163.2 	"/>
	<polygon id="XMLID_9_" class="st1" points="112.2,0 112.2,44.9 0,44.9 0,89.8 112.2,89.8 112.2,134.7 157.1,134.7 157.1,89.8 
		269.4,89.8 269.4,44.9 157.1,44.9 157.1,0 	"/>
	<polygon id="XMLID_8_" class="st1" points="0,0 0,15 239.3,134.7 269.4,134.7 269.4,119.6 30.1,0 	"/>
	<polygon id="XMLID_7_" class="st1" points="239.3,0 0,119.6 0,134.7 30.1,134.7 269.4,15 269.4,0 	"/>
	<polygon id="XMLID_6_" class="st2" points="121.2,0 121.2,53.8 0,53.8 0,80.8 121.2,80.8 121.2,134.7 148.2,134.7 148.2,80.8 
		269.4,80.8 269.4,53.8 148.2,53.8 148.2,0 	"/>
	<path class="st2" d="M0,0v10l69.7,34.8h20.1L0,0z M249.3,0l-89.8,44.9h20.1L269.4,0C269.4,0,249.3,0,249.3,0z"/>
	<path class="st2" d="M89.8,89.8L0,134.7h20.1l89.8-44.9H89.8z M179.6,89.8l89.8,44.9v-10l-69.7-34.9H179.6z"/>
</g>
</svg>
