<?xml version="1.0" encoding="utf-8"?>
<!-- Generator: Adobe Illustrator 21.1.0, SVG Export Plug-In . SVG Version: 6.00 Build 0)  -->
<svg version="1.1" id="Layer_1" xmlns="http://www.w3.org/2000/svg" xmlns:xlink="http://www.w3.org/1999/xlink" x="0px" y="0px"
	 viewBox="0 0 512 298.7" style="enable-background:new 0 0 512 298.7;" xml:space="preserve">
<style type="text/css">
	.st0{fill:#2D2F76;}
	.st1{fill:#FFFFFF;}
	.st2{fill:#BD1F38;}
</style>
<g>
	<polygon class="st0" points="256.1,0 256.1,9.4 256.1,12.7 256.1,14.2 199.3,42.6 256.1,42.6 256.1,51.2 256.1,64 256.1,76.8 
		256.1,85.3 199.3,85.3 256.1,113.7 256.1,118.5 256.1,128 256.1,128.8 238.6,128.8 232.1,128.8 229.1,128.8 149.3,88.9 
		149.3,128.8 140.8,128.8 128,128.8 115.2,128.8 106.7,128.8 106.7,88.9 26.9,128.8 17.4,128.8 0,128.8 0,298.7 512,298.7 512,0 	
		"/>
	<polygon class="st0" points="0,85.3 0,113.7 56.7,85.3 	"/>
	<polygon class="st0" points="149.3,0 149.3,39 227.4,0 	"/>
	<polygon class="st0" points="106.7,0 28.6,0 106.7,39 	"/>
	<polygon class="st0" points="0,42.6 56.7,42.6 0,14.3 	"/>
	<polygon class="st1" points="256,0 170.7,42.6 151.6,42.6 236.9,0 227.4,0 149.3,39 149.3,0 140.8,0 140.8,43.2 140.8,48 
		140.8,51.2 153.6,51.2 172.7,51.2 179.2,51.2 182.2,51.2 256.1,51.2 256.1,42.6 199.3,42.6 256.1,14.2 256.1,12.7 256.1,9.4 
		256.1,0 	"/>
	<polygon class="st1" points="106.7,0 106.7,39 28.6,0 0,0 85.3,42.6 66.3,42.6 0,9.5 0,14.3 56.7,42.6 0,42.6 0,51.2 73.8,51.2 
		83.3,51.2 102.4,51.2 115.2,51.2 115.2,48 115.2,44.8 115.2,43.2 115.2,0 	"/>
	<polygon class="st1" points="172.7,76.8 153.6,76.8 140.8,76.8 140.8,79.9 140.8,83.2 140.8,84.7 140.8,128.8 149.3,128.8 
		149.3,88.9 229.1,128.8 232.1,128.8 238.6,128.8 256.1,128.8 256.1,128 170.7,85.3 189.7,85.3 256.1,118.5 256.1,113.7 199.3,85.3 
		256.1,85.3 256.1,76.8 182.2,76.8 	"/>
	<polygon class="st1" points="102.4,76.8 83.3,76.8 76.8,76.8 73.8,76.8 0,76.8 0,85.3 56.7,85.3 0,113.7 0,128 85.3,85.3 
		104.4,85.3 17.4,128.8 26.9,128.8 106.7,88.9 106.7,128.8 115.2,128.8 115.2,84.7 115.2,79.9 115.2,76.8 	"/>
	<polygon class="st2" points="85.3,85.3 0,128 0,128.8 17.4,128.8 104.4,85.3 	"/>
	<polygon class="st2" points="0,9.5 66.3,42.6 85.3,42.6 0,0 	"/>
	<polygon class="st2" points="256,0 236.9,0 151.6,42.6 170.7,42.6 	"/>
	<polygon class="st2" points="170.7,85.3 256.1,128 256.1,118.5 189.7,85.3 	"/>
	<polygon class="st2" points="115.2,0 115.2,43.2 115.2,44.8 115.2,48 115.2,51.2 102.4,51.2 83.3,51.2 73.8,51.2 0,51.2 0,76.8 
		73.8,76.8 76.8,76.8 83.3,76.8 102.4,76.8 115.2,76.8 115.2,79.9 115.2,84.7 115.2,128.8 128,128.8 140.8,128.8 140.8,84.7 
		140.8,83.2 140.8,79.9 140.8,76.8 153.6,76.8 172.7,76.8 182.2,76.8 256.1,76.8 256.1,64 256.1,51.2 182.2,51.2 179.2,51.2 
		172.7,51.2 153.6,51.2 140.8,51.2 140.8,48 140.8,43.2 140.8,0 	"/>
	<polygon class="st1" points="355.4,87.1 369.3,87.1 373.6,73.9 377.9,87.1 391.8,87.1 380.6,95.3 384.9,108.5 373.6,100.4 
		362.4,108.5 366.7,95.3 	"/>
	<polygon class="st2" points="361.6,89.1 370.8,89.1 373.6,80.4 376.5,89.1 385.7,89.1 378.2,94.5 381.1,103.3 373.6,97.9 
		366.2,103.3 369,94.5 	"/>
	<polygon class="st1" points="299.8,143.1 313.7,143.1 318,129.9 322.3,143.1 336.2,143.1 324.9,151.3 329.2,164.5 318,156.3 
		306.7,164.5 311,151.3 	"/>
	<polygon class="st2" points="305.9,145.1 315.1,145.1 318,136.4 320.8,145.1 330,145.1 322.6,150.5 325.4,159.3 318,153.9 
		310.5,159.3 313.4,150.5 	"/>
	<polygon class="st1" points="405.1,129.2 417.5,129.2 421.3,117.5 425.2,129.2 437.5,129.2 427.5,136.5 431.3,148.3 421.3,141 
		411.3,148.3 415.1,136.5 	"/>
	<polygon class="st2" points="410.6,131 418.8,131 421.3,123.2 423.9,131 432,131 425.4,135.8 427.9,143.6 421.3,138.8 414.7,143.6 
		417.2,135.8 	"/>
	<polygon class="st1" points="353.4,231 368.8,231 373.6,216.3 378.4,231 393.8,231 381.3,240.1 386.1,254.8 373.6,245.7 
		361.1,254.8 365.9,240.1 	"/>
	<polygon class="st2" points="360.2,233.2 370.5,233.2 373.6,223.5 376.8,233.2 387,233.2 378.7,239.3 381.9,249 373.6,243 
		365.4,249 368.5,239.3 	"/>
</g>
</svg>
