<svg id="圖層_1" data-name="圖層 1" xmlns="http://www.w3.org/2000/svg" viewBox="0 0 150 150"><defs><style>.cls-1,.cls-2{fill:#fff;}.cls-2{fill-rule:evenodd;}</style></defs><title>footer_logo</title><path class="cls-1" d="M58,56.21a5.2,5.2,0,0,0-1.15-1.29,5.37,5.37,0,0,0-3.36-1.17,6,6,0,0,0-2.94.67,5.54,5.54,0,0,0-2,1.8,7.84,7.84,0,0,0-1.09,2.56,12.66,12.66,0,0,0-.34,3,11.86,11.86,0,0,0,.34,2.86,7.74,7.74,0,0,0,1.09,2.5,5.69,5.69,0,0,0,2,1.78,6,6,0,0,0,2.94.67,4.7,4.7,0,0,0,3.66-1.44l.89-1a4.11,4.11,0,0,1,3.82-2.83h1.87a12.08,12.08,0,0,1-1,3.95,9.66,9.66,0,0,1-2.15,3,9.1,9.1,0,0,1-3.14,1.89,11.37,11.37,0,0,1-3.95.65,12,12,0,0,1-4.82-.93,10.33,10.33,0,0,1-3.61-2.57A11.38,11.38,0,0,1,42.8,66.5,14.13,14.13,0,0,1,42,61.74a14.6,14.6,0,0,1,.78-4.84A11.71,11.71,0,0,1,45.05,53a10.39,10.39,0,0,1,3.61-2.61A12.52,12.52,0,0,1,57.12,50a9.92,9.92,0,0,1,3.07,1.61,8.74,8.74,0,0,1,2.23,2.63l.59,1c.28,1.4-.87,2.55-2.57,2.55H58.57A4.24,4.24,0,0,0,58,56.21Z"/><path class="cls-1" d="M69.18,50c1.27,0,2.32,1.39,2.32,3.09V70.21c0,1.7-1,3.09-2.32,3.09s-2.32-1.39-2.32-3.09V53.09C66.86,51.38,67.9,50,69.18,50Z"/><path class="cls-1" d="M77.6,56.43c1.28,0,2.32,1.39,2.32,3.09V70.21c0,1.7-1,3.09-2.32,3.09s-2.32-1.39-2.32-3.09V59.52C75.27,57.81,76.32,56.43,77.6,56.43Z"/><path class="cls-1" d="M91.63,59.46a3.22,3.22,0,0,0-1.86.51,4,4,0,0,0-1.23,1.3A5.6,5.6,0,0,0,87.88,63a9.47,9.47,0,0,0-.2,1.91,9.1,9.1,0,0,0,.2,1.86,5.72,5.72,0,0,0,.64,1.71,3.65,3.65,0,0,0,1.19,1.26,3.28,3.28,0,0,0,1.83.49,3.41,3.41,0,0,0,2.57-.93l.59-.62c.29-1,1.92-1.87,3.62-1.87h1.38A7.64,7.64,0,0,1,97.09,72a8.42,8.42,0,0,1-5.52,1.77,9.36,9.36,0,0,1-3.48-.63,7.84,7.84,0,0,1-2.69-1.78,8.18,8.18,0,0,1-1.73-2.72A9.49,9.49,0,0,1,83,65.11a11.34,11.34,0,0,1,.57-3.64,8.24,8.24,0,0,1,1.68-2.9A7.74,7.74,0,0,1,88,56.65,9.27,9.27,0,0,1,91.67,56a10.65,10.65,0,0,1,2.89.39A7.55,7.55,0,0,1,97,57.55a6.27,6.27,0,0,1,1.78,2l.46.79c.18,1.12-1.06,2-2.76,2H95.06A3.11,3.11,0,0,0,91.63,59.46Z"/><path class="cls-1" d="M124.94,69.11a2.75,2.75,0,0,0,.8.88,3.35,3.35,0,0,0,1.13.5,5,5,0,0,0,2.35.05,3.5,3.5,0,0,0,1-.36,2.33,2.33,0,0,0,.73-.65,1.74,1.74,0,0,0,.29-1q0-1-1.39-1.56a27.91,27.91,0,0,0-3.87-1c-.68-.15-1.33-.33-2-.54a6.82,6.82,0,0,1-1.71-.81,4,4,0,0,1-1.21-1.27,3.66,3.66,0,0,1-.46-1.88,5.06,5.06,0,0,1,.64-2.68,4.62,4.62,0,0,1,1.68-1.65,7.33,7.33,0,0,1,2.35-.85A14.21,14.21,0,0,1,128,56a13.37,13.37,0,0,1,2.66.26,7.08,7.08,0,0,1,2.3.88,5.26,5.26,0,0,1,1.68,1.65l.45.68c.19,1.05-1,1.91-2.74,1.91H131a2,2,0,0,0-1-1.82,4.67,4.67,0,0,0-2.16-.47c-.26,0-.54,0-.84,0a2.87,2.87,0,0,0-.84.21,1.79,1.79,0,0,0-.63.47,1.24,1.24,0,0,0-.26.83,1.27,1.27,0,0,0,.46,1,3.45,3.45,0,0,0,1.19.64,14.91,14.91,0,0,0,1.68.44l1.93.42a18.12,18.12,0,0,1,2,.56,6.32,6.32,0,0,1,1.71.87,4,4,0,0,1,1.2,1.34,3.8,3.8,0,0,1,.47,2,5.13,5.13,0,0,1-2.42,4.6,7.14,7.14,0,0,1-2.46,1,14.63,14.63,0,0,1-2.82.28,14.27,14.27,0,0,1-2.87-.29,7.61,7.61,0,0,1-2.5-1A5.54,5.54,0,0,1,121,70.64l-.48-.75c-.16-1.14,1.1-2.07,2.8-2.07h1.31A2.6,2.6,0,0,0,124.94,69.11Z"/><rect class="cls-1" x="73.75" y="49.89" width="3.69" height="1.34"/><rect class="cls-1" x="78.03" y="49.89" width="3.68" height="1.34"/><rect class="cls-1" x="73.99" y="51.65" width="3.45" height="3.49"/><rect class="cls-1" x="78.03" y="51.65" width="3.45" height="3.49"/><path class="cls-2" d="M76.24,50.06c-.46-.71-1.66-.76-1.32-2.16.66-.76,2.53-.57,2.63.5,1.7-2.42,4.71.41,1.51,1.48m-1.13,0a1,1,0,0,1-.57.17m.57-.83a2.37,2.37,0,0,1,1.13-1.49C78.13,47.65,77.54,48.72,77.93,49.23Zm.19.49a1.73,1.73,0,0,0,1.51-1.82C78.41,47.88,78.19,48.74,78.12,49.72Zm-2.64-2c-1.16.79.68,2.27,1.32,2A2,2,0,0,1,75.48,47.74Zm1.88,2.15c-.19-.94-.28-2-1.5-2C75.69,49.15,76.62,49.44,77.36,49.89Z"/><path class="cls-2" d="M141.17,74.27c.53.07,1-.05,1.53.06.07.63-.33.77-.8.74.24.62.83,1.12,1.1,1.73,1.87.07,3.61-.17,5.85.89-1.55,1.38-3.94.6-5.89,1a7.83,7.83,0,0,1-1.2,1.64c0,.5.82-.15.91.41-.22.79-.91.43-1.44.45-.85.69-1.22,2.64-2.52,2.15.46-1.58,1.25-3.29,1.69-4.86a28.52,28.52,0,0,1-3.32-.23c-.72.29-1,1.73-2,1.3.35-.53.11-.83.45-1.36,0-.52-.81-.07-.85-.53.23-.24.6-.12.88-.23,0-.6-.41-1.07-.33-1.71.79,0,1.29.85,1.59,1.34,1.23.09,2.36-.07,3.57,0-.25-1.78-1.23-3.27-1.5-5C140.24,71.86,140.56,73.47,141.17,74.27Z"/><path class="cls-1" d="M31.29,65.62a2.79,2.79,0,0,0,3.39-2.07l3.58-10.91C38.79,51,40,50.06,41,50.49s1.72-.6,1.64-2.3L42.1,37.71C42,36,41,35.67,39.92,37l-7,8c-1.12,1.28-1.25,2.48-.29,2.67s1.3,1.66.77,3.27l-3.58,10.9A3,3,0,0,0,31.29,65.62Z"/><path class="cls-1" d="M29.82,66.87A3.17,3.17,0,1,1,26.59,70,3.21,3.21,0,0,1,29.82,66.87Z"/><path class="cls-1" d="M17.16,58.94H10.38A1.18,1.18,0,0,1,9.2,57.77V51.17A1.18,1.18,0,0,0,8,50H5.26a1.17,1.17,0,0,0-1.17,1.17v21A1.17,1.17,0,0,0,5.26,73.3H8A1.18,1.18,0,0,0,9.2,72.13V64.42a1.18,1.18,0,0,1,1.18-1.17h6.77Z"/><path class="cls-1" d="M22.59,50H19.81a1.18,1.18,0,0,0-1.17,1.17v6.59a1.07,1.07,0,0,1-.06.35v6a1.09,1.09,0,0,1,.06.35v7.71a1.18,1.18,0,0,0,1.17,1.17h2.77a1.18,1.18,0,0,0,1.18-1.17v-21A1.18,1.18,0,0,0,22.59,50Z"/><path class="cls-1" d="M107.4,61.62a1.2,1.2,0,0,1,0-.3V51.17A1.18,1.18,0,0,0,106.19,50H103.9a1.18,1.18,0,0,0-1.18,1.17v21a1.18,1.18,0,0,0,1.18,1.17h2.29a1.18,1.18,0,0,0,1.17-1.17V68.66a2.45,2.45,0,0,1,0-.38Z"/><path class="cls-1" d="M118.76,72.32,113,63.6a1.48,1.48,0,0,1,.2-1.8l4.68-4.56c.47-.45.31-.82-.33-.82h-3.13a3.16,3.16,0,0,0-2,.84l-3.83,4V66.4a.89.89,0,0,1,1.21.36l3.4,5.54a2.34,2.34,0,0,0,1.79,1h3.26C118.88,73.3,119.11,72.85,118.76,72.32Z"/><path class="cls-1" d="M42.65,78.51h93.13c.95,0,1.27-1.2.15-1.2H42.8c-1,0-1.27,1.2-.15,1.2Z"/><path class="cls-1" d="M41.88,77.4H3.29c-.67,0-1.75,1-.63,1H41.25c.67,0,1.75-1,.63-1Z"/><path class="cls-1" d="M6.19,98a29.3,29.3,0,0,0-5-4.25L3.4,91.27q2.79,2,5.18,4ZM5.12,113.69l-3.44-.93q1.85-6.36,3-11.81c1.06.36,2.21.75,3.45,1.19a12.81,12.81,0,0,1-.66,2.26Q5.79,110.9,5.12,113.69Zm2-24.41q-1.46-1.46-4.38-3.85c.17.18,0,0-.67-.53l2.26-2.39c1,.71,2.69,2,5.17,4Zm3.58,4.25a1.56,1.56,0,0,1-.27-.4c-.53-.62-1.19-1.33-2-2.12a26.09,26.09,0,0,0,6.37-9.16l3.71.4a25.31,25.31,0,0,0-1.32,2.52H32.71v2.92H15.48a6.36,6.36,0,0,1-.4.66l-1.46,1.86H30.73v2.52c-.09,2.3-.14,4.11-.14,5.44h2.78v2.92H30.46l-.13,5.17h2.38V109H30.2q-.14,4.51-5.3,4.51h-5c-.09-.35-.26-1-.53-1.85a3.79,3.79,0,0,0-.27-.93c1.5.09,3.1.14,4.78.14q2.79.13,3.05-1.86H13.61l-.13.93H10l1.19-8.88H8.58V98.17h3l.79-6.5a11.36,11.36,0,0,0-.79.93A4.21,4.21,0,0,0,10.7,93.53Zm13.13,10.61L22,106.26h5c.09-1.06.14-2.78.14-5.17H14.68L14,106.26h7.83c-.35-.27-.84-.66-1.46-1.2-1-.8-1.77-1.41-2.39-1.85l1.86-1.86c.27.18.71.49,1.32.93C22.24,103.08,23.12,103.7,23.83,104.14Zm-8.22-11-.66,5H27.28c0-2.66,0-4.33.13-5Zm6.63,5a30.14,30.14,0,0,0-3.85-3l1.86-1.87c.62.44,1.46,1,2.52,1.73.54.44,1,.8,1.33,1.06Z"/><path class="cls-1" d="M35.76,88.49V85.3H49.3V81.85H53V85.3H66.68v3.18H53V91.8H63.49v11h-6.9v5.43c-.09,1.24.58,1.81,2,1.73h2.65q2,.13,2.26-1.59a23.56,23.56,0,0,0,.4-3.45l3.45,1.2c-.35,1.94-.62,3.23-.79,3.84-.53,2.13-2,3.19-4.51,3.19H57q-4.11,0-4.11-4.11v-6.23H48.5q.27,8.49-11.14,11c-.18-.27-.48-.75-.93-1.46a13.92,13.92,0,0,0-1.19-1.86q9.82-1.46,9.55-7.69h-6v-11H49.3V88.49Zm6.64,6.37v5H59.91v-5Z"/><path class="cls-1" d="M72,113.69a7,7,0,0,1-.66-.79q-1.46-1.72-2-2.25,11-5.71,11-18.18h-10V88.88H80.6c0-.71,0-1.86.14-3.45a29.63,29.63,0,0,1,.13-3.32h3.85c0,1.5-.09,3.63-.27,6.37v.4H99.31q-.4,10.21-.8,17.37-.14,6.63-6.63,6.5c-1.95.08-4.21.13-6.76.13a22.24,22.24,0,0,0-.67-3.19,2.37,2.37,0,0,1-.13-.53c1.41.09,3.49.13,6.23.13q4.25.27,4.12-4.64.26-2.78.39-9.94c.09-1.07.13-1.81.13-2.26h-11Q84.19,107.05,72,113.69Z"/><path class="cls-1" d="M103.42,88.35V85.44h2.25V82.25H109v3.18h5.7V82.25H118v3.18h2v2.92h-2v14.59h2.39v2.92H103.15v-2.92h2.52V88.35Zm2.25,25.47a18.45,18.45,0,0,0-2.52-2.25,60.57,60.57,0,0,0,5.18-5.31l2.78,1.86Q108.06,111.43,105.67,113.82ZM109,88.35V91.4h5.7V88.35Zm0,5.83v2.92h5.7V94.19Zm0,5.71v3h5.7v-3Zm7.69,12.73c-1.23-1.51-2.61-3-4.11-4.51l2.52-1.86q2.39,2.26,4.25,4.11,2.52-3.72,2.25-13V84.77a103.61,103.61,0,0,0,12.08-2l1.19,3.58c-2.66.44-5.92.88-9.82,1.32v5.44h10.22v3.32H132.2v17h-3.31v-17H125v1.06q.26,10.08-3.45,16.18a23.92,23.92,0,0,0-1.85-1.59,11.36,11.36,0,0,1-.93-.8l.27-.53Z"/></svg>