<svg id="圖層_1" data-name="圖層 1" xmlns="http://www.w3.org/2000/svg" viewBox="0 0 150 150"><defs><style>.cls-1,.cls-2{fill:#24a7e0;}.cls-2{fill-rule:evenodd;}.cls-3{fill:#da1c5d;}.cls-4{fill:#f7961c;}</style></defs><title>logo</title><path class="cls-1" d="M60.37,53.17a2.94,2.94,0,0,0-.65-.73,3,3,0,0,0-1.9-.66,3.4,3.4,0,0,0-1.66.38,3.14,3.14,0,0,0-1.11,1,4.44,4.44,0,0,0-.62,1.45,7.17,7.17,0,0,0-.19,1.68,6.71,6.71,0,0,0,.19,1.62A4.38,4.38,0,0,0,55,59.34a3.22,3.22,0,0,0,1.11,1,3.4,3.4,0,0,0,1.66.38,2.66,2.66,0,0,0,2.07-.81l.5-.54a2.33,2.33,0,0,1,2.16-1.6h1.06A6.84,6.84,0,0,1,63,60a5.47,5.47,0,0,1-1.22,1.7A5.15,5.15,0,0,1,60,62.77a6.44,6.44,0,0,1-2.23.37,6.76,6.76,0,0,1-2.73-.53,5.85,5.85,0,0,1-2-1.45A6.44,6.44,0,0,1,51.77,59a8,8,0,0,1-.44-2.69,8.27,8.27,0,0,1,.44-2.74A6.63,6.63,0,0,1,53,51.35a5.88,5.88,0,0,1,2-1.48,7.09,7.09,0,0,1,4.79-.22,5.62,5.62,0,0,1,1.74.91,5,5,0,0,1,1.26,1.49l.33.59c.16.79-.49,1.44-1.45,1.44H60.7A2.4,2.4,0,0,0,60.37,53.17Z"/><path class="cls-1" d="M66.7,49.65c.72,0,1.31.79,1.31,1.75v9.69c0,1-.59,1.75-1.31,1.75s-1.31-.79-1.31-1.75V51.4C65.39,50.44,66,49.65,66.7,49.65Z"/><path class="cls-1" d="M71.47,53.29c.72,0,1.31.79,1.31,1.75v6c0,1-.59,1.75-1.31,1.75s-1.31-.79-1.31-1.75V55C70.16,54.08,70.75,53.29,71.47,53.29Z"/><path class="cls-1" d="M79.41,55a1.82,1.82,0,0,0-1.05.29,2.25,2.25,0,0,0-.69.74,3.17,3.17,0,0,0-.38,1,5.36,5.36,0,0,0-.11,1.08,5.15,5.15,0,0,0,.11,1.05,3.24,3.24,0,0,0,.36,1,2.07,2.07,0,0,0,.67.72,1.86,1.86,0,0,0,1,.28,1.93,1.93,0,0,0,1.45-.53l.33-.35c.16-.58,1.09-1.06,2.05-1.06H84a4.33,4.33,0,0,1-1.48,2.9,4.77,4.77,0,0,1-3.13,1,5.3,5.3,0,0,1-2-.36,4.44,4.44,0,0,1-1.52-1,4.63,4.63,0,0,1-1-1.54,5.37,5.37,0,0,1-.35-2,6.42,6.42,0,0,1,.32-2.06,4.67,4.67,0,0,1,1-1.64,4.38,4.38,0,0,1,1.53-1.08A5.25,5.25,0,0,1,79.44,53a6,6,0,0,1,1.64.22,4.27,4.27,0,0,1,1.4.67,3.55,3.55,0,0,1,1,1.13l.26.45c.1.63-.6,1.15-1.57,1.15h-.82A1.76,1.76,0,0,0,79.41,55Z"/><path class="cls-1" d="M98.27,60.47a1.56,1.56,0,0,0,.45.5,1.89,1.89,0,0,0,.64.28,2.82,2.82,0,0,0,1.33,0,2,2,0,0,0,.56-.21,1.32,1.32,0,0,0,.42-.37,1,1,0,0,0,.17-.59q0-.59-.79-.88a15.8,15.8,0,0,0-2.19-.59c-.38-.09-.75-.18-1.12-.3a3.86,3.86,0,0,1-1-.46,2.26,2.26,0,0,1-.69-.72,2.07,2.07,0,0,1-.26-1.06,2.86,2.86,0,0,1,.36-1.52,2.61,2.61,0,0,1,1-.93,4.15,4.15,0,0,1,1.33-.48A8,8,0,0,1,100,53a7.57,7.57,0,0,1,1.51.15,4,4,0,0,1,1.3.5,3,3,0,0,1,.95.93L104,55c.11.6-.59,1.08-1.55,1.08h-.74a1.16,1.16,0,0,0-.57-1,2.65,2.65,0,0,0-1.22-.27l-.48,0a1.63,1.63,0,0,0-.48.12,1,1,0,0,0-.36.27.7.7,0,0,0-.15.47.72.72,0,0,0,.26.57,2,2,0,0,0,.68.36,8.44,8.44,0,0,0,.95.25l1.09.24a10.26,10.26,0,0,1,1.12.32,3.58,3.58,0,0,1,1,.49,2.29,2.29,0,0,1,.68.76,2.15,2.15,0,0,1,.26,1.11,2.9,2.9,0,0,1-1.37,2.61,4,4,0,0,1-1.39.54,8.28,8.28,0,0,1-1.6.16,8.08,8.08,0,0,1-1.63-.17,4.31,4.31,0,0,1-1.42-.56,3.13,3.13,0,0,1-1-1l-.27-.43c-.09-.65.62-1.17,1.58-1.17h.74A1.47,1.47,0,0,0,98.27,60.47Z"/><rect class="cls-1" x="69.29" y="49.59" width="2.09" height="0.76"/><rect class="cls-1" x="71.71" y="49.59" width="2.09" height="0.76"/><rect class="cls-1" x="69.43" y="50.58" width="1.95" height="1.98"/><rect class="cls-1" x="71.71" y="50.58" width="1.96" height="1.98"/><path class="cls-2" d="M70.7,49.69c-.26-.4-.94-.43-.75-1.22.37-.43,1.43-.32,1.49.28,1-1.37,2.67.23.86.84m-.64,0a.55.55,0,0,1-.32.1m.32-.47a1.34,1.34,0,0,1,.64-.84C71.77,48.32,71.44,48.93,71.66,49.22Zm.11.28a1,1,0,0,0,.85-1C71.93,48.45,71.81,48.94,71.76,49.5Zm-1.49-1.12c-.66.44.38,1.29.75,1.12A1.16,1.16,0,0,1,70.27,48.37Zm1.06,1.22c-.11-.53-.16-1.11-.85-1.12C70.39,49.17,70.92,49.33,71.33,49.59Z"/><path class="cls-2" d="M107.46,63.39c.3,0,.56,0,.87,0,0,.36-.18.43-.45.42.14.35.47.63.62,1a7.17,7.17,0,0,1,3.31.5c-.88.78-2.23.34-3.33.55a4.43,4.43,0,0,1-.68.93c0,.28.46-.08.51.23-.13.45-.52.24-.82.26-.48.39-.69,1.49-1.43,1.22.26-.9.71-1.86,1-2.75a16.15,16.15,0,0,1-1.88-.13c-.41.16-.56,1-1.13.74.2-.3.06-.47.26-.77,0-.3-.46,0-.48-.3.13-.14.34-.07.5-.13,0-.34-.23-.6-.19-1,.45,0,.73.48.9.76.7.05,1.33,0,2,0-.14-1-.69-1.85-.85-2.85C106.94,62,107.12,62.94,107.46,63.39Z"/><path class="cls-3" d="M45.25,58.5a1.58,1.58,0,0,0,1.92-1.17l2-6.18c.3-.91,1-1.46,1.56-1.22s1-.34.93-1.3l-.31-5.93c0-1-.61-1.15-1.24-.43l-4,4.53c-.63.72-.71,1.4-.17,1.51s.74.94.44,1.85l-2,6.17A1.69,1.69,0,0,0,45.25,58.5Z"/><path class="cls-3" d="M44.42,59.2A1.8,1.8,0,1,1,42.59,61,1.82,1.82,0,0,1,44.42,59.2Z"/><path class="cls-3" d="M37.25,54.71H33.41a.67.67,0,0,1-.67-.66V50.32a.67.67,0,0,0-.66-.66H30.52a.67.67,0,0,0-.66.66V62.18a.66.66,0,0,0,.66.66h1.57a.67.67,0,0,0,.66-.66V57.82a.67.67,0,0,1,.67-.66h3.84Z"/><path class="cls-3" d="M40.33,49.65H38.75a.67.67,0,0,0-.66.66V54a.61.61,0,0,1,0,.2v3.37a.61.61,0,0,1,0,.2v4.36a.67.67,0,0,0,.66.66h1.57a.67.67,0,0,0,.67-.66V50.32A.67.67,0,0,0,40.33,49.65Z"/><path class="cls-1" d="M88.34,56.23a.68.68,0,0,1,0-.17V50.32a.67.67,0,0,0-.66-.66H86.36a.67.67,0,0,0-.67.66V62.18a.67.67,0,0,0,.67.66h1.29a.67.67,0,0,0,.66-.66v-2a1.39,1.39,0,0,1,0-.21Z"/><path class="cls-1" d="M94.77,62.29,91.5,57.36a.84.84,0,0,1,.11-1l2.65-2.58c.27-.26.18-.46-.19-.46H92.3a1.79,1.79,0,0,0-1.13.48L89,56v2.92a.5.5,0,0,1,.69.2l1.92,3.13a1.33,1.33,0,0,0,1,.57h1.85C94.84,62.84,95,62.59,94.77,62.29Z"/><path class="cls-1" d="M51.69,65.79h52.73c.54,0,.72-.68.08-.68H51.77c-.54,0-.72.68-.08.68Z"/><path class="cls-3" d="M51.25,65.17H29.4c-.38,0-1,.57-.35.57H50.89c.38,0,1-.57.35-.57Z"/><path class="cls-3" d="M31,76.85a16.59,16.59,0,0,0-2.86-2.4L29.46,73q1.58,1.13,2.93,2.25Zm-.6,8.86-1.95-.52q1-3.6,1.72-6.69l2,.68a7.25,7.25,0,0,1-.38,1.28Q30.81,84.13,30.44,85.71Zm1.13-13.82q-.83-.83-2.48-2.18c.1.1,0,0-.38-.3L30,68.06c.55.4,1.52,1.15,2.93,2.25Zm2,2.41a.88.88,0,0,1-.15-.23c-.3-.35-.68-.75-1.13-1.2a14.77,14.77,0,0,0,3.61-5.18l2.1.23a14.33,14.33,0,0,0-.75,1.42h8.78V71H36.3a3.6,3.6,0,0,1-.23.38l-.83,1.05h9.69v1.43c-.05,1.3-.08,2.33-.08,3.08h1.57v1.65H44.78l-.08,2.93h1.35v1.58H44.63q-.08,2.55-3,2.55H38.78c-.05-.2-.15-.55-.3-1a2.15,2.15,0,0,0-.15-.53c.85.05,1.75.08,2.7.08s1.63-.3,1.73-1.05H35.25l-.07.53h-2l.67-5h-1.5V76.93h1.73l.45-3.68a6.43,6.43,0,0,0-.45.53A2.38,2.38,0,0,0,33.6,74.3Zm7.43,6L40,81.51h2.85c.05-.6.08-1.58.08-2.93H35.85l-.38,2.93H39.9c-.2-.15-.48-.37-.83-.68-.55-.45-1-.8-1.35-1l1.05-1.05.75.53C40.13,79.7,40.63,80.06,41,80.31Zm-4.66-6.24L36,76.93h7c0-1.5,0-2.45.08-2.85Zm3.76,2.85a17.06,17.06,0,0,0-2.18-1.72L39,74.14c.35.25.83.58,1.43,1,.3.25.55.45.75.6Z"/><path class="cls-1" d="M47.78,71.44v-1.8h7.66v-2h2.1v2h7.74v1.8H57.55v1.88h5.93v6.23H59.58v3.08c-.05.7.33,1,1.13,1h1.5q1.13.07,1.28-.9a13.34,13.34,0,0,0,.22-2l2,.68c-.2,1.1-.35,1.83-.45,2.18a2.31,2.31,0,0,1-2.55,1.8H59.8a2.06,2.06,0,0,1-2.33-2.33V79.55H55q.15,4.81-6.31,6.23c-.1-.15-.27-.42-.53-.82a7.88,7.88,0,0,0-.68-1.05q5.56-.83,5.41-4.35H49.51V73.32h5.94V71.44ZM51.54,75V77.9h9.91V75Z"/><path class="cls-1" d="M68.29,85.71a3.94,3.94,0,0,1-.38-.45q-.83-1-1.13-1.27A10.81,10.81,0,0,0,73,73.7H67.39v-2h5.78c0-.4,0-1.05.08-2a16.78,16.78,0,0,1,.07-1.88H75.5c0,.85-.05,2.05-.15,3.61v.22h8.41q-.23,5.78-.45,9.84-.08,3.76-3.76,3.68c-1.1,0-2.38.08-3.83.08a12.59,12.59,0,0,0-.38-1.8,1.34,1.34,0,0,1-.07-.3c.8.05,2,.07,3.53.07s2.38-.78,2.33-2.63q.15-1.58.22-5.63c.05-.6.07-1,.07-1.28H75.2Q75.2,82,68.29,85.71Z"/><path class="cls-1" d="M86.09,71.37V69.72h1.27v-1.8h1.88v1.8h3.23v-1.8h1.88v1.8h1.13v1.65H94.35v8.26H95.7v1.65H85.94V79.63h1.43V71.37Zm1.27,14.42a10.45,10.45,0,0,0-1.43-1.27,34.29,34.29,0,0,0,2.93-3l1.58,1.05Q88.72,84.43,87.37,85.79Zm1.88-14.42v1.73h3.23V71.37Zm0,3.3v1.65h3.23V74.67Zm0,3.23v1.72h3.23V77.9Zm4.35,7.21c-.7-.85-1.48-1.7-2.33-2.55l1.42-1.05q1.35,1.28,2.4,2.33,1.43-2.11,1.27-7.36V69.34a58.66,58.66,0,0,0,6.84-1.12l.68,2c-1.5.25-3.35.5-5.56.75v3.08h5.78v1.88h-1.73v9.61h-1.87V75.95H98.33v.6q.15,5.7-2,9.16a13.54,13.54,0,0,0-1-.9,6.43,6.43,0,0,1-.53-.45l.15-.3Z"/><path class="cls-4" d="M3.5,105.58c0,.18,0,.36,0,.54-.06.62,0,1.64-.86,1.64-.25,0-.59-.1-.56-.41a1,1,0,0,1,.45-.67,3.66,3.66,0,0,0,.45-.48,3.25,3.25,0,0,0,.36-.65Zm1.42-1.39L5,103.3H2.87l.07-.72H5.08l.1-1H4.35l0,.36H3l.42-4.39H4.74l0,.32H7.47l.4-.47,1.46.37-.53.44-.35,3.69H7.15l0-.33H6.34l-.1,1H8l-.07.72H6.17l-.07.77c.54-.07,1.1-.17,1.65-.25l.07.12a25.22,25.22,0,0,1-5.24,1.75l-.21-1.28C3.22,104.38,4.08,104.3,4.92,104.19Zm-.52,1.17a3.28,3.28,0,0,1,.38,1.53c0,.37-.14.61-.52.61-.23,0-.52-.1-.49-.37a1.25,1.25,0,0,1,.14-.59,3.4,3.4,0,0,0,.34-1.16Zm.84-4.49,0-.49a.68.68,0,0,1-.33.12.24.24,0,0,1-.26-.27c0-.11,0-.2.05-.31a1.26,1.26,0,0,0-.18-.6l-.15,1.55Zm.22-2.33H4.64l0,.51a4.25,4.25,0,0,1,.76.68Zm0,6.49a2.25,2.25,0,0,1,.84,1.61c0,.42-.33.5-.68.5s-.46-.16-.37-.41a2.86,2.86,0,0,0,.11-.78,4.51,4.51,0,0,0,0-.9Zm1.89-5.21-.92.72,0,.33h.85Zm-.74,4.82c.3.24.59.49.86.74a.92.92,0,0,1,.37.73.61.61,0,0,1-.65.62c-.6,0-.53-.37-.5-.85a3,3,0,0,0-.24-1.15Zm.27-5.56.51.3.08-.84H6.63l-.14,1.41C6.63,99.66,6.76,99.37,6.89,99.07Zm2.73,3,.44-4.57h1.49l-.15,1.59h2l-.07.71h-2l-.24,2.46.42-.43,1.5.44-.52.42-.53,5.5H10.46l.07-.71H9.33l-.07.71H7.73L8.32,102ZM11,103H9.76l-.36,3.71h1.2Z"/><path class="cls-4" d="M24.79,102.85H14.44l.08-.88H24.87Z"/><path class="cls-4" d="M37.28,97.76l-.08.82H32.82l-.31,3.22a7.75,7.75,0,0,1,2.41.71,1.41,1.41,0,0,1,.81,1.3,1,1,0,0,1-.92.85c-.75,0-.94-.51-1.22-1.08a5,5,0,0,0-.43-.77,2.86,2.86,0,0,0-.68-.67l-.57,5.94H30l.91-9.5h-4.2l.08-.82Z"/><path class="cls-4" d="M44.46,103a4.53,4.53,0,0,1-1.68,1.66l-.11-.11a2.69,2.69,0,0,0,.85-1.3,1,1,0,0,1-1-1.11,1.18,1.18,0,0,1,.45-.8,1.2,1.2,0,0,1,.86-.25,1,1,0,0,1,.8.62A1.6,1.6,0,0,1,44.46,103Z"/><path class="cls-4" d="M50,106.1a11.52,11.52,0,0,0,2.49-3.26l.15.06a8.09,8.09,0,0,1-1.59,5Zm.57-5.43c.62,0,2.05.06,2.4.56a1,1,0,0,1,.2.55.84.84,0,0,1-.9.8c-.63,0-.76-.51-1-1a2.39,2.39,0,0,0-.76-.82Zm.49-3.12c.66.13,1.89.23,2.28.77a1,1,0,0,1,.23.63.93.93,0,0,1-.89.78c-.68,0-.75-.49-.93-1A2.62,2.62,0,0,0,51,97.65Zm2.72,5,.34-2.27-.72.45-.17-.06a8.83,8.83,0,0,0,1.35-3.25h2.09l-.35.71H61L61,99H55.8c-.26.26-.54.51-.83.77h.9l-.05.3h2.9l.45-.45,1.66.36-.42.44-.29,2.24h.74l-.07.77H60l-.27,1.95h.66l-.07.78h-.67a3.75,3.75,0,0,1-.38,1.46,1,1,0,0,1-.63.42,6,6,0,0,1-1.65.2s-.2,0-.24,0,0-.44-.3-.69a2.4,2.4,0,0,0-1.1-.38v-.14c.61,0,1.2.07,1.8.07.88,0,.7-.08.86-.91H54.91l-.59.57-1.62-.36.58-.48.38-2.46h-.78l.07-.77Zm4.34,2.71.23-1.95H55.28L55,105.31Zm.33-2.71.25-1.83h-3l-.26,1.83Zm-2.78.94a4.5,4.5,0,0,1,1.63.29.9.9,0,0,1,.46.8c0,.39-.41.56-.87.51a.78.78,0,0,1-.78-.74,1.55,1.55,0,0,0-.5-.78ZM56,101a4.47,4.47,0,0,1,1.55.26.64.64,0,0,1,.42.63.68.68,0,0,1-.78.56c-.61-.08-.61-.53-.87-.94a2.59,2.59,0,0,0-.4-.43Z"/><path class="cls-4" d="M63.8,97.53h2c-.12.48-.26.92-.42,1.4h.73l.49-.57,1.87.43-.56.49c-.07.63-.16,1.27-.25,1.89a5.88,5.88,0,0,1-3.15,4.9,12.48,12.48,0,0,1-2.67,1.3l-.09-.11A13,13,0,0,0,65,103.95c-.33.19-.93.27-1.1-.1s-.14-1-.3-1.45a2.27,2.27,0,0,0-.3-.61c-.36.29-.75.55-1.13.81l-.1,0A13.51,13.51,0,0,0,63.8,97.53Zm1.29,5.07a1.32,1.32,0,0,1,.26.38l0,.2c.07-.2.13-.41.19-.6a15.3,15.3,0,0,0,.38-2.3c0-.2,0-.39,0-.59H65a9.47,9.47,0,0,1-1.14,1.54l-.44.44A4,4,0,0,1,65.1,102.6Zm5.26-3.1A6.52,6.52,0,0,1,72,101a3.51,3.51,0,0,1,.81,2.24c-.06.6-.41,1.36-1.09,1.36-.23,0-.53,0-.63-.27a2.72,2.72,0,0,1-.06-1.09,5.48,5.48,0,0,0-.72-3.35l-.79,8.24H67.84l1-10.61h1.69Z"/><path class="cls-4" d="M78.76,98a2.7,2.7,0,0,1-.56-.44l.06-.1A3,3,0,0,1,80,97.21c.65.19,1,.42.89.85a.9.9,0,0,1-.32.56h4.35l-.07.74H81.47l1.34.27A8.52,8.52,0,0,1,81,101.07h1.39l.63-.59,1.83.41-.75.51L83.54,107a1.18,1.18,0,0,1-1,1.1,7.54,7.54,0,0,1-1.27,0c-.48,0-.19-.33-.45-.63a2.1,2.1,0,0,0-1.16-.38l0-.18c.44,0,.89,0,1.34,0,.92,0,.82-.12.91-1l.39-4.11H76.68l-.17,1.79a7.4,7.4,0,0,0,1.5-1.72l1.43.35a7.29,7.29,0,0,1-2.95,1.58l-.4,4.21H74.42l.7-7.28h1.66l0,.27h1a1.48,1.48,0,0,1-.21-.27c-.19-.41-.1-.78-.52-1.09l-.2-.16.11-.11c.52.07,1.77.12,2.05.55a.73.73,0,0,1,.17.48.94.94,0,0,1-.43.6H80A7.86,7.86,0,0,0,81,99.36H74.54l.07-.74H79C78.8,98.47,79.15,98.16,78.76,98Zm0,5.92,0,.22h1l.43-.42,1.64.27-.51.41-.22,2.33H79.63l0-.35H78.55l0,.38H77.07l.27-2.84Zm.92,1.73.08-.84H78.7l-.08.84Zm1.35-2c-.71,0-1.39-.3-1.32-1.05l.05-.55h1.45l0,.36c0,.16,0,.29.35.29l.56,0c0,.33-.07.72-.09,1A8.39,8.39,0,0,1,81.06,103.63Z"/><path class="cls-4" d="M88.1,102.31l0,.33h1l.54-.5,1.7.37-.59.53-.48,5H88.59l.07-.78h-1l-.08.8H85.88l.56-5.8Zm1.81-4.87,0,.36h3.63l.65-.5,1.86.35-.64.55L95,101.68H93.18l0-.32H89.53l0,.36H87.68l.41-4.27Zm-1.17,9,.3-3.1H88l-.3,3.1Zm4.55-5.91.19-2H89.8l-.19,2Zm.16,1.72,0,.31h.94l.59-.55,1.71.36-.59.57-.49,5.07h-1.7l.08-.81H93l-.08.84H91.17l.56-5.79Zm.59,4.17.3-3.11h-1l-.3,3.11Z"/><path class="cls-4" d="M105,99.62a4.45,4.45,0,0,1-1.66,1.72c.48.39,1.22,1,1.15,1.71a.68.68,0,0,1-.64.57.42.42,0,0,1-.41-.2,5.68,5.68,0,0,1-.23-1.12,7.34,7.34,0,0,0-.33-.79l-.3,3.17h-1.16l0-.48h-.45l-.11,1.12h1.69l-.07.69h-1.69l-.2,2.1H99.54l.2-2.1h-2l.07-.69h2l.11-1.15h-.44l-.05.54H98.25L98.7,100h1.18l0,.18h.44l.09-1H98.54l.07-.71h1.86l.1-1.09h1.14l-.1,1.09h1.61l-.07.71h-1.61l-.09,1h.39l.38-.47,1.29.37-.48.43-.07.75A5.51,5.51,0,0,0,104,99h1.29C105.24,99.19,105.14,99.41,105,99.62Zm-5,2.83h-.44l-.1,1H100Zm.15-1.54h-.44l-.08.86h.44Zm1.44,1.55h-.45l-.1,1.05h.45Zm.15-1.55h-.45l-.08.86h.45Zm-.22,6.79.07-.76h2.44l.23-2.37h-1.49l.07-.77h4.83l-.07.77h-1.6l-.23,2.37H108l-.07.76Zm1.69-9.16.07-.75h5.38l-.07.75Zm2.56,1.86c-.32.3-.69.56-1,.82.31.25.63.51.92.79a.86.86,0,0,1,.3.73c0,.41-.13.66-.53.77s-.65-.3-.69-.68a5.18,5.18,0,0,0-.12-.63,4.82,4.82,0,0,0-.4-1A6.7,6.7,0,0,0,105.6,99l1.26,0A6.25,6.25,0,0,1,105.85,100.41Zm2.25-.78a6,6,0,0,1-1.77,1.58c.51.29,1.62.92,1.55,1.61a.58.58,0,0,1-.64.56.89.89,0,0,1-.47-.24,7.18,7.18,0,0,1-.31-.72,4.23,4.23,0,0,0-.27-.53,4.29,4.29,0,0,0-.5-.66A8.32,8.32,0,0,0,107.1,99l1.33.1C108.33,99.26,108.22,99.45,108.1,99.63Z"/><path class="cls-4" d="M110.59,104h.82l0-.41h-1.58l.07-.78h1.58l0-.45h1.64l0,.45h1.27l-.07.78h-1.27l-.08.87.89.29a7.47,7.47,0,0,0,1.22-2.55l1.8,0a7.17,7.17,0,0,1-2.71,2.75c.2.16.32.25.29.54s-.25.54-.64.54a.71.71,0,0,1-.58-.36c-.1-.19,0-.23-.16-.53l-.16-.23-.29,3H111l.21-2.21c-.52.78-1.08,1-1.74,1.67l-.15,0A12,12,0,0,0,110.59,104Zm-.27-3.91h.79l.25-2.57h1.41l0,.19h3l-.05.55h-3l0,.27h2.63l0,.5h-2.63l0,.25h2.63l0,.5h-2.63l0,.3h3.29l-.06.57h-2.49a3.83,3.83,0,0,1-1.44.71h.61c.5,0,1.25,0,1.76,0,0-.14-.28-.27-.37-.41l.2-.2c1,0,1.44.54,1.39,1.06a.72.72,0,0,1-.64.51c-.38,0-.43-.33-.5-.66a17.45,17.45,0,0,1-3.39.62l-.27-1a1.87,1.87,0,0,0,1.32-.68h-1.67Zm4.05,6.22a7.44,7.44,0,0,0,1.74-2.32l1.82.12a9.64,9.64,0,0,1-2.81,2.4l3-.1c0-.6-.19-.61-.3-1l.15-.11a3,3,0,0,1,.86.54c.28.22.65.44.69.81.08.81,0,1.06-.34,1.22a.62.62,0,0,1-.88-.33,2.1,2.1,0,0,1-.11-.55,27.93,27.93,0,0,1-3.62.94l-.64-1.39A1.36,1.36,0,0,0,114.37,106.33Zm6.54-5.26a20,20,0,0,1-5.15.88c.12.14,0-.07-.1-.19a29.77,29.77,0,0,0,4.45-1.82Zm-.35-2.92a15.83,15.83,0,0,1-4.86.92V99a18.2,18.2,0,0,0,3.57-1.63Zm.12,1.29a17.92,17.92,0,0,1-4.55,1.12l0-.1a18.33,18.33,0,0,0,3.57-1.9Zm-2.51,2.45a4.87,4.87,0,0,0,2.54,1.69l-.07.12c-.87,0-1.26.87-1,1.83l-.14.08a5.54,5.54,0,0,1-1.9-3.49Z"/><path class="cls-4" d="M122.34,103.4h1.78l.11-1.12h1.69l-.11,1.12h1.71l-.08.81h-1.71l-.15,1.65c.63-.12,1.26-.26,1.88-.44l0,.11a16.32,16.32,0,0,1-5.57,2.37l-.32-1.43a13.84,13.84,0,0,0,2.23-.29l.19-2h-1.78Zm.48-2.53c.32-.11,1-1.59,1.19-2l.18-.48h-1.6l.09-.77h5.62l-.07.77h-2a9.76,9.76,0,0,1-2.1,2.24l-.46.33c.89,0,1.77-.06,2.65-.1a5.45,5.45,0,0,0-.46-1.29l.14-.08a3.46,3.46,0,0,1,1.78,1.46,1,1,0,0,1,.1.6.8.8,0,0,1-.85.73c-.68,0-.65-.55-.71-1.09a12.37,12.37,0,0,1-3.76,1.05l-.15-1.31A1.45,1.45,0,0,0,122.82,100.87Zm6.5,6c.16,0,.57,0,.69-.13a.57.57,0,0,0,.07-.24l.87-9.11h1.71l-.92,9.61c-.09,1-.9,1-1.69,1.06h-.53a1.39,1.39,0,0,1-.39,0c-.21-.14,0-.35-.19-.63a.47.47,0,0,0-.22-.19,3.32,3.32,0,0,0-1-.24l.05-.16C128.3,106.89,128.8,106.91,129.32,106.91ZM130,99l-.61,6.37h-1.57l.61-6.37Z"/><path class="cls-4" d="M137.06,103.1a5.07,5.07,0,0,1,1.09-.88,4.12,4.12,0,0,1,2-.69,3.83,3.83,0,0,1,2.29.85l.56.43a3.41,3.41,0,0,0,2,.85,4.26,4.26,0,0,0,2.85-1.39l.16.19a4.25,4.25,0,0,1-3.06,1.75,3.75,3.75,0,0,1-2.23-.91l-.49-.35a3.49,3.49,0,0,0-2.07-.87,4.5,4.5,0,0,0-2.92,1.24Z"/></svg>