<svg id="Layer_1" data-name="Layer 1" xmlns="http://www.w3.org/2000/svg" viewBox="0 0 527.09 521.03"><defs><style>.cls-1,.cls-2{fill:#27a8e0;}.cls-2{fill-rule:evenodd;}.cls-3{fill:#d91e5d;}.cls-4{fill:#939598;}.cls-5{fill:#403b3d;}.cls-6{fill:#fff;}</style></defs><title>news_footer</title><path class="cls-1" d="M221.51,67.37A17.48,17.48,0,0,0,217.64,63a18.05,18.05,0,0,0-11.29-3.94,20.2,20.2,0,0,0-9.89,2.25,18.64,18.64,0,0,0-6.58,6A26.36,26.36,0,0,0,186.21,76a42.58,42.58,0,0,0-1.16,10,39.88,39.88,0,0,0,1.16,9.63,26,26,0,0,0,3.67,8.4,19.15,19.15,0,0,0,6.58,6,20.2,20.2,0,0,0,9.89,2.24c5.27,0,9.4-1.6,12.32-4.83l3-3.22c1.36-5.22,7.14-9.51,12.86-9.51h6.3a40.61,40.61,0,0,1-3.39,13.28,32.5,32.5,0,0,1-7.24,10.1,30.59,30.59,0,0,1-10.55,6.35,38.25,38.25,0,0,1-13.28,2.2,40.18,40.18,0,0,1-16.2-3.12A34.74,34.74,0,0,1,178,114.83a38.27,38.27,0,0,1-7.58-12.88,47.52,47.52,0,0,1-2.63-16,49.09,49.09,0,0,1,2.63-16.29A39.38,39.38,0,0,1,178,56.55a34.94,34.94,0,0,1,12.13-8.77,42.12,42.12,0,0,1,28.44-1.31,33.37,33.37,0,0,1,10.32,5.43,29.39,29.39,0,0,1,7.51,8.85l2,3.49c.95,4.71-2.94,8.57-8.64,8.57h-6.3A14.26,14.26,0,0,0,221.51,67.37Z"/><path class="cls-1" d="M259.15,46.46c4.28,0,7.79,4.66,7.79,10.39v57.57c0,5.72-3.51,10.4-7.79,10.4s-7.8-4.68-7.8-10.4V56.86C251.35,51.13,254.85,46.46,259.15,46.46Z"/><path class="cls-1" d="M287.46,68.09c4.3,0,7.81,4.66,7.81,10.41v35.93c0,5.72-3.5,10.4-7.81,10.4s-7.8-4.68-7.8-10.4V78.49C279.65,72.75,283.16,68.09,287.46,68.09Z"/><path class="cls-1" d="M334.64,78.28A10.83,10.83,0,0,0,328.4,80a13.35,13.35,0,0,0-4.12,4.38A18.82,18.82,0,0,0,322,90.32a31.86,31.86,0,0,0-.66,6.41A30.61,30.61,0,0,0,322,103a19.24,19.24,0,0,0,2.15,5.75,12.28,12.28,0,0,0,4,4.25,11,11,0,0,0,6.15,1.64c3.73,0,6.58-1,8.63-3.14l2-2.09c1-3.46,6.45-6.3,12.18-6.3h4.64q-1.55,11.31-8.77,17.22c-4.85,4-11,5.95-18.56,5.95a31.48,31.48,0,0,1-11.69-2.13,26.35,26.35,0,0,1-9.05-6,27.49,27.49,0,0,1-5.82-9.15,31.91,31.91,0,0,1-2.07-11.69A38.15,38.15,0,0,1,307.7,85a27.71,27.71,0,0,1,5.66-9.76,26,26,0,0,1,9.1-6.44,31.17,31.17,0,0,1,12.31-2.28,35.81,35.81,0,0,1,9.72,1.31,25.38,25.38,0,0,1,8.31,4,21.07,21.07,0,0,1,6,6.69l1.54,2.67c.59,3.76-3.56,6.84-9.3,6.84h-4.86C345.14,81.54,341.32,78.28,334.64,78.28Z"/><path class="cls-1" d="M446.66,110.73a9.25,9.25,0,0,0,2.7,3,11.25,11.25,0,0,0,3.79,1.68,16.73,16.73,0,0,0,7.9.18,11.75,11.75,0,0,0,3.3-1.22,7.83,7.83,0,0,0,2.47-2.18,5.84,5.84,0,0,0,1-3.48q0-3.48-4.67-5.25a93.87,93.87,0,0,0-13-3.52c-2.27-.51-4.48-1.1-6.63-1.8a22.93,22.93,0,0,1-5.76-2.74,13.43,13.43,0,0,1-4.07-4.29,12.3,12.3,0,0,1-1.54-6.31,17,17,0,0,1,2.14-9,15.53,15.53,0,0,1,5.67-5.54,24.65,24.65,0,0,1,7.9-2.85,47.77,47.77,0,0,1,9-.82,45,45,0,0,1,9,.87,23.8,23.8,0,0,1,7.74,3,17.7,17.7,0,0,1,5.64,5.54l1.51,2.3c.65,3.54-3.5,6.42-9.21,6.42H467c-.22-3-1.37-5-3.41-6.1A15.71,15.71,0,0,0,456.37,77c-.87,0-1.82.06-2.84.15a9.67,9.67,0,0,0-2.83.72,6,6,0,0,0-2.12,1.59,4.18,4.18,0,0,0-.86,2.81,4.26,4.26,0,0,0,1.53,3.39,11.6,11.6,0,0,0,4,2.15,50.15,50.15,0,0,0,5.64,1.47q3.19.67,6.48,1.42A60.93,60.93,0,0,1,472,92.56a21.27,21.27,0,0,1,5.77,2.92,13.58,13.58,0,0,1,4.05,4.5,12.78,12.78,0,0,1,1.57,6.62,17.24,17.24,0,0,1-8.15,15.48,24,24,0,0,1-8.27,3.24,49.19,49.19,0,0,1-9.49.94,48,48,0,0,1-9.66-1,25.6,25.6,0,0,1-8.41-3.3,18.62,18.62,0,0,1-6-6.09l-1.6-2.53c-.52-3.83,3.7-7,9.41-7h4.42A8.73,8.73,0,0,0,446.66,110.73Z"/><rect class="cls-1" x="274.54" y="46.1" width="12.41" height="4.51"/><rect class="cls-1" x="288.91" y="46.1" width="12.39" height="4.51"/><rect class="cls-1" x="275.34" y="52.01" width="11.61" height="11.75"/><rect class="cls-1" x="288.91" y="52.01" width="11.61" height="11.75"/><path class="cls-2" d="M282.88,46.67c-1.54-2.37-5.6-2.54-4.45-7.25,2.21-2.56,8.5-1.92,8.85,1.69,5.72-8.13,15.83,1.37,5.09,5m-3.8,0a3.26,3.26,0,0,1-1.91.57m1.91-2.79c.75-2.11,1.76-4,3.8-5C289.26,38.57,287.28,42.16,288.57,43.88Zm.63,1.66c3.13-.76,5.07-2.58,5.07-6.12C290.2,39.36,289.47,42.25,289.2,45.54Zm-8.87-6.66c-3.89,2.64,2.27,7.64,4.44,6.66C281.63,44.55,280.23,41.15,280.34,38.88Zm6.32,7.22c-.62-3.15-1-6.56-5-6.68C281,43.62,284.19,44.57,286.66,46.1Z"/><path class="cls-2" d="M501.25,128.09c1.8.25,3.32-.18,5.16.19.22,2.13-1.09,2.58-2.68,2.49.81,2.09,2.79,3.76,3.7,5.83,6.27.22,12.13-.59,19.66,3-5.21,4.64-13.26,2-19.79,3.25a26.34,26.34,0,0,1-4,5.53c.11,1.66,2.76-.5,3,1.37-.75,2.67-3.07,1.44-4.85,1.52-2.85,2.32-4.1,8.87-8.47,7.24,1.56-5.32,4.21-11.07,5.68-16.36a95.92,95.92,0,0,1-11.17-.77c-2.41,1-3.34,5.81-6.69,4.38,1.18-1.78.36-2.81,1.52-4.58-.09-1.75-2.73-.25-2.87-1.8.77-.81,2-.41,3-.77-.11-2-1.37-3.59-1.12-5.75,2.65-.13,4.34,2.85,5.34,4.49,4.14.31,7.92-.22,12,.1-.85-6-4.12-11-5-17C498.13,120,499.21,125.39,501.25,128.09Z"/><path class="cls-3" d="M131.73,99c4.51,1.59,9.62-1.53,11.4-7l12-36.69c1.78-5.43,6-8.69,9.28-7.24s5.79-2,5.51-7.74L168.1,5.15c-.29-5.7-3.61-6.85-7.35-2.53l-23.5,26.92c-3.76,4.3-4.21,8.34-1,9s4.38,5.58,2.6,11l-12,36.67C125.05,91.64,127.27,97.39,131.73,99Z"/><path class="cls-3" d="M126.8,103.19a10.67,10.67,0,1,1-10.86,10.67A10.8,10.8,0,0,1,126.8,103.19Z"/><path class="cls-3" d="M84.2,76.54H61.42a4,4,0,0,1-4-3.95V50.41a4,4,0,0,0-3.95-3.95H44.2a4,4,0,0,0-3.95,3.95v70.47a4,4,0,0,0,3.95,3.94h9.31a4,4,0,0,0,3.95-3.94V95a4,4,0,0,1,4-3.94H84.2Z"/><path class="cls-3" d="M102.46,46.46H93.14a4,4,0,0,0-3.94,3.95V72.59A3.6,3.6,0,0,1,89,73.76v20A3.65,3.65,0,0,1,89.19,95v25.93a4,4,0,0,0,3.94,3.94h9.33a4,4,0,0,0,4-3.94V50.41A4,4,0,0,0,102.46,46.46Z"/><path class="cls-1" d="M387.69,85.56a4,4,0,0,1-.13-1V50.41a4,4,0,0,0-3.95-3.95h-7.69a4,4,0,0,0-4,3.95v70.47a4,4,0,0,0,4,3.94h7.69a4,4,0,0,0,3.95-3.94V109.24a8.25,8.25,0,0,1,.13-1.27Z"/><path class="cls-1" d="M425.87,121.54,406.42,92.22a5,5,0,0,1,.66-6.06l15.73-15.33c1.58-1.53,1.06-2.75-1.12-2.75H411.16a10.62,10.62,0,0,0-6.68,2.83L391.6,84.29v17.34a3,3,0,0,1,4.07,1.2l11.43,18.62a7.88,7.88,0,0,0,6,3.38h11C426.29,124.82,427.07,123.33,425.87,121.54Z"/><path class="cls-1" d="M169.94,142.34h313.2c3.18,0,4.27-4,.5-4H170.44c-3.2,0-4.29,4-.5,4Z"/><path class="cls-3" d="M167.35,138.62H37.56c-2.25,0-5.88,3.41-2.11,3.41H165.24c2.25,0,5.88-3.41,2.11-3.41Z"/><path class="cls-3" d="M47.33,208a98.53,98.53,0,0,0-17-14.28l7.58-8.48q9.38,6.71,17.41,13.39Zm-3.59,52.62-11.57-3.11q6.21-21.4,10.24-39.71c3.55,1.21,7.45,2.53,11.59,4a43.09,43.09,0,0,1-2.23,7.6Q46,251.28,43.74,260.65Zm6.71-82.07q-4.92-4.91-14.72-12.93c.58.59-.16,0-2.24-1.79l7.6-8c3.25,2.37,9.05,6.85,17.39,13.38Zm12,14.29a5.24,5.24,0,0,1-.91-1.35c-1.79-2.07-4-4.47-6.69-7.13a87.75,87.75,0,0,0,21.42-30.79l12.47,1.35a85.11,85.11,0,0,0-4.45,8.46h52.18v9.82h-58a21.4,21.4,0,0,1-1.36,2.23c-1.19,1.49-2.83,3.59-4.91,6.25h57.56v8.48c-.32,7.72-.47,13.83-.47,18.28h9.35v9.82H129l-.45,17.38h8V245h-8.46q-.46,15.17-17.84,15.16h-17c-.3-1.19-.89-3.25-1.79-6.23a12.75,12.75,0,0,0-.9-3.13c5.06.3,10.42.46,16.06.46q9.37.44,10.26-6.25H72.29l-.44,3.12H60.25l4-29.87h-8.9v-9.82H65.6l2.67-21.86a38.21,38.21,0,0,0-2.67,3.13A14.16,14.16,0,0,0,62.5,192.86Zm44.15,35.69-6.24,7.12h16.93c.31-3.55.46-9.36.46-17.38H75.87l-2.25,17.38H100c-1.19-.89-2.83-2.22-4.91-4-3.27-2.67-6-4.74-8-6.23l6.25-6.25c.91.59,2.37,1.64,4.45,3.13C101.3,225,104.26,227.06,106.64,228.55ZM79,191.51l-2.23,17h41.49c0-8.94.13-14.58.45-17Zm22.31,17a101.35,101.35,0,0,0-12.95-10.25l6.24-6.27c2.08,1.49,4.91,3.43,8.47,5.81,1.8,1.49,3.28,2.69,4.48,3.58Z"/><path class="cls-1" d="M146.77,175.91V165.2h45.52V153.59h12.49V165.2h46v10.71h-46V187H240v37H216.82v18.28c-.31,4.18,1.94,6.1,6.69,5.8h8.92q6.71.44,7.59-5.35a79.22,79.22,0,0,0,1.33-11.6l11.59,4c-1.18,6.53-2.09,10.86-2.67,12.92-1.78,7.15-6.85,10.71-15.15,10.71h-17q-13.81,0-13.81-13.83v-21H189.6q.9,28.56-37.46,37c-.61-.89-1.63-2.52-3.13-4.9a46.83,46.83,0,0,0-4-6.25q33-4.91,32.13-25.86H157V187h35.25V175.91Zm22.33,21.41v17H228v-17Z"/><path class="cls-1" d="M268.58,260.65a23.37,23.37,0,0,1-2.23-2.67q-4.92-5.8-6.7-7.56,37-19.21,37-61.13H263.21v-12h34.34c0-2.39.17-6.24.47-11.6a99.66,99.66,0,0,1,.44-11.15H311.4c0,5.06-.32,12.19-.91,21.42v1.33h50q-1.34,34.33-2.67,58.43-.46,22.31-22.31,21.86c-6.55.28-14.14.45-22.75.45a74.79,74.79,0,0,0-2.24-10.71,8,8,0,0,1-.42-1.78c4.75.31,11.74.44,20.94.44q14.28.91,13.84-15.61.89-9.36,1.33-33.44c.31-3.59.44-6.1.44-7.59h-37Q309.62,238.34,268.58,260.65Z"/><path class="cls-1" d="M374.3,175.45v-9.81h7.57v-10.7H393v10.7h19.18v-10.7h11.15v10.7H430v9.81h-6.68V224.5h8v9.83h-58V224.5h8.49V175.45Zm7.57,85.64c-4.18-4.15-7-6.69-8.49-7.57a203.68,203.68,0,0,0,17.42-17.85l9.36,6.26Q389.89,253.07,381.87,261.09ZM393,175.45v10.26h19.18V175.45Zm0,19.62v9.82h19.18v-9.82Zm0,19.2V224.5h19.18V214.27Zm25.86,42.82c-4.15-5.07-8.78-10.13-13.81-15.16l8.46-6.26q8,7.59,14.28,13.84,8.47-12.52,7.56-43.72V163.4A348.43,348.43,0,0,0,476,156.73l4,12c-8.94,1.47-19.92,3-33,4.45v18.29h34.36v11.15H471.07v57.1H459.95v-57.1H447v3.57q.89,33.88-11.61,54.41a80.45,80.45,0,0,0-6.21-5.33,38.2,38.2,0,0,1-3.13-2.7l.9-1.78Z"/><path class="cls-4" d="M0,307.9H4l4.08,15.41c.58,2.45,1.06,4.75,1.58,7.15h.19c.62-2.4,1.15-4.7,1.82-7.15l4.18-15.41h3.94L24,323.31c.62,2.45,1.2,4.75,1.82,7.15H26c.58-2.4,1.06-4.7,1.68-7.15l4-15.41h3.75l-7.11,25.92H23.57l-3.94-14.45c-.72-2.5-1.2-4.85-1.82-7.49h-.24c-.58,2.64-1.1,5.09-1.87,7.54l-3.79,14.4H7.3Z"/><path class="cls-4" d="M41.57,307.9h4l4.08,15.41c.58,2.45,1.06,4.75,1.58,7.15h.19c.62-2.4,1.15-4.7,1.82-7.15l4.18-15.41h3.94l4.22,15.41c.62,2.45,1.2,4.75,1.82,7.15h.19c.58-2.4,1.06-4.7,1.68-7.15l4-15.41H77l-7.11,25.92H65.14L61.2,319.37c-.72-2.5-1.2-4.85-1.82-7.49h-.24c-.58,2.64-1.1,5.09-1.87,7.54l-3.79,14.4H48.86Z"/><path class="cls-4" d="M83.13,307.9h4l4.08,15.41c.58,2.45,1.06,4.75,1.58,7.15H93c.62-2.4,1.15-4.7,1.82-7.15L99,307.9h3.94l4.22,15.41c.62,2.45,1.2,4.75,1.82,7.15h.19c.58-2.4,1.06-4.7,1.68-7.15l4-15.41h3.75l-7.11,25.92h-4.75l-3.94-14.45c-.72-2.5-1.2-4.85-1.82-7.49h-.24c-.58,2.64-1.1,5.09-1.87,7.54L95,333.82H90.43Z"/><path class="cls-4" d="M125,331.37a3,3,0,1,1,2.93,3.07A3,3,0,0,1,125,331.37Z"/><path class="cls-4" d="M142.65,295.61h3.89v10.61l-.14,5.42c2.5-2.4,5.14-4.42,8.69-4.42,5.42,0,7.92,3.5,7.92,10.13v16.47h-3.94v-16c0-5-1.54-7.2-5.14-7.2-2.74,0-4.71,1.44-7.39,4.22v19h-3.89Z"/><path class="cls-4" d="M174.29,299.69a2.61,2.61,0,0,1,2.83-2.69,2.66,2.66,0,0,1,2.83,2.69,2.71,2.71,0,0,1-2.83,2.64A2.65,2.65,0,0,1,174.29,299.69Zm.86,8.21H179v25.92h-3.89Z"/><path class="cls-4" d="M189.65,320.9c0-8.69,5.76-13.68,12.34-13.68a10.74,10.74,0,0,1,7.58,3.12l-2.06,2.59a7.66,7.66,0,0,0-5.38-2.4c-4.85,0-8.45,4.18-8.45,10.37S197,331.18,202,331.18a9.74,9.74,0,0,0,6.29-2.64l1.73,2.59a12.45,12.45,0,0,1-8.35,3.31C194.88,334.44,189.65,329.45,189.65,320.9Z"/><path class="cls-4" d="M219.55,329.07V295.61h3.89v33.75c0,1.3.53,1.82,1.2,1.82a3.84,3.84,0,0,0,.91-.1l.58,3a7.19,7.19,0,0,1-2.35.34C220.8,334.44,219.55,332.52,219.55,329.07Z"/><path class="cls-4" d="M235.68,299.69a2.61,2.61,0,0,1,2.83-2.69,2.66,2.66,0,0,1,2.83,2.69,2.71,2.71,0,0,1-2.83,2.64A2.65,2.65,0,0,1,235.68,299.69Zm.86,8.21h3.89v25.92h-3.89Z"/><path class="cls-4" d="M251,320.9c0-8.69,5.76-13.68,12.34-13.68a10.74,10.74,0,0,1,7.58,3.12l-2.06,2.59a7.66,7.66,0,0,0-5.38-2.4c-4.85,0-8.45,4.18-8.45,10.37s3.36,10.27,8.35,10.27a9.74,9.74,0,0,0,6.29-2.64l1.73,2.59a12.45,12.45,0,0,1-8.35,3.31C256.27,334.44,251,329.45,251,320.9Z"/><path class="cls-4" d="M280.94,295.61h3.79v26.45h.14L296.4,307.9h4.32l-8.64,10.37,9.84,15.55h-4.27L289.82,321l-5.09,6v6.86h-3.79Z"/><path class="cls-4" d="M307.58,330.89l2-2.64a11.59,11.59,0,0,0,7.83,3.12c3.6,0,5.38-1.92,5.38-4.32,0-2.78-3.12-4-6-5.09-3.7-1.34-7.83-3.07-7.83-7.49,0-4,3.22-7.25,8.79-7.25a12.87,12.87,0,0,1,7.87,2.88l-1.87,2.54a10,10,0,0,0-6-2.3c-3.46,0-5,1.82-5,3.94,0,2.59,2.88,3.6,5.86,4.66,3.79,1.49,8,3,8,7.92,0,4.13-3.26,7.58-9.27,7.58A15.58,15.58,0,0,1,307.58,330.89Z"/><path class="cls-4" d="M335.37,331.37a3,3,0,1,1,2.93,3.07A3,3,0,0,1,335.37,331.37Z"/><path class="cls-4" d="M350.35,320.9c0-8.69,5.76-13.68,12.34-13.68a10.74,10.74,0,0,1,7.58,3.12l-2.06,2.59a7.66,7.66,0,0,0-5.38-2.4c-4.85,0-8.45,4.18-8.45,10.37s3.36,10.27,8.35,10.27a9.74,9.74,0,0,0,6.29-2.64l1.73,2.59a12.45,12.45,0,0,1-8.35,3.31C355.58,334.44,350.35,329.45,350.35,320.9Z"/><path class="cls-4" d="M377.13,320.9c0-8.69,5.57-13.68,11.91-13.68s12,5,12,13.68-5.62,13.54-12,13.54S377.13,329.45,377.13,320.9Zm19.83,0c0-6.19-3.26-10.37-7.92-10.37s-7.87,4.18-7.87,10.37,3.22,10.27,7.87,10.27S397,327,397,320.9Z"/><path class="cls-4" d="M411.64,307.9h3.17l.38,3.84h.14c2.26-2.5,5-4.51,8.06-4.51,4,0,6.14,2,7.15,5,2.78-3,5.52-5,8.64-5,5.28,0,7.87,3.5,7.87,10.13v16.47h-3.94v-16c0-5-1.58-7.2-5-7.2-2.11,0-4.32,1.39-6.82,4.22v19h-3.89v-16c0-5-1.58-7.2-5.09-7.2-2,0-4.32,1.39-6.77,4.22v19h-3.89Z"/><path class="cls-4" d="M458.3,331.37a3,3,0,1,1,2.93,3.07A3,3,0,0,1,458.3,331.37Z"/><path class="cls-4" d="M474.33,326V311.11H470.4v-3l4.08-.24.43-7.34h3.31v7.34h7.15v3.22h-7.15v15c0,3.17,1,5.09,4.08,5.09a9.24,9.24,0,0,0,3-.67l.77,2.93a15.81,15.81,0,0,1-4.61,1C476.06,334.44,474.33,331.08,474.33,326Z"/><path class="cls-4" d="M491.66,307.9h4l4.08,15.41c.58,2.45,1.06,4.75,1.58,7.15h.19c.62-2.4,1.15-4.7,1.82-7.15l4.18-15.41h3.94l4.22,15.41c.62,2.45,1.2,4.75,1.82,7.15h.19c.58-2.4,1.06-4.7,1.68-7.15l4-15.41h3.75L520,333.82h-4.75l-3.94-14.45c-.72-2.5-1.2-4.85-1.82-7.49h-.24c-.58,2.64-1.1,5.09-1.87,7.54l-3.79,14.4H499Z"/><rect class="cls-5" x="37.44" y="373.56" width="452.21" height="76.67" rx="25.64" ry="25.64"/><path class="cls-6" d="M117.21,411.82a38.53,38.53,0,0,0-7.83-4.94l2-2.45a38.71,38.71,0,0,1,7.87,4.61Zm-6.43,19.11a149.79,149.79,0,0,0,6.62-15.55l2.74,2c-1.78,5-4.18,11-6.24,15.5ZM114,390.5a40.7,40.7,0,0,1,8.3,4.8L120.14,398a40.35,40.35,0,0,0-8.21-5.09Zm14.69,8a42.42,42.42,0,0,1-5.14,8.07,20.28,20.28,0,0,0-3.12-2c3.41-3.65,6.34-9.22,8.06-14.79l3.5.86c-.53,1.54-1.15,3.07-1.78,4.56h21.94v3.26Zm20.74,17.67c-.24,3-.43,5.42-.62,7.39H152v3.17h-3.65c-.48,2.59-1,4-1.63,4.8a4.18,4.18,0,0,1-3.31,1.68,44,44,0,0,1-6-.1,8.77,8.77,0,0,0-.91-3c2.45.19,4.7.24,5.57.24s1.34-.1,1.78-.67a6.54,6.54,0,0,0,1.1-2.93H123.65c.58-2.83,1.2-6.62,1.73-10.56H121v-3.26h4.9c.43-3.41.86-6.82,1.15-9.79H150s0,1.25,0,1.68c-.14,3-.29,5.71-.38,8.11h3.79v3.26Zm-4,7.39c.24-1.92.48-4.32.67-7.39H128.69c-.34,2.64-.72,5.18-1.06,7.39ZM130,406.25c-.29,2.16-.58,4.42-.86,6.67h10.08a25.16,25.16,0,0,0-5.28-5.38l2-1.3a27.11,27.11,0,0,1,5.42,5.28l-2,1.39h6.82c.14-2,.24-4.18.34-6.67Zm4.75,10.08a31.49,31.49,0,0,1,5.81,5.76l-2.21,1.49a35.55,35.55,0,0,0-5.66-6Z"/><path class="cls-6" d="M182.78,397l2.45.82c-2.5,18.82-9.89,30.1-20.07,35.71a13,13,0,0,0-2.93-2.93,32,32,0,0,0,13.63-13.68,74.83,74.83,0,0,0-7.78-8.06,36.13,36.13,0,0,1-3,4.46,19.75,19.75,0,0,0-2.93-2.26c4.37-4.94,7.39-12.87,9.12-21.22l3.5.67c-.53,2.3-1.06,4.51-1.73,6.67h9Zm-10.9,3.55a46.93,46.93,0,0,1-2.3,5.47,84.71,84.71,0,0,1,7.92,7.44,59.79,59.79,0,0,0,3.55-12.91Zm22.42,3.74a96.31,96.31,0,0,1,11.86,10.85l-2.83,2.45a86.55,86.55,0,0,0-10.32-10v26.07h-3.65V389.88H193v15.46Z"/><path class="cls-6" d="M231.26,391.46a64.73,64.73,0,0,1-5.14,9.7v32.45h-3.6V406.3a54.45,54.45,0,0,1-6.43,7.06A23.48,23.48,0,0,0,214,409.9a53.81,53.81,0,0,0,13.87-19.49Zm12.67,16.22c1.63,12.72,4.75,21.31,9.89,21.79,1.39.1,2.16-2.74,2.64-8.26a14.46,14.46,0,0,0,3,1.87c-1.06,8.21-3,10.71-5.47,10.56-7.87-.58-11.71-10.51-13.54-25.49l-11.52,1.44-.48-3.36L240,404.81c-.38-4.46-.72-9.22-.91-14.21h3.55c.14,4.85.43,9.5.91,13.73L258,402.5l.48,3.36Zm10.8-7.2a51.25,51.25,0,0,0-7.73-7.87l2.59-1.73a50.64,50.64,0,0,1,7.92,7.68Z"/><path class="cls-6" d="M279.36,413.16a53.22,53.22,0,0,1-3.6,12.1c.91.58,2,1.44,3.65,2.4,3.36,2.06,7.73,2.4,13.39,2.4,6.19,0,13.92-.48,19.3-1a12.62,12.62,0,0,0-1.1,3.7c-3.55.24-12.62.53-18.34.53-6.29,0-10.51-.53-14-2.64-1.92-1.15-3.74-2.78-4.8-2.78s-2.69,3-4.08,6l-2.45-3.22c1.82-2.64,3.65-4.75,5.23-5.62a41,41,0,0,0,3-9.7h-6.29c1.34-2.83,3-6.91,4.32-10.71H268v-3.22h10.13c-1.25,3.46-2.83,7.49-4.18,10.8h2.69l.53-.14ZM273,398.9c-.58-2.06-1.63-5.33-2.45-7.83l3.17-.91c.82,2.5,1.92,5.62,2.54,7.68Zm10.71,1.3h-3.26v-8.64h29.76v8.64h-3.46v-5.81h-23Zm9.89,27.36v-4h-13v-2.74h13v-2.93H283.1V404.33h10.46v-2.88h-9.41v-2.69h9.41v-2.45H297v2.45h9v2.69h-9v2.88h10.61v13.59H297v2.93h13.44v2.74H297v4Zm-7.3-17.62h7.3v-3.17h-7.3Zm7.3,5.52V412.3h-7.3v3.17Zm3.46-8.69v3.17h7.34v-3.17Zm7.34,5.52H297v3.17h7.34Z"/><path class="cls-6" d="M337.58,429.43c0,1.92-.38,3-1.63,3.6s-3.12.67-6.34.67a11.61,11.61,0,0,0-1.06-3.41c2.21,0,4.22,0,4.8,0s.91-.24.91-.91V417.58h-7.54c-.43,5.66-1.39,11.66-3.6,16.18a11.77,11.77,0,0,0-2.93-1.73c3.31-6.72,3.55-16.23,3.55-23.28V391.61h13.83Zm-3.31-15.27V406.1H327v2.64c0,1.63,0,3.5-.1,5.42ZM327,394.92v7.87h7.25v-7.87Zm36.39,13.63a41.06,41.06,0,0,1-6.58,16.18,25.87,25.87,0,0,0,8,6.29,12.42,12.42,0,0,0-2.3,2.74,29.15,29.15,0,0,1-7.78-6.48,28.09,28.09,0,0,1-7.25,6.14,12.47,12.47,0,0,0-2.11-2.64,26.34,26.34,0,0,0,7.34-6.1,51.13,51.13,0,0,1-6.38-13.44h-1.2v22.47h-3.36v-42h20.26V401c0,1.82-.43,2.74-1.87,3.26s-3.94.48-7.54.48a10.1,10.1,0,0,0-1.15-3c2.93,0,5.42,0,6.14,0s1-.19,1-.77v-5.86H345.17v12.87h15.55l.62-.1Zm-13.92,2.69A41.42,41.42,0,0,0,354.72,422a36.11,36.11,0,0,0,4.8-10.75Z"/><path class="cls-6" d="M412.95,397.94a23.47,23.47,0,0,1-5.67,8.26,35.18,35.18,0,0,0,10.42,4.22,14.4,14.4,0,0,0-2.3,3,34.43,34.43,0,0,1-10.8-5.09,37,37,0,0,1-10.75,5,22,22,0,0,0-1.2-2,48.37,48.37,0,0,1-3,7.54l-2.45-1.34A46.19,46.19,0,0,0,390,409.8h-4.61v19.73c0,1.82-.34,2.74-1.58,3.31s-3.12.53-6,.53a13.07,13.07,0,0,0-1.1-3.17c2.06,0,3.94,0,4.56,0s.77-.19.77-.72V414.41c-1.87,4.51-4.32,8.93-6.91,11.62a18,18,0,0,0-1.92-3.36c3-2.93,6-8,7.73-12.87h-7.25v-3.17H386.5a46.53,46.53,0,0,0-10.66-6.43l2.11-2.3a49.16,49.16,0,0,1,4.8,2.35,32.22,32.22,0,0,0,5-4.85H374.16v-3.12h16.18l.62-.14,2.35,1.54a36.89,36.89,0,0,1-7.83,8.16,26.82,26.82,0,0,1,4,2.88l-1.63,1.92h3.31l.53-.19,2.16.86c-.24.86-.48,1.73-.77,2.64a32.91,32.91,0,0,0,8.74-3.79,26.51,26.51,0,0,1-5-5.9A34.94,34.94,0,0,1,393,404a19.27,19.27,0,0,0-2.78-2.3,29.48,29.48,0,0,0,9.31-11.81l3.41.91a37.61,37.61,0,0,1-2.16,4.13h16v3Zm-1,18.63h3.6s0,1.06-.14,1.58c-.82,8.93-1.78,12.53-3.17,13.92a4.46,4.46,0,0,1-3.26,1.25,51.82,51.82,0,0,1-5.38,0,6.94,6.94,0,0,0-1-3.12c2.11.19,4.13.24,5,.24a2.22,2.22,0,0,0,1.63-.48c1-.91,1.68-3.75,2.4-10.27h-8c-1.63,6.19-5,11.28-12.77,14.31a13.22,13.22,0,0,0-2.26-2.93c6.77-2.4,9.84-6.48,11.33-11.38h-7.54v-3h8.26c.29-1.54.48-3.17.62-4.8H405c-.14,1.63-.34,3.26-.62,4.8H412Zm-13-18.62a22.92,22.92,0,0,0,5.42,6.24,18.06,18.06,0,0,0,4.61-6.24Z"/><path class="cls-4" d="M105.18,475.69v39.6h-3.31v-2.88H77.53v3.12H74.27V475.69Zm-27.65,3.22V492.3h24.34V478.91Zm24.34,30.34V495.47H77.53v13.78Z"/><path class="cls-4" d="M143.05,485.82c3.55,8.26,9.79,16,16.61,19.78a18.54,18.54,0,0,0-2.45,2.69c-7.2-4.46-13.54-13.06-17.28-22.47h-.77v18h11.43V507H139.17v9.12h-3.31V507H124.48v-3.22h11.38v-18H135c-3.79,9.41-10.13,18-17,22.61a19.34,19.34,0,0,0-2.3-2.54c6.43-3.94,12.53-11.81,16.13-20.07H116.84v-3.22h19V472.43h3.31v10.18h19.2v3.22Z"/><path class="cls-4" d="M190.76,467.51h2.78V521h-2.78Z"/><path class="cls-4" d="M234,504.54h8.21v2.93H234V516h-3.07v-8.54h-8.35v-2.93h8.35v-4.27h-6.58v-15.6h6.58V480.4H223v-2.83h7.87v-5.23H234v5.23h7.73v2.83H234v4.27h6.72v15.6H234Zm-6.82-13.34h10.61v-3.94H227.18Zm0,6.48h10.61v-4H227.18Zm38.84-12H241.87v-2.59h7.3c.19-1.2.38-2.64.58-4.13h-5.38v-2.59H250c.14-1.34.29-2.69.38-3.89l3,.24c-.1,1.15-.24,2.4-.38,3.65h9.31v6.72H266Zm.1,25.15h-8.79v5.28h-3v-5.28H244.8c.62-2.06,1.34-4.95,1.87-7.49h-3.22v-2.59h10.9v-2.93h-9v-9.75h18.19v9.75h-6.24v2.93H265v2.59h-7.63v4.9h8.79ZM248.4,495.47h12v-5.09h-12Zm6,12.77v-4.9h-4.8c-.34,1.58-.77,3.36-1.15,4.9ZM252.72,479c-.19,1.49-.38,2.93-.58,4.13h7.3V479Z"/><path class="cls-4" d="M312.09,474.73v41.48h-3.17V514H275.47v2.16h-3.07V474.73Zm-3.17,36.39V477.66H275.47v33.46Zm-16.23-7.63c-5.14,1-10.32,2.06-14.3,2.83l-.62-2.45c3.79-.62,9.22-1.63,14.74-2.64Zm11.57-14a36.83,36.83,0,0,1-5.38,11.86c1.1,2.78,2.4,4.51,4,4.75.67.14,1.15-1.87,1.44-4.94a14,14,0,0,0,2.21,1.39c-.58,5-2,6.91-4.42,6.19-2.16-.38-3.84-2.16-5.14-4.94a31,31,0,0,1-6.67,5.86,15.56,15.56,0,0,0-2-2,26.07,26.07,0,0,0,7.54-6.58,71.11,71.11,0,0,1-2.74-14.45H278.3v-2.5h14.64c-.14-1.73-.29-3.46-.38-5.23h2.78c.1,1.78.19,3.5.34,5.23h10.61v2.5H295.92a74.83,74.83,0,0,0,2,11.57,33.66,33.66,0,0,0,3.74-9.22Zm-13.58.29v9.46H280v-9.46Zm-2.4,2.11h-6v5.23h6Zm15.31-8.4a21.34,21.34,0,0,0-5.33-3.5l1.49-1.68a20.69,20.69,0,0,1,5.38,3.41Z"/><path class="cls-4" d="M341.12,467.51h2.78V521h-2.78Z"/><path class="cls-4" d="M416.12,493.41v2.83H396c-.14,1.34-.38,2.69-.62,3.89h20.07V503H394.56c-2.26,6.72-7.39,10.85-20,13a10.54,10.54,0,0,0-1.63-2.83c11.33-1.68,16-4.9,18.19-10.18H374.69v-2.83H392a29.8,29.8,0,0,0,.67-3.89H373.58v-2.83H393V489H378v-2.78H393v-4.13H375.41V479.2h10.23a32.71,32.71,0,0,0-3.84-5.81l2.78-1.15a26.13,26.13,0,0,1,4.22,6.14l-1.68.82h13a57.26,57.26,0,0,0,4.32-7l3.17,1.1a69.16,69.16,0,0,1-3.94,5.86h10.42v2.93H396.24v4.13H411.7V489H396.24v4.37Zm-19.73,10.32c6.67,2.59,15.26,6.82,19.68,9.84l-1.54,2.74c-4.22-3.12-12.82-7.49-19.59-10.27Z"/><path class="cls-4" d="M462.48,474.73v41.48h-3.17V514H425.86v2.16h-3.07V474.73Zm-3.17,36.39V477.66H425.86v33.46Zm-16.23-7.63c-5.14,1-10.32,2.06-14.3,2.83l-.62-2.45c3.79-.62,9.22-1.63,14.74-2.64Zm11.57-14a36.83,36.83,0,0,1-5.38,11.86c1.1,2.78,2.4,4.51,4,4.75.67.14,1.15-1.87,1.44-4.94a13.94,13.94,0,0,0,2.21,1.39c-.58,5-2,6.91-4.42,6.19-2.16-.38-3.84-2.16-5.14-4.94a31,31,0,0,1-6.67,5.86,15.56,15.56,0,0,0-2-2,26.07,26.07,0,0,0,7.54-6.58,71.11,71.11,0,0,1-2.74-14.45H428.69v-2.5h14.64c-.14-1.73-.29-3.46-.38-5.23h2.78c.1,1.78.19,3.5.34,5.23h10.61v2.5H446.31a74.83,74.83,0,0,0,2,11.57A33.66,33.66,0,0,0,452,489Zm-13.58.29v9.46H430.37v-9.46Zm-2.4,2.11h-6v5.23h6Zm15.31-8.4a21.35,21.35,0,0,0-5.33-3.5l1.49-1.68a20.69,20.69,0,0,1,5.38,3.41Z"/></svg>